<?xml version="1.0" standalone="no"?>
<!DOCTYPE svg PUBLIC "-//W3C//DTD SVG 1.1//EN" "http://www.w3.org/Graphics/SVG/1.1/DTD/svg11.dtd" >
<svg xmlns="http://www.w3.org/2000/svg">
<metadata>
This is a custom SVG webfont generated by Font Squirrel.
Copyright   : Based on Polonaise from Phil Martin 19232005
</metadata>
<defs>
<font id="ChopinScriptMedium" horiz-adv-x="1061" >
<font-face units-per-em="1000" ascent="800" descent="-200" />
<missing-glyph horiz-adv-x="270" />
<glyph unicode=" "  horiz-adv-x="270" />
<glyph unicode="&#x09;" horiz-adv-x="270" />
<glyph unicode="&#xa0;" horiz-adv-x="270" />
<glyph unicode="!" horiz-adv-x="328" d="M411 641q0 -29 -35.5 -90.5t-134.5 -202.5l-108 -168h-11q20 38 30 61l146 344q17 41 41.5 68t45.5 27q26 0 26 -39zM97 50q0 -23 -18 -41.5t-40 -18.5q-19 0 -30.5 14t-11.5 36q0 23 18 41.5t40 18.5q19 0 30.5 -14t11.5 -36z" />
<glyph unicode="&#x22;" horiz-adv-x="265" d="M301 655q0 -17 -16.5 -45.5t-45.5 -72.5t-45 -75h-7q16 31 37 88t36 88.5t30 31.5q11 0 11 -15zM406 655q0 -17 -16.5 -45.5t-45.5 -72.5t-45 -75h-7q16 31 37 88t36 88.5t30 31.5q11 0 11 -15z" />
<glyph unicode="#" horiz-adv-x="265" d="M131 294h-64l6 11h62q60 132 81 132q11 0 11 -16q0 -25 -49 -116h64q60 132 81 132q11 0 11 -16q0 -25 -49 -116h49l-6 -11h-49q-14 -28 -46 -86h49l-6 -12h-50q-41 -72 -69 -126h-18q20 39 56 126h-76q-41 -72 -69 -126h-18q20 39 56 126h-73l6 12h73q24 58 37 86z M238 294h-66q-14 -28 -46 -86h75q24 58 37 86z" />
<glyph unicode="$" horiz-adv-x="370" d="M336 426q0 -24 -16 -41.5t-38 -17.5q-38 0 -38 37q0 15 1 22q19 -11 31 -11q11 0 17.5 8t6.5 21q0 22 -16 36t-40 14q-26 0 -44 -17.5t-18 -43.5q0 -31 17 -71l31 -67q16 -36 16 -76q0 -57 -35.5 -91t-94.5 -34q-34 0 -58 6l-52 -97l-17 6l53 99q-54 37 -54 96 q0 38 26.5 67t62.5 29q29 0 48.5 -18t19.5 -44q0 -21 -15 -37.5t-34 -16.5q-22 0 -44 35q35 5 35 25q0 9 -7 15t-18 6q-21 0 -37.5 -22t-16.5 -50q0 -32 23.5 -54t58.5 -22q31 0 57 24.5t26 53.5q0 19 -16 58l-33 91q-10 30 -10 54q0 50 34.5 81t89.5 31q14 0 19 -1l33 61 l14 -6l-31 -59q29 -9 46 -31.5t17 -47.5z" />
<glyph unicode="%" horiz-adv-x="504" d="M491 599q0 -20 -26.5 -43t-91.5 -58q-119 -179 -282 -376q-38 -46 -82 -128q-6 -6 -20 -6h-12q-6 0 -12.5 -7t-9.5 -14l-3 -7l-12 1q23 70 49.5 113t78.5 97l68 74q102 115 197 240l-73 -13q-22 -63 -62 -101t-75 -38q-26 0 -45.5 20.5t-19.5 49.5q0 58 53.5 124 t108.5 66q22 0 35 -15.5t13 -42.5q0 -23 -5 -46q49 4 88 20q75 107 120 107q20 0 20 -17zM381 209q0 -64 -46 -132t-101 -68q-26 0 -45 21.5t-19 52.5q0 60 56 123.5t101 63.5q25 0 39.5 -16t14.5 -45zM474 594q0 8 -9 8q-25 0 -78 -78q47 28 67 43t20 27zM251 534 q0 34 -26 34q-12 0 -21.5 -10.5t-9.5 -25.5q0 -38 49 -41q8 24 8 43zM240 475q-33 8 -44.5 16.5t-23.5 35.5q-55 -96 -55 -144q0 -27 25 -27q18 0 51.5 35t46.5 84zM362 198q0 16 -1 25t-7 16.5t-18 7.5q-34 0 -71 -71t-37 -116q0 -30 21 -30q25 0 69 55.5t44 112.5z" />
<glyph unicode="&#x26;" horiz-adv-x="854" d="M867 548q0 -39 -33 -76.5t-89 -64.5q-27 -13 -69.5 -31.5t-71 -31.5t-37.5 -18q56 -3 89.5 -43t33.5 -92q0 -85 -66.5 -143t-163.5 -58q-76 0 -141 36.5t-89 96.5q-36 -9 -63 -9q-65 0 -112.5 40.5t-47.5 95.5q0 29 13 48t34 20q-2 -32 -2 -42q0 -56 35 -95.5t85 -39.5 q18 0 48 5q-9 42 -9 73q0 98 62 164.5t159 66.5q-21 29 -28 47t-7 46q0 71 53 117.5t134 46.5q64 0 109 -32t45 -77q0 -32 -25 -57.5t-58 -25.5q-27 0 -44 11.5t-32 39.5l16 2q26 -37 61 -37q26 0 46 20t20 47q0 31 -25 50.5t-63 19.5q-62 0 -108 -45.5t-46 -108.5 q0 -33 10.5 -53.5t44.5 -44.5l3 -11q-27 4 -51 4q-66 0 -117 -64t-42 -152q16 11 35 20.5t30 13.5l11 4q4 50 57.5 92.5t143.5 70.5q149 46 196.5 76t47.5 79q0 29 -26 64l7 7q22 -21 29.5 -35.5t7.5 -36.5zM584 182q0 26 -19.5 44t-48.5 18q-20 0 -62 -16q-5 -16 -5 -35 q0 -31 20.5 -50.5t52.5 -19.5q25 0 43.5 17.5t18.5 41.5zM669 190q0 49 -34 82.5t-84 33.5q-29 0 -47.5 -12t-41.5 -45q44 10 57 10q35 0 61.5 -24.5t26.5 -56.5q0 -30 -24.5 -50.5t-61.5 -20.5q-45 0 -79.5 28t-36.5 77q-43 -20 -73 -42q8 -57 59 -102.5t112 -45.5 q67 0 116.5 50t49.5 118z" />
<glyph unicode="'" horiz-adv-x="158" d="M253 624q0 -31 -11.5 -55t-39.5 -55q-27 -29 -46 -29q-9 1 -9 7q0 4 2.5 6t8 4.5t9.5 4.5q31 23 31 40q0 10 -7 13q-39 20 -39 49q0 24 17 42.5t39 18.5q18 0 31.5 -14t13.5 -32z" />
<glyph unicode="(" horiz-adv-x="340" d="M596 776q0 -11 -18.5 -26t-52 -37t-72 -52t-85.5 -83.5t-86 -119.5q-67 -114 -90 -242t4 -240q11 -44 41.5 -87t55 -69t24.5 -33q0 -16 -11 -16q-16 0 -47 28.5t-64 75t-57.5 120.5t-24.5 151q0 110 31 195t99 167q71 86 152 154t126 95t55 27h6.5h6t3.5 -0.5t3 -2.5 t1 -5z" />
<glyph unicode=")" horiz-adv-x="340" d="M320 409q0 -110 -31 -195t-99 -167q-71 -86 -152 -154t-126 -95t-55 -27h-6.5h-6t-3.5 0.5t-3 2.5t-1 5q0 11 18.5 26t52 37t72 52t85.5 83.5t86 119.5q67 114 90 242t-4 240q-11 44 -41.5 87t-55 69t-24.5 33q0 16 11 16q16 0 47 -28.5t64 -75t57.5 -120.5t24.5 -151z " />
<glyph unicode="*" horiz-adv-x="268" d="M389 516q0 -15 -15.5 -26t-38.5 -11q-10 0 -29 5.5t-28 5.5q-8 0 -10 -10q-1 -6 7 -14q29 -31 29 -39q0 -15 -13.5 -26.5t-31.5 -11.5q-11 0 -19.5 8t-8.5 19q0 5 6.5 20t7.5 20q3 14 -2 14q-16 0 -44 -35q-21 -30 -46 -30q-11 0 -19 7.5t-8 17.5q0 12 10.5 22t26.5 13 q63 13 63 26q0 4 -7 6t-19.5 3.5t-20.5 4.5q-19 7 -19 25q0 15 13 25t30 10q5 0 9 -1t7.5 -3.5t5.5 -4.5t4 -7t3 -7t3 -8t3 -8q3 -8 7 -14t7 -5q9 4 12 24q2 10 3 22.5t2.5 18.5t5.5 11q15 22 39 22q13 0 21 -6.5t8 -17.5q0 -14 -35 -45q-4 -4 -13.5 -11t-14.5 -11.5 t-3 -6.5q7 -9 48 20q20 13 37 13q27 0 27 -24z" />
<glyph unicode="+" horiz-adv-x="336" d="M262 276l-15 -15h-92l-69 -123h-70l69 123h-88l15 15h81l69 122h70l-69 -122h99z" />
<glyph unicode="," horiz-adv-x="244" d="M127 54q0 -31 -11.5 -55t-39.5 -55q-27 -29 -46 -29q-9 1 -9 7q0 4 2.5 6t8 4.5t9.5 4.5q31 23 31 40q0 10 -7 13q-39 20 -39 49q0 24 17 42.5t39 18.5q18 0 31.5 -14t13.5 -32z" />
<glyph unicode="-" horiz-adv-x="268" d="M234 190q0 -3 -1.5 -7.5t-6.5 -12t-13 -14t-23 -11t-34 -4.5q-3 0 -40.5 5.5t-61.5 5.5q-6 0 -16 -3.5t-14 -3.5q-6 0 -6 6q0 10 25 25q2 1 8 5t7.5 4.5t6.5 3t7 3t6 2t7 2t7.5 1t9.5 0.5q11 0 40 -4t35 -4q17 0 33 3.5t20 3.5t4 -6z" />
<glyph unicode="." horiz-adv-x="244" d="M118 50q0 -23 -18 -41.5t-40 -18.5q-19 0 -30.5 14t-11.5 36q0 23 18 41.5t40 18.5q19 0 30.5 -14t11.5 -36z" />
<glyph unicode="/" horiz-adv-x="360" d="M416 656q-80 -95 -236.5 -323.5t-182.5 -296.5q-9 -24 -17.5 -33.5t-24.5 -12.5q-5 -1 -11 -1q-5 0 -8.5 -4t-7 -12t-5.5 -11q-4 -6 -8 -6q-5 0 -5 6q0 36 70 151q88 142 171.5 251t247.5 294z" />
<glyph unicode="0" horiz-adv-x="522" d="M483 489q0 -71 -32.5 -157.5t-84 -162t-124.5 -126.5t-147 -51q-55 0 -92.5 38t-37.5 93q0 64 34 147t87 157.5t126.5 126t144.5 51.5q55 0 90.5 -28.5t35.5 -87.5zM414 516q0 78 -53 78q-49 0 -129.5 -103t-141.5 -230t-61 -192q0 -23 19.5 -43t43.5 -20q58 0 136.5 98 t132 220t53.5 192z" />
<glyph unicode="1" horiz-adv-x="299" d="M319 531q0 -4 -41.5 -62t-98 -144t-84.5 -146q-21 -44 -41 -94.5t-30.5 -78.5t-14.5 -32q-6 -6 -66 -1q-23 -33 -35 -39q11 38 19.5 64t16 45t11 26.5t12.5 24.5t12 24q23 45 74.5 115t87.5 115.5t32 45.5q-6 0 -30.5 -21t-46.5 -41l-22 -21l-23 -11q21 27 129.5 131.5 t133.5 104.5q6 -1 6 -3q-1 -1 -1 -2z" />
<glyph unicode="2" horiz-adv-x="453" d="M416 444q0 -49 -27.5 -90.5t-75.5 -71t-92.5 -49.5t-98.5 -39.5t-73 -29.5q-41 -20 -86 -55t-45 -48q7 0 44 6t60 7q29 1 73.5 -8.5t62.5 -9.5q22 0 44 11.5t61 43.5q11 -35 -43 -85t-112 -50q-30 0 -73 10.5t-64 10.5q-38 0 -63.5 -3t-34 -6t-14.5 -6t-9 -3q-5 0 -7 7v3 q0 15 35 53t66 64q40 35 149.5 94.5t120.5 70.5q52 49 87.5 105.5t35.5 96.5q0 34 -27 57.5t-65 23.5q-45 0 -83 -34t-38 -76q0 -20 12 -34t28 -14q9 0 17.5 7.5t8.5 16.5q0 7 -4 17.5t-4 14.5q32 7 44 -9.5t12 -35.5q0 -24 -18 -40.5t-45 -16.5q-32 0 -52 21t-20 55 q0 56 57 102.5t127 46.5q59 0 94 -35.5t35 -95.5z" />
<glyph unicode="3" horiz-adv-x="486" d="M519 549l-306 -217q44 -5 80.5 -39t36.5 -98q0 -89 -79.5 -159.5t-179.5 -70.5q-55 0 -93 36.5t-38 88.5q0 43 29.5 76.5t66.5 33.5q26 0 46 -20t20 -46q0 -24 -16 -40.5t-39 -16.5t-36 28q34 9 34 24q0 32 -30 32q-27 0 -45 -21t-18 -53q0 -37 25.5 -60t69.5 -23 q78 0 141.5 81.5t63.5 148.5q0 26 -20 43t-50 17q-18 0 -39.5 -12.5t-22.5 -12.5q-4 0 -9.5 2.5t-5.5 4.5l263 182q-4 1 -23.5 7t-31.5 9t-31 6t-36 2q-22 -1 -43.5 -6.5t-47 -16.5t-29.5 -12q2 4 6.5 11t19.5 24.5t31.5 31t43 24.5t54.5 11q18 0 67 -12t87 -12q32 0 84 24z " />
<glyph unicode="4" horiz-adv-x="473" d="M445 585q1 -13 -2 -22q-5 -12 -12.5 -24t-18.5 -23t-18 -17t-20 -16l-12 -10q-57 -44 -162.5 -115t-159.5 -114.5t-54 -69.5q0 -12 31 -19.5t67 -5.5l73 4q1 1 11 16t27.5 41.5t41.5 59t60 76.5t76 88q20 20 26 20q2 0 -40.5 -74t-86.5 -148l-43 -73l129 10 q-4 -7 -10.5 -22t-12.5 -25q-16 0 -60.5 2.5t-55.5 2.5q-5 -11 -22 -51.5t-30.5 -67t-21.5 -26.5l-51 10q-23 -32 -37 -37q4 27 22 64t40 73t23 38l-101 3q-41 2 -62.5 8t-21.5 24q0 19 45 59t119 100t114 102l126 137l56 -3z" />
<glyph unicode="5" horiz-adv-x="451" d="M479 584q0 -7 -17 -30q-11 -15 -29.5 -29t-32 -21t-16.5 -7q-29 0 -73.5 4t-59.5 4q-35 0 -72 -29l-62 -107q45 20 93 20q47 0 84.5 -43.5t37.5 -100.5q0 -105 -87 -187t-197 -82q-55 0 -92 32t-37 79q0 40 29 71t66 31q27 0 47 -20t20 -46q0 -22 -15 -38t-37 -16 q-20 0 -32 29q30 4 30 28q0 13 -10 21t-25 8q-22 0 -41 -20.5t-19 -48.5q0 -40 27 -64.5t77 -24.5q51 0 103.5 53.5t82.5 119.5t30 109q0 40 -23.5 66t-60.5 26q-18 0 -36 -11t-28.5 -24.5t-19.5 -24.5t-13 -11q-10 0 12 37l106 185q15 26 43.5 39.5t54.5 13.5 q23 0 54 -10.5t42 -10.5q23 0 56.5 17t36.5 17t3 -4z" />
<glyph unicode="6" horiz-adv-x="481" d="M489 522q0 -25 -20 -44.5t-46 -19.5q-19 0 -32.5 13.5t-13.5 32.5q0 17 15 21q16 -21 28 -21q13 0 21.5 11.5t8.5 27.5q0 22 -19 33.5t-47 11.5q-30 0 -61 -19t-53 -42.5t-47.5 -63.5t-36.5 -60t-28 -54q17 11 47 20t47 9q46 0 78.5 -37.5t32.5 -91.5q0 -100 -80 -186.5 t-166 -86.5q-57 0 -97.5 40.5t-40.5 96.5q0 70 34 155.5t91 159.5q61 81 134 126t146 45q43 0 74 -23t31 -54zM294 291q0 66 -63 66q-34 0 -56 -13.5t-43 -45.5q-34 -52 -57.5 -129t-23.5 -116q0 -27 15 -43t41 -16q29 0 73.5 49t79 121t34.5 127z" />
<glyph unicode="7" horiz-adv-x="436" d="M470 591q0 -11 -42.5 -60t-140.5 -155.5t-156 -172.5q-29 -32 -60 -83.5t-49.5 -86t-21.5 -34.5q-4 0 -15.5 5t-18.5 6q-18 1 -32 -9t-23 -22.5t-12 -13.5q-1 3 -0.5 5.5t1.5 8t1 9.5q0 33 88.5 157t172.5 176q68 42 128.5 92t87.5 78.5t36 40.5q-11 0 -39.5 -6.5 t-44.5 -7.5q-28 -3 -77.5 3.5t-73.5 0.5q-38 -9 -90 -42q33 65 63.5 90.5t81.5 25.5q19 0 71 -11.5t84 -11.5q17 0 43 13l27 13q11 0 11 -8z" />
<glyph unicode="8" horiz-adv-x="520" d="M501 479q0 -54 -49.5 -94t-137.5 -58q57 -79 57 -142q0 -83 -66 -141t-161 -58q-72 0 -124 45t-52 106q0 64 53 110t174 74q-27 53 -27 99q0 72 54.5 121.5t134.5 49.5q61 0 102.5 -32t41.5 -80zM438 500q0 81 -81 81q-37 0 -77.5 -35t-40.5 -81q0 -41 20 -76.5t42 -47.5 q63 22 100 65t37 94zM291 161q0 50 -85 144q-61 -5 -111 -57t-50 -119q0 -53 29 -91t70 -38q55 0 101 51t46 110z" />
<glyph unicode="9" horiz-adv-x="490" d="M429 473q0 -66 -34.5 -150t-88.5 -158t-129.5 -125t-149.5 -51q-46 0 -81 25t-35 57q0 22 21.5 42.5t47.5 20.5q20 0 33 -10.5t13 -28.5q-8 -22 -14 -32q-17 24 -32 24q-12 0 -20 -10t-8 -24q0 -22 15.5 -36t41.5 -14q56 0 107 50.5t121 177.5q-41 -18 -91 -18 q-42 0 -70 36.5t-28 89.5q0 101 79 183.5t176 82.5q55 0 90.5 -37.5t35.5 -94.5zM363 533q0 24 -12.5 42.5t-33.5 18.5q-40 0 -89 -58.5t-81.5 -130t-32.5 -111.5q0 -27 18 -46.5t45 -19.5q44 0 89 53.5t71 124.5t26 127z" />
<glyph unicode=":" horiz-adv-x="244" d="M190 253q0 -23 -18 -41.5t-40 -18.5q-19 0 -30.5 14t-11.5 36q0 23 18 41.5t40 18.5q19 0 30.5 -14t11.5 -36zM74 45q0 -23 -18 -41.5t-40 -18.5q-19 0 -30.5 14t-11.5 36q0 23 18 41.5t40 18.5q19 0 30.5 -14t11.5 -36z" />
<glyph unicode=";" horiz-adv-x="244" d="M180 253q0 -23 -18 -41.5t-40 -18.5q-19 0 -30.5 14t-11.5 36q0 23 18 41.5t40 18.5q19 0 30.5 -14t11.5 -36zM83 54q0 -31 -11.5 -55t-39.5 -55q-27 -29 -46 -29q-9 1 -9 7q0 4 2.5 6t8 4.5t9.5 4.5q31 23 31 40q0 10 -7 13q-39 20 -39 49q0 24 17 42.5t39 18.5 q18 0 31.5 -14t13.5 -32z" />
<glyph unicode="&#x3c;" horiz-adv-x="315" d="M238 89l-164 140l266 140l-10 -29l-211 -111l130 -112z" />
<glyph unicode="=" horiz-adv-x="268" d="M281 255h-170l9 25h170zM246 171h-172l9 25h172z" />
<glyph unicode="&#x3e;" horiz-adv-x="316" d="M315 229l-266 -140l11 28l210 112l-129 111l10 29z" />
<glyph unicode="?" horiz-adv-x="522" d="M506 553q0 -50 -45.5 -107t-111.5 -88l-208 -103q-12 -6 -22 -20.5t-10 -25.5q0 -30 38 -30q12 0 25 4l11 -7q-23 -6 -46 -8q-18 0 -30 11.5t-12 29.5q0 32 29 54q9 7 148 95q30 18 83 68q78 75 78 130q0 40 -30 65.5t-77 25.5q-49 0 -96 -25q-51 -29 -86.5 -74.5 t-35.5 -84.5q0 -21 14 -35t34 -14q23 0 55 18l10 -3q-36 -26 -67 -26q-24 0 -40.5 16.5t-16.5 42.5q0 83 80.5 150t179.5 67q62 0 105.5 -36.5t43.5 -89.5zM111 50q0 -23 -18 -41.5t-40 -18.5q-19 0 -30.5 14t-11.5 36q0 23 18 41.5t40 18.5q19 0 30.5 -14t11.5 -36z" />
<glyph unicode="@" horiz-adv-x="691" d="M615 348q-15 -56 -56.5 -119t-87.5 -100q-58 -46 -104 -46q-51 0 -68.5 20.5t-5.5 72.5q-44 -59 -95 -59q-30 0 -49 25.5t-19 73.5q0 74 66 145t158 71q34 0 51 -24q11 15 21 15q6 0 21 -3t21 -3q4 0 16 12.5t17 14.5l-131 -246q-20 -36 -21 -52q0 -38 44 -38q27 0 81 49 q38 35 72.5 90t47.5 102q27 98 -21 157.5t-148 59.5q-129 0 -241.5 -91t-151.5 -236q-36 -137 21 -212t182 -75q95 0 181.5 50.5t151.5 143.5h20q-34 -60 -89 -107q-124 -108 -272 -108q-132 0 -195 88t-28 222q39 145 161.5 244t261.5 99q111 0 163.5 -66.5t24.5 -169.5z M390 390q0 9 -5.5 16.5t-15.5 7.5q-40 0 -84 -51t-70 -109.5t-26 -88.5q0 -33 20 -33q40 0 79 66q102 174 102 192z" />
<glyph unicode="A" d="M1229 -15q0 -60 -59 -105.5t-124 -47.5q-31 -1 -61.5 3.5t-56.5 13t-47.5 17t-42 21t-31.5 19.5t-25 18l-14 11q-1 -1 -18 -10.5t-36 -20t-48 -24.5t-60.5 -26t-66.5 -23t-73.5 -17.5t-73.5 -6.5q-173 0 -286.5 105t-113.5 266q0 162 97.5 261t257.5 99q25 0 58 -12v-12 q-35 13 -58 13q-160 0 -252 -101t-92 -248q0 -155 110.5 -258t278.5 -103q73 0 164.5 31.5t146.5 63.5l55 31l-36 32q-4 -1 -11 -2t-24.5 -2.5t-31 0.5t-24.5 9.5t-11 21.5q0 13 11 17.5t26 1.5t30.5 -7.5t26.5 -9.5l11 -5q9 0 41.5 29.5t36.5 39.5l12 27q12 27 21.5 50.5 t21.5 56t19 61t7 47.5q-45 -9 -122 -9q-6 -9 -33 -50.5t-47 -71t-56 -72t-68.5 -69.5t-75.5 -47t-86 -20q-75 0 -116 36.5t-41 93.5q0 86 76.5 150.5t188.5 64.5h249q30 65 78 126q41 52 86 93t79.5 63t64 36.5t45.5 19.5l15 4q10 0 10 -16q0 -9 -13 -21.5t-33 -32.5 t-40 -48.5t-37 -80t-22 -116.5q8 3 21 8t46.5 26t59 46t46.5 69t21 95q0 107 -95.5 181t-233.5 74q-142 0 -240.5 -82.5t-98.5 -176.5q0 -41 11 -75t26 -53t30.5 -32t26.5 -17l11 -5l-3 -13l-12.5 5t-27.5 18t-35.5 35t-28 56.5t-12.5 80.5q0 99 103.5 186t249.5 87 q144 0 243.5 -78t99.5 -191q0 -55 -21.5 -102t-52.5 -75t-62 -48.5t-52 -28.5l-22 -8q-7 -58 -10 -71q-5 -19 -19.5 -49.5t-41 -71t-71 -82.5t-96.5 -71q24 -22 30 -28q165 102 214.5 125.5t104.5 23.5q56 0 95 -34t39 -82zM1056 617q-19 0 -77 -45.5t-103 -96.5 q-31 -35 -55.5 -72.5t-34 -56.5t-13.5 -30q64 0 112 9q7 43 29 89.5t47 81t49.5 63t37 43.5t8.5 15zM1215 -16q0 44 -34 73.5t-85 29.5q-53 0 -96.5 -20t-174.5 -100q-25 -16 -39 -24q4 -4 12 -10.5t35 -23t55.5 -29.5t71.5 -23.5t86 -10.5q61 0 115 43t54 95zM696 -10 q-3 2 -9 4.5l-18 7.5t-20 4.5t-8 -7.5q0 -11 13.5 -13.5t27.5 0.5zM741 299h-201q-103 0 -178.5 -60t-75.5 -138q0 -116 110 -116q28 0 58 11t53.5 25t52 41t46 46t43 54t35.5 50t32.5 49t24.5 38z" />
<glyph unicode="B" horiz-adv-x="1064" d="M1304 544q0 -24 -25 -44.5t-59 -25.5l-10 10q35 7 57 24.5t22 35.5q0 38 -57 68t-123 30q-58 0 -140 -35q3 -3 15.5 -16.5t18 -19.5t15.5 -20t14.5 -24t8.5 -24.5t4 -28.5q0 -51 -27 -86t-96 -75q27 -33 37.5 -67t10.5 -87q19 6 53 27t55 40l8 -8q-57 -49 -122 -76 q-27 -70 -94.5 -119.5t-163.5 -48.5q-68 2 -68 48q0 34 26 58t65.5 35t72.5 15.5t61 4.5q21 20 29 67.5t-2 104.5q-10 -2 -26 -2q-12 0 -26 8.5t-14 20.5q0 11 10.5 16.5t21.5 5.5t23 -5.5t19 -10.5l6 -6q9 8 22.5 21.5t35.5 50.5t22 68q0 97 -40 120q-18 -9 -46 -39 t-47 -55l-19 -26q-24 -35 -49 -123.5t-51 -128.5q-55 -84 -107.5 -135t-132 -82t-185.5 -31q-130 0 -213.5 76.5t-83.5 204.5q0 146 106 255t248 109q55 0 124 -29q5 3 36 22t42.5 23.5t41.5 16t63.5 15t76.5 3.5q40 0 75.5 -6.5t52.5 -13t43 -18.5t31 -14q3 1 26 10t36 13 t40.5 8.5t56.5 4.5q74 0 134.5 -34t60.5 -76zM887 324q-15 19 -31 19q-12 0 -12 -9q0 -6 6.5 -10t13.5 -4zM629 352q0 145 -141 223q-32 -30 -46.5 -46.5t-29.5 -49t-15 -68.5q0 -65 36.5 -104t96.5 -39q48 0 84 33q15 35 15 51zM860 120q-47 1 -91 -6.5t-81.5 -31 t-37.5 -60.5q0 -14 12.5 -22t29.5 -8q26 -1 51.5 11t45.5 31t34.5 36.5t25 33t11.5 16.5zM931 607q-8 6 -23.5 15t-63.5 23.5t-96 14.5q-86 0 -137 -18t-113 -60q73 -45 108 -100t35 -130q0 -2 -5 -35q2 4 8.5 13.5t9 14t6 12t5.5 15t2 15.5q1 21 -21 67l11 3q1 -2 5.5 -9.5 t6.5 -11.5t5 -11.5t4.5 -16.5t1.5 -20q0 -48 -54 -102q-21 -62 -72.5 -102t-114.5 -40v14q32 -5 87 23.5t75 88.5q-44 -15 -71 -15q-66 0 -105 44t-39 113q0 20 3.5 39t11 34.5t14.5 27.5t18 24t17 18.5t16 15t11 9.5q-17 9 -52 19t-61 10q-131 0 -237 -106.5t-106 -247.5 q0 -116 78 -192t208 -76q61 0 128.5 34t120.5 90q23 24 42 51t33 56t22 47t17.5 44.5t9.5 27.5q36 96 107 168.5t144 101.5z" />
<glyph unicode="C" horiz-adv-x="933" d="M1153 -254q0 -23 -22 -54q-3 3 -5 6q15 28 15 48q0 58 -79.5 103t-185.5 45q-67 0 -145 -24t-137.5 -53t-134 -53t-135.5 -24q-145 0 -233 99.5t-88 247.5q0 86 35 167t94.5 142.5t144 99t177.5 37.5q40 0 89.5 -4.5t78 -8.5t29.5 -3q7 4 19.5 11t50.5 24.5t75 31 t87 24.5t93 11q101 0 101 -58q0 -36 -42 -63.5t-119 -27.5q-25 0 -73 5t-83 9l-36 5q-76 -62 -129 -126q-56 -68 -92 -141.5t-37 -126.5q0 -38 22 -60q-5 36 11.5 89.5t49 106t87.5 89.5t117 37q37 0 58 -24.5t21 -67.5q0 -77 -52.5 -150t-121.5 -111.5t-120 -28.5 q23 -31 63 -31q45 0 96 35t79 70l29 35l8 -9q-4 -6 -11.5 -15.5t-30.5 -34.5t-46.5 -44.5t-57.5 -35t-66 -15.5q-27 0 -51 14t-35 28l-11 14q-4 2 -10.5 5t-22.5 17t-28.5 32t-23 51t-10.5 72q0 53 21.5 106t50.5 91t64.5 71.5t57.5 50t35 23.5q0 2 -31.5 6t-76.5 7.5 t-76 3.5q-121 0 -223.5 -63.5t-159.5 -163.5t-57 -208q0 -141 85 -238.5t225 -97.5q55 0 129 24t136 53t142 53t145 24q116 0 196.5 -45.5t80.5 -113.5zM1066 561q0 47 -90 47q-25 0 -58 -11t-62.5 -27t-55 -32.5t-40.5 -27.5l-15 -11q122 -18 171 -18q36 0 66.5 5.5 t57 24.5t26.5 50zM798 272q0 67 -66 67q-51 0 -105 -46t-88.5 -112t-34.5 -123q0 -24 11 -52q21 -14 41 -14q54 0 112.5 52t94 118t35.5 110z" />
<glyph unicode="D" horiz-adv-x="852" d="M279 58q-7 7 -19.5 18t-53.5 29t-84 19q-28 0 -45.5 -17t-17.5 -43q0 -31 25.5 -52.5t62.5 -21.5q56 0 129 65zM410 400q0 62 -51.5 99.5t-118.5 37.5q-75 0 -148 -73l-7 -7q1 -7 4 -19t17 -43t33 -54.5t55.5 -43t81.5 -19.5q48 0 91 35.5t43 86.5zM795 395 q0 -96 -45.5 -194t-123.5 -163.5t-161 -65.5q-76 0 -147 50q-7 -5 -20 -13.5t-51.5 -22t-75.5 -13.5q-58 0 -93.5 24.5t-35.5 66.5q0 31 26 52t69 21q15 0 30 -2.5t29 -8t26 -11t24.5 -13l20 -12t17.5 -11.5t11 -8q16 11 32 48t40.5 102t48.5 113q126 250 279 308 q-43 61 -118 96t-170 35q-87 0 -154 -29t-103.5 -75t-53.5 -96.5t-13 -98.5l5 5q6 5 10 8.5l12 10.5t15.5 11.5t18 11t21 11t23 9t25.5 6.5t27 2q79 0 130.5 -43t51.5 -106q0 -57 -46.5 -95.5t-99.5 -38.5q-46 0 -84 18.5t-58.5 44.5t-35 52t-18.5 45l-5 18 q-6 -7 -15.5 -20.5t-25 -54.5t-15.5 -82q0 -37 29 -112l-9 -6q-32 66 -32 118q0 28 5.5 54.5t15 46.5t17.5 34t17 26l10 13q-5 57 12.5 113t56 104t108 77.5t158.5 29.5q94 0 174.5 -35t133.5 -101q52 16 112 16q50 0 91 -15t63 -37l-4 -8q-47 31 -73.5 39.5t-76.5 8.5 q-57 0 -103 -16q71 -100 71 -242zM703 629q-41 -18 -72.5 -50.5t-52.5 -75.5t-34.5 -81t-30 -90.5t-27.5 -81.5q-11 -27 -22 -50.5t-19.5 -40t-21 -33t-18.5 -25t-19 -21t-17 -16t-18 -14.5t-16 -13q2 -1 11.5 -7t16 -10t16.5 -8.5t19.5 -7t17.5 -2.5q83 0 160.5 74.5 t122 184t44.5 215.5q0 88 -40 153z" />
<glyph unicode="E" horiz-adv-x="973" d="M682 378h-1q3 -4 20.5 -13t18.5 -20q0 -11 -12 -12q-21 -3 -40 23q-23 11 -49.5 11.5t-54.5 -15t-51 -38t-37.5 -57.5t-14.5 -74q0 -81 47 -139t114 -58q92 0 159.5 66t67.5 155q0 47 -24 76.5t-64 29.5q-61 0 -112 -51.5t-51 -106.5q0 -34 20.5 -57t49.5 -23 q28 0 49 14.5t31.5 34t16.5 45.5t7 41t1 30h12q1 -23 -2.5 -49.5t-14.5 -58t-37 -51.5t-63 -20q-36 0 -60 27.5t-24 66.5q0 62 55.5 117t121.5 55q45 0 73.5 -33.5t28.5 -86.5q0 -98 -72.5 -168.5t-168.5 -70.5q-121 0 -188.5 62t-67.5 160q0 96 66 160.5t182 55.5 q-27 39 -33 81q-81 23 -191 23q-168 0 -273 -63t-105 -152q0 -6 6.5 -29t8.5 -26l-12 -8q-16 29 -16 62q0 97 108 163t283 66q114 0 191 -18q-1 68 53 113.5t132 44.5q55 -1 94.5 -36.5t39.5 -83.5q0 -42 -40 -74.5t-94 -32.5q-40 0 -105 24q2 -49 21 -82zM660 476h-1 q60 -28 105 -28t83.5 27.5t38.5 67.5q0 35 -26.5 60t-63.5 25q-64 -1 -98.5 -45.5t-37.5 -106.5z" />
<glyph unicode="F" horiz-adv-x="1026" d="M1424 579q0 -2 -2 -10q-7 -28 -40.5 -53t-79.5 -25q-50 0 -95 18t-95 45.5t-87 39.5q-76 24 -121.5 32.5t-109.5 8.5q-48 0 -88 -6t-64 -15t-40.5 -18t-23.5 -15l-6 -6q14 -8 38 -36t50 -86.5t26 -120.5q0 -117 -80 -208.5t-172 -91.5q-61 0 -111 44t-50 100q0 33 17 87 q7 -9 7 -14q-13 -37 -13 -73q0 -51 46 -92t104 -41q92 0 166.5 89.5t74.5 199.5q0 82 -38.5 145.5t-76.5 91.5q-32 -15 -73.5 -86t-41.5 -130q0 -69 39 -107t100 -28v-11q-67 -11 -108.5 29.5t-41.5 116.5q0 35 10 69t26 60t30.5 45.5t28.5 34.5t15 16q-7 5 -20 12t-53 18.5 t-81 11.5q-99 0 -180.5 -54t-125.5 -140.5t-44 -183.5q0 -162 98.5 -270.5t251.5 -108.5q55 0 114.5 25t104.5 70q25 24 33 33.5t29.5 52t49 113.5t79.5 212l-38 8l5 15l40 -8q35 53 62 75q47 40 87.5 51.5t131.5 14.5v-4q-2 -5 -25.5 -9t-53.5 -9t-43 -12q-47 -23 -85 -115 l-2 -5l59 -11q9 31 23.5 49.5t42.5 18.5q12 0 22 -8.5t10 -25.5q0 -20 -19.5 -36t-39.5 -19q2 -29 -0.5 -54.5t-10.5 -51.5t-27 -41.5t-47 -15.5q-17 0 -34 16l7 7q18 -7 28 -7q20 0 27.5 33.5t11.5 96.5q1 13 1 19l-60 9q-7 -29 -20 -74t-48.5 -138.5t-66.5 -131.5 q-51 -64 -150.5 -108.5t-197.5 -44.5q-167 0 -274.5 110t-107.5 279q0 163 110.5 275.5t271.5 112.5q37 0 77.5 -10.5t62.5 -21.5l22 -10q4 4 12 10.5t33.5 23.5t52 30t66.5 23.5t78 10.5q66 0 127.5 -19t108 -46t90 -54.5t90.5 -46.5t92 -19q22 0 42.5 8t34.5 19.5t24.5 23 t15.5 19.5zM1019 399q0 11 -15 11q-6 0 -14.5 -12t-12.5 -24t0 -12q11 0 26.5 9.5t15.5 27.5z" />
<glyph unicode="G" horiz-adv-x="913" d="M1367 -60q-37 -157 -186 -157q-52 0 -104 20.5t-95 49.5t-121.5 76.5t-157.5 84.5l-73 -92q-2 -6 -6.5 -16.5t-20.5 -41t-34 -58.5t-47.5 -62t-62 -58.5t-77 -41t-91.5 -16.5q-39 0 -70 13.5t-49.5 34.5t-30.5 46.5t-15 49t0 42.5q-5 4 -13.5 11.5t-30.5 34t-39 57 t-30.5 81t-13.5 105.5q0 171 115 285t283 114q29 0 72 -5t71 -11l28 -5l22 16.5t58 37t87 46.5t103 36.5t113 16.5q43 0 72 -17.5t29 -42.5q0 -35 -74 -69.5t-191 -48.5q-73 -9 -120 -1q-12 -8 -31 -24t-67 -72t-83 -120q-26 -48 -34.5 -81t-10.5 -91q52 3 85 3 q18 -1 44 -4.5t43 -7.5l17 -3q99 264 144 264q7 0 18.5 -3.5t19.5 -7.5l7 -3l30 42l10 -4l-179 -303l23 -13q30 35 84 58q22 9 44.5 13.5t34.5 4.5h11l2 -10q-39 1 -86 -18q-52 -23 -81 -52q104 -52 206.5 -116.5t153.5 -89t109 -24.5q39 0 71 12.5t49.5 29t30.5 39.5 t18 37.5t7 28.5h10zM1038 574q0 16 -18 27.5t-45 11.5q-114 0 -300 -146q74 -1 113 3q84 8 167 41t83 63zM694 18l-19 10l-34 -78zM615 43q-54 13 -89 15l-82 -5q1 -7 4 -17t18.5 -26.5t38.5 -16.5q20 0 47.5 12.5t45.5 24.5zM555 470q-5 1 -38.5 8t-62.5 11t-57 4 q-162 0 -275 -110t-113 -280q0 -71 25 -135t48 -93.5t46 -48.5q24 84 115 156q27 22 64 40.5t60 25.5l23 7q-17 60 -17 85q0 82 35.5 146.5t146.5 183.5zM630 37q-48 -31 -73 -43t-51 -12q-33 0 -58 14.5t-54 49.5q-79 -18 -145 -71q-43 -34 -70.5 -73.5t-34.5 -61.5l-6 -22 q10 -6 27 -14t63.5 -22t86.5 -14q49 0 101.5 19t90.5 45t61 45t29 27q15 36 33 133zM598 -111q-6 -5 -16 -14t-42 -31.5t-64 -40t-76.5 -31.5t-84.5 -14q-39 0 -82 10.5t-67.5 21t-29.5 15.5q-4 -33 10 -70.5t52.5 -67.5t92.5 -30q57 0 109.5 25t87 60t60.5 72.5t38 63 t12 31.5z" />
<glyph unicode="H" horiz-adv-x="940" d="M1200 565q0 -46 -58 -91.5t-124.5 -72t-132.5 -43.5q-83 -194 -137 -248q-88 -88 -139 -105q40 -27 66 -27q51 0 129 74v-12q-7 -8 -19 -20t-46 -31.5t-64 -19.5q-15 0 -35 7.5t-33 15.5l-13 7q-30 -18 -57 -18q-14 0 -23 7.5t-9 20.5q0 28 33 28q19 0 54 -20 q7 6 21.5 18t18.5 15.5t13 12t12.5 14t9 14t11.5 19.5q22 45 97 233q-58 -13 -111 -22.5t-61 -11.5q-4 -9 -15 -40t-19 -50t-27.5 -50t-45.5 -59q-121 -129 -288 -129q-19 0 -36.5 4.5t-25.5 9.5l-7 5q-25 -56 -25 -129q0 -70 24 -127t62 -91t82 -52.5t87 -18.5 q42 0 76.5 13t53.5 31.5t32 37t17 31.5l4 13l10 3q-1 -6 -4 -15t-17.5 -33t-33.5 -42t-56 -33t-82 -15q-111 0 -188.5 86.5t-77.5 211.5q0 52 26 134q-1 0 -8.5 4.5t-14 8.5t-17.5 12t-20 17t-19.5 21t-18.5 27.5t-15 33t-10.5 39.5t-3.5 46q0 44 12.5 82t30 63.5t43.5 47 t46.5 32.5t45.5 20.5t33 11.5t18 4q-4 11 -1.5 44t19.5 62q38 69 106.5 109t136.5 40q51 0 91 -17t62.5 -39t57.5 -56.5t65 -55.5q6 1 14.5 2.5t32 3.5t34.5 -3q28 -9 28 -23q0 -27 -36 -27q-28 0 -72 30q-52 -21 -75 -43q-30 -30 -72 -119q-2 -4 -16 -61q136 23 172 33 q23 46 89 124q40 48 119.5 86.5t153.5 38.5q27 0 43.5 -11t16.5 -28zM1191 565q0 14 -14 22t-37 8q-71 0 -151.5 -80.5t-100.5 -142.5q110 25 206.5 82t96.5 111zM867 542q0 30 -76 9l-5 -1q2 -1 6 -3.5t14.5 -7.5t20 -8t19 -4.5t15.5 2.5t6 13zM750 557q-5 5 -14.5 13.5 t-39.5 30t-62 38t-79 30t-92 13.5q-67 0 -126 -35t-81 -72q-18 -31 -15 -100q54 5 99 -15q43 -16 88 -77q60 29 100 63l4 -7q-46 -38 -98 -65q13 -23 17 -46l3 -39l42 9q30 67 56 103q24 34 62 69.5t53 43.5zM418 377q-4 6 -10.5 16t-28 30t-42.5 28q-48 18 -96 15 q0 -4 1.5 -11t8 -24.5t17 -30.5t32 -24t48.5 -11zM579 8q-4 2 -10.5 5.5t-20.5 8.5t-23 2t-9 -16q0 -12 10 -15.5t21.5 0t21.5 8.5t10 7zM442 272q-51 -19 -93 -39q-56 -26 -98.5 -68t-52.5 -61q24 -13 41 -13q46 0 84 18.5t59 45.5t35.5 53.5t19.5 45.5zM442 283 q1 28 -2 43q-3 17 -16 42q-46 -12 -75 -12q-48 0 -77.5 27.5t-35.5 54.5l-5 28q-9 -2 -24 -6.5t-52.5 -23.5t-66.5 -44.5t-53 -72.5t-24 -105q0 -34 8.5 -64.5t20.5 -50t27.5 -36t28 -25t24 -15.5t12.5 -8q6 16 23.5 49.5t25.5 38.5q-4 2 -10.5 7.5t-17 25.5t-10.5 45 q0 52 30 93t89 61l2 -6q-55 -22 -83 -61.5t-28 -86.5q0 -21 8 -38.5t16 -25t12 -7.5q63 88 156 132zM493 286l-39 -9q-2 -8 -5.5 -21t-20.5 -46.5t-39 -59.5t-62.5 -47t-89.5 -21l-47 15q-11 -12 -20 -29t-17.5 -35.5t-10.5 -21.5q27 -21 66 -21q36 0 69.5 11.5t58 29 t47 43.5t37.5 49.5t29 52.5t21 47.5t14.5 39.5t8.5 23z" />
<glyph unicode="I" horiz-adv-x="789" d="M1032 609q-70 -1 -120 -18q-52 -17 -96.5 -57t-71 -85t-45 -91t-26 -74t-7.5 -36q0 -3 20 5.5t46.5 24t40.5 30.5q30 34 57 115l9 -4q0 -4 -7 -25t-21.5 -50t-30.5 -46q-23 -25 -58.5 -42.5t-59.5 -22.5q-47 -138 -135 -199.5t-224 -61.5q-48 0 -96 15t-93 46.5t-73.5 90 t-28.5 135.5q-9 47 -9 107q0 131 92.5 221.5t207.5 90.5q26 0 51.5 -5.5t37.5 -10.5l12 -6l-2 -9q-47 22 -100 22q-108 0 -199 -87.5t-91 -215.5l8 -72q2 9 6.5 24t25.5 53.5t50 67.5t84 53t124 24q87 0 156 -51l3 -3q21 62 70 105q101 95 291 95q57 0 114.5 -11t80.5 -24 q3 -2 4 -5t1.5 -6.5t1.5 -6.5zM1014 615q-3 6 -27.5 15t-68 16.5t-88.5 7.5q-128 0 -225 -53t-126 -148q1 -2 7.5 -10.5t10 -15t9 -17t9.5 -24t7 -28.5l8 -87q33 -24 49 -27l8 24q8 23 14.5 39.5t20 47t29 55.5t36 53.5t47.5 54t57 45.5q41 27 86 37t137 15zM519 288 q-1 7 -2.5 31.5t-4.5 36.5q-11 48 -36 84q3 -51 9 -80q6 -27 34 -72zM519 266q-34 46 -45 91q-9 35 -9 94q-7 6 -19 15.5t-52.5 25t-83.5 15.5q-48 0 -89 -12t-68.5 -28.5t-50.5 -42.5t-35.5 -45.5t-23 -47t-13 -37t-5.5 -24.5q-1 -3 -1 -4q2 -8 7.5 -22t25 -49t44.5 -61.5 t68.5 -48.5t94.5 -22q32 0 60 5.5t50 16.5t40.5 23.5t33 29.5t25 30.5t19 31.5t13 28t9.5 23.5t5 14.5zM575 232q-29 10 -47 26q-68 -202 -264 -204q-31 0 -59 7t-48.5 17t-40 26.5t-31.5 30.5t-24.5 33t-17.5 29.5t-12.5 26t-7.5 16.5q5 -70 33.5 -122.5t70 -80.5t86 -41 t90.5 -13q60 0 146.5 76t125.5 173z" />
<glyph unicode="J" horiz-adv-x="940" d="M1180 588q0 -18 -12 -18q-5 0 -20 4t-28 4q-114 0 -192 -68q-49 -51 -73 -97t-157 -345q29 -6 36 -6q42 0 83.5 40.5t66.5 131.5q1 -4 2 -9t2 -8t1 -4q-3 -47 -50 -105t-106 -58l-41 4q-60 -131 -164 -194.5t-216 -63.5q-133 0 -218 87t-85 222q0 44 9 83t18 57.5 t23.5 41.5t16.5 27q6 28 13 53t31 75t55.5 85t88.5 63t128 28q50 0 98 -18t66 -30.5t31 -24.5l6 5q6 5 14 11.5t21 16t29.5 18.5t36 19t43.5 18t50.5 14.5t58.5 10.5t65 4q39 0 78 -5.5t66.5 -13.5t49 -15.5t34.5 -13.5t15 -6q26 -4 26 -20zM1130 594v8q-3 4 -33.5 15.5 t-84 22.5t-101.5 11q-31 0 -61 -3.5t-55 -10.5t-48.5 -15t-43 -17.5t-36 -18.5t-29.5 -18t-21.5 -15.5t-14.5 -11.5l-6 -5q28 -31 50 -80l-8 -8q-20 48 -49 79q-17 -13 -42 -54t-41 -84l10 -10t15.5 -16t17 -20t17.5 -27.5t14 -32.5t11 -40.5t4 -47.5l-12 -84q15 -15 25 -15 q24 50 55.5 121t46.5 104t40 77.5t47 68.5t55 49t76 44q41 19 80.5 25.5t121.5 8.5zM580 536q-16 19 -71 45.5t-117 26.5q-35 0 -66.5 -7.5t-56 -19t-46.5 -29t-37.5 -34.5t-29.5 -39t-23 -39.5t-17 -38.5t-12 -32.5t-8 -26t-4 -15.5q24 37 48 60.5t76 44t123 20.5t155 -56 q50 114 86 140zM581 195q0 106 -79 179q-8 -51 -8 -90q0 -40 19 -80t37 -60l19 -21q12 35 12 72zM562 108q-9 8 -22.5 23.5t-36 61.5t-22.5 91l9 99q-87 57 -151 57q-172 0 -242 -127q-2 -4 -3 -5q-3 -74 18 -137t57.5 -104.5t83.5 -64.5t96 -23q40 0 76.5 12.5t60.5 30.5 t42 37t26 32t8 17zM601 81q-14 14 -26 18q-3 -5 -8.5 -14t-26.5 -32t-45 -40t-63.5 -31.5t-82.5 -14.5q-70 0 -126.5 35t-87.5 87t-45 108t-8 103q-61 -96 -61 -195q0 -124 84.5 -210t206.5 -86q51 0 99.5 27.5t85 70t63 87.5t41.5 87z" />
<glyph unicode="K" horiz-adv-x="1052" d="M1149 686q-48 19 -71 19q-104 0 -160 -108q-15 -27 -42.5 -96t-44.5 -91q-42 -53 -138 -53q-20 0 -43 2.5t-36 4.5l-14 2l-5 -18q60 0 109 -26t49 -80q0 -21 -1.5 -66t-1 -70.5t5.5 -36.5q21 -46 40.5 -61.5t43.5 -15.5q51 0 90.5 49.5t39.5 98.5q0 42 -26 66t-71 24v1 q0 4 0.5 5.5t3.5 2.5t9 1q44 0 71 -28t27 -72q0 -65 -53 -115.5t-121 -50.5q-55 0 -96.5 32t-44.5 84l-11 178q-2 30 -25.5 50t-38.5 20q-4 -15 -11 -40.5t-33.5 -86t-56.5 -100.5q-102 -134 -255 -134q-98 0 -169 65.5t-71 161.5q0 47 10.5 86.5t28 65.5t37.5 46t42 31.5 t38.5 18.5t30.5 10l14 4q-14 105 67.5 194t205.5 89q23 0 41.5 -3.5t31.5 -7t36.5 -19t36 -24.5t51.5 -38.5t63 -47.5q5 2 14 5t30.5 7.5t36.5 4.5q35 0 35 -27q0 -31 -35 -31q-37 1 -86 27q-36 -19 -71 -73.5t-53 -140.5q68 2 109.5 22.5t79.5 69.5q16 21 49.5 67.5 t58.5 77.5q37 49 77.5 72.5t100.5 23.5q35 0 71 -21v-7zM837 599q0 16 -26 14q-12 0 -28.5 -3.5t-26.5 -6.5l-11 -3q39 -17 66 -18q26 -2 26 17zM407 391q-34 39 -88.5 58.5t-105.5 6.5q11 -35 44.5 -58t64.5 -23q47 0 85 16zM717 603q-41 33 -125 64.5t-141 31.5 q-97 0 -175.5 -67t-64.5 -163q125 21 207 -72q47 28 88 76l7 -8q-48 -52 -88 -77q23 -40 23 -104q0 -53 -21.5 -94.5t-54 -64t-66 -34t-62.5 -11.5q-43 0 -70 29.5t-27 78.5q0 46 27.5 86.5t75.5 60.5l2 -9l-10 -5t-22 -15t-28.5 -26.5t-22.5 -39t-10 -52.5 q0 -45 23.5 -70.5t61.5 -25.5q78 0 135 54t57 138q0 32 -5.5 56t-10.5 32l-6 9l-5 -2q-5 -2 -13.5 -4.5t-19 -5t-25 -4.5t-28.5 -2q-39 0 -75.5 28t-45.5 62l-8 -2q-9 -2 -19.5 -5t-25.5 -9t-30 -15.5t-31.5 -22.5t-30 -32t-24.5 -41.5t-17 -54t-6 -67.5q0 -89 68.5 -152 t159.5 -63q92 0 152 86t115 293q16 60 83 133.5t129 101.5z" />
<glyph unicode="L" horiz-adv-x="978" d="M910 217q0 -106 -101 -187.5t-235 -81.5q-67 0 -122 17t-151 67q-55 -33 -86.5 -45t-69.5 -12q-59 0 -100 23.5t-41 65.5q0 33 35.5 56t83.5 23q60 0 165 -55q35 58 52 97q24 54 48 143q-60 -24 -99 -24q-87 0 -145.5 65.5t-58.5 156.5q0 112 82 187t205 75q35 0 50 -3 t37 -15q-72 8 -87 8q-120 0 -198.5 -73.5t-78.5 -178.5q0 -85 55 -148.5t139 -63.5q22 0 53 9.5t50 20.5q8 32 15 59t15 50t12 37.5t13.5 32.5t11.5 24.5t13 22.5t12 18t14.5 19.5t14.5 18.5q36 48 78 75t72 27q79 0 79 -70q0 -80 -63.5 -161.5t-186.5 -132.5 q-17 -100 -41.5 -152.5t-96.5 -147.5q82 -29 132 -38t117 -9q139 0 215 54t76 146q0 39 -18 67.5t-59 58.5l6 11q87 -51 87 -137zM729 658q0 30 -14.5 45t-51.5 15q-40 0 -80 -48t-66 -127t-26 -162q83 31 160.5 120t77.5 157zM271 55q-111 72 -169 72q-31 0 -58 -20 t-27 -43q0 -30 31.5 -52t75.5 -22q34 0 76.5 19t70.5 46z" />
<glyph unicode="M" horiz-adv-x="1121" d="M1460 658l-1 -11q-86 -6 -141.5 -26t-133.5 -65q-43 -25 -87.5 -96.5t-111.5 -208.5q-71 -135 -71 -207q0 -18 8.5 -33t23.5 -15q19 0 41 24.5t33.5 45t13.5 26.5q3 1 6 0.5t5 1.5q-29 -62 -55 -87.5t-58 -25.5q-37 0 -59 28.5t-22 73.5q0 123 212 390q-98 -75 -170 -165 q-51 -62 -136 -186t-108 -149q-5 8 -5 13q6 17 15 40t11 31t4.5 24.5t2.5 40.5q0 164 11 225t55 153q-39 -40 -79.5 -116t-79.5 -165.5t-55 -117.5q-29 -52 -101.5 -89t-149.5 -37q-113 0 -197.5 71.5t-84.5 168.5q0 108 70.5 184t166.5 76q81 0 138 -50.5t57 -123.5 q0 -74 -56 -131.5t-121 -57.5q-57 0 -88.5 38t-31.5 98q0 32 20 87l12 -3q-21 -51 -21 -84q0 -56 30 -90.5t79 -34.5q61 0 113.5 54t52.5 124q0 69 -54.5 116t-129.5 47q-91 0 -158.5 -74t-67.5 -175q0 -35 17 -74t49 -74t86 -58t119 -23q144 0 258 210q61 111 85.5 153.5 t65 106.5t69.5 94.5t62 50.5q-153 52 -187 52q-61 0 -105 -16t-64 -35t-31 -46.5t-12 -39t-1 -23.5q0 -48 28 -82t69 -34q30 0 51 21h6q-18 -27 -33.5 -36.5t-36.5 -9.5q-50 0 -83 36t-33 90q0 22 4.5 43.5t20 48t41 45.5t72 32.5t107.5 13.5q15 0 64 -13.5t91 -27.5l41 -13 q24 13 42 12t18 -15q0 -12 -14.5 -16t-28.5 4q-37 -52 -53 -162q-3 -28 -1 -76t-2 -76q-3 -23 -9.5 -47t-17 -52.5t-12.5 -35.5q118 170 218.5 266t207.5 157q64 36 88 48t76 26t121 18z" />
<glyph unicode="N" horiz-adv-x="1041" d="M1355 684q0 -27 -30 -46.5t-78 -19.5q-22 0 -45.5 4t-35.5 8l-12 5q-20 -32 -41 -72q-16 -31 -55.5 -110t-76 -144.5t-94.5 -158.5q-84 -136 -100 -153q-8 -9 -13 -9q-13 0 -13 11q0 1 9.5 23.5t19.5 54.5t10 55q0 34 -8.5 107t-6.5 121q1 55 15 150l-159 -315 q-76 -146 -162 -215t-195 -69q-128 0 -206 70.5t-78 185.5q0 135 97 231t229 96l67 -5q5 69 51.5 138.5t110.5 98.5q37 17 78.5 22t119.5 5q73 0 211.5 -42.5t183.5 -63.5q73 81 141 81q30 0 48 -12t18 -32zM1346 684q0 15 -18.5 25t-38.5 10q-38 0 -73.5 -24t-55.5 -51 l10 -3q10 -3 19 -5.5t25 -4.5t33 -2q41 0 70 15t29 40zM1143 638q-31 12 -80.5 29.5t-155 47t-154.5 29.5q-87 0 -186 -48q-38 -18 -67 -45t-46.5 -57t-27.5 -56.5t-15 -54.5q59 -25 85 -58.5t46 -103.5q138 16 138 141q0 13 -4 31t-8 29l-5 12l9 2q18 -48 18 -74 q0 -135 -146 -154q0 -62 -11 -101t-42 -85q-39 -55 -100.5 -88.5t-120.5 -33.5q-66 0 -110 45.5t-44 115.5q0 89 61 157.5t140 68.5q56 0 96 -38.5t40 -93.5q0 -32 -22 -76q-8 -2 -11 -2q23 49 23 78q0 49 -37.5 86t-88.5 37q-79 0 -135 -69.5t-56 -147.5q0 -66 41 -109.5 t103 -43.5q54 0 116 34t97 84q52 75 52 183q-61 9 -102.5 58.5t-39.5 111.5q-43 7 -67 7q-131 0 -224.5 -93t-93.5 -226q0 -111 76.5 -179.5t199.5 -68.5q203 0 346 276q28 53 65 127t62.5 126.5t30.5 61.5q42 74 148 166l2 2q-80 27 -132 27q-100 0 -184.5 -46.5 t-84.5 -95.5q0 -12 8 -23t16 -16l8 -5l-2 -9l-11 5.5t-18 17t-11 30.5q0 55 86.5 103t192.5 48q60 0 154 -31q-69 -57 -92 -92.5t-23 -87.5q0 -9 20 -129t20 -125q0 -41 -34 -138q34 54 60.5 98.5t43.5 73t39 70t31 60t37 74.5t42 83zM533 321q-19 65 -41.5 96.5t-80.5 55.5 q-3 -62 38 -102.5t84 -49.5z" />
<glyph unicode="O" horiz-adv-x="600" d="M570 476q0 -43 -24.5 -120t-54.5 -130q-65 -113 -156.5 -181.5t-176.5 -68.5q-69 0 -113.5 53t-44.5 129q0 87 57 193t150 193q99 85 171 94h42q-70 -34 -102.5 -61.5t-78.5 -89.5q-165 -234 -165 -405q0 -44 24 -72t60 -28q57 0 122.5 61.5t126.5 171.5q108 195 108 315 q0 81 -56 81q-68 0 -142.5 -93t-74.5 -184q0 -35 17.5 -55t45.5 -20q44 0 82 36.5t56.5 79t18.5 71.5q0 24 -11.5 41.5t-25.5 17.5q-27 0 -58 -36l-7 7q39 39 65 39q20 0 34 -21t14 -48q0 -64 -50.5 -131t-117.5 -67q-33 0 -53.5 23.5t-20.5 62.5q0 58 34.5 125t89 114 t104.5 47q44 0 77.5 -43.5t33.5 -100.5z" />
<glyph unicode="P" horiz-adv-x="1046" d="M1259 630l-2 -6q-76 31 -157 31q-71 0 -140 -34l10 -9q10 -8 24 -23.5t28 -34.5t24 -45.5t10 -52.5q0 -81 -71 -138t-173 -57q-42 0 -71 3q-24 -79 -74 -139t-111.5 -93.5t-123 -49.5t-120.5 -16q-142 0 -227 78t-85 206q0 146 106.5 255.5t250.5 109.5q26 0 54.5 -6.5 t43.5 -12.5l15 -6q3 4 9.5 10t29 22.5t49 29t70 22.5t91.5 10q129 0 217 -50l5 -3q83 32 159 32q86 0 159 -33zM984 487q0 84 -43 118l-3 2q-3 -2 -9 -5.5t-22.5 -16.5t-31.5 -28t-31.5 -39t-27.5 -50q-69 -179 -69 -182q20 -1 38 -1q79 0 139 60.5t60 141.5zM612 318 q2 23 -4.5 74.5t-22.5 79.5q-42 73 -112 104q-28 -44 -38.5 -70.5t-10.5 -55.5q0 -62 40 -104t96 -42q26 0 52 14zM917 621q-7 6 -20.5 15t-65 24.5t-112.5 15.5q-149 0 -240 -91q22 -11 36 -19.5t37.5 -32t41.5 -55.5q17 -29 24 -74.5t6 -78.5q28 32 35 48l3 -15 q-20 -33 -38 -47q-76 -235 -280 -235q-103 0 -174.5 64.5t-71.5 168.5q0 36 18 72l10 3q-18 -54 -18 -75q0 -99 70 -161.5t166 -62.5q59 0 108 23t76 51.5t48 65.5t26 53t8 27q-25 -10 -50 -10q-63 0 -105 44.5t-42 110.5q0 27 12.5 60t25.5 52l13 19q-54 26 -107 26 q-135 0 -242 -107t-107 -250q0 -119 75.5 -193t197.5 -74q141 0 258 117q18 18 53.5 88t67.5 139.5t36 75.5q95 149 221 218z" />
<glyph unicode="Q" horiz-adv-x="664" d="M640 497q0 -59 -32.5 -123t-87.5 -122t-108.5 -103t-113.5 -87q102 -38 161 -38q30 0 51.5 20t21.5 49q0 13 -2 22t-7.5 15t-8.5 9t-11.5 7t-9.5 5l2 13q48 -23 48 -71q0 -50 -37 -80t-100 -31q-26 -1 -51 3t-46.5 11t-35 12.5t-29 13.5t-16.5 8q-75 -47 -152 -47 q-27 0 -49.5 15t-22.5 40q0 32 34.5 54t84.5 22q38 0 83 -13.5t47 -13.5q132 116 224 242q23 23 56.5 104.5t33.5 136.5q0 44 -31 71.5t-79 27.5q-60 0 -105.5 -32.5t-92.5 -108.5q-39 -63 -35 -103.5t23 -60t39 -19.5q44 0 88 58.5t44 121.5q0 19 -10 33.5t-30 14.5 q-39 0 -71.5 -42.5t-42.5 -110.5q-4 4 -6 8t-2 6v3q1 6 3.5 16t12.5 35t22.5 44.5t35 35.5t48.5 16q24 0 36.5 -18t12.5 -41q0 -67 -45 -128.5t-96 -61.5q-42 0 -66 30t-24 76q0 82 85.5 159t175.5 77q70 0 126.5 -54t56.5 -126zM207 45q-90 35 -140 35q-18 0 -34 -12 t-16 -30q0 -20 19 -34t40 -14q66 0 129 53z" />
<glyph unicode="R" horiz-adv-x="1139" d="M1234 668l-2 -6q-61 27 -135 27q-41 0 -79.5 -9.5t-56.5 -18.5l-18 -9q0 -1 11 -8.5t26.5 -20.5t31 -30.5t26.5 -43t11 -53.5q0 -79 -63.5 -130.5t-178.5 -67.5q44 -44 55.5 -66t11.5 -64v-92q0 -39 24 -63t60 -24q39 0 66.5 27t27.5 63q0 37 -36 99l8 6q40 -53 40 -105 q0 -45 -34.5 -74.5t-92.5 -29.5q-62 0 -107 36.5t-45 88.5q0 28 4 72t4 61q0 39 -44 68q-46 -101 -61 -137q-33 -80 -147.5 -134.5t-238.5 -54.5q-131 0 -217 78.5t-86 208.5q0 144 107 254t246 110q24 0 51 -4.5t42 -9.5l15 -4q3 4 9 11t29 24.5t51 30.5t76 24t103 11 q56 0 104.5 -12t69.5 -24l21 -12l8 4q8 4 23 9.5t34.5 10.5t48.5 9t60 4q40 0 67.5 -6t69.5 -24zM976 511q0 29 -5.5 53t-13 38t-15.5 24t-14 14l-5 3q-3 -1 -7.5 -4t-19.5 -16t-29 -30t-32.5 -47.5t-34.5 -67.5q-25 -58 -47 -161q85 -11 154 48t69 146zM605 334q2 7 4.5 20 t-2.5 51.5t-24 75.5q-37 70 -122 112q-44 -67 -44 -126q0 -50 12.5 -83.5t34 -46t42.5 -18t45.5 0t35 8t18.5 6.5zM907 652q-6 5 -19 13.5t-59.5 22t-100.5 13.5q-52 0 -98 -10t-74 -24.5t-49 -28.5t-29 -24l-9 -10q61 -38 84 -62t40 -57q39 -78 26 -145q12 10 24 26t14 30 l5 -14q-3 -13 -16.5 -30t-28.5 -26q-23 -117 -102.5 -190.5t-184.5 -73.5q-87 0 -147.5 40.5t-99.5 141.5v-5q3 -3 14 -3q35 -80 89.5 -122.5t143.5 -42.5q101 0 175.5 69.5t99.5 181.5q-5 -2 -14 -5t-29 -7t-39 -4t-41 8.5t-38 24.5t-27 49t-11 79q0 42 16 78.5t30 53.5 q-53 20 -100 20q-87 0 -167 -50t-128.5 -133t-48.5 -174q0 -120 77 -196.5t217 -76.5q93 0 165.5 47t115.5 137q9 19 48 110.5t61 141.5q19 43 48 82t57 64t53.5 44.5t41.5 28.5z" />
<glyph unicode="S" horiz-adv-x="710" d="M696 616q0 -30 -30.5 -75t-59.5 -75t-32 -30q24 -148 24 -205q0 -99 -74.5 -170.5t-177.5 -71.5q-96 0 -159.5 66.5t-63.5 154.5q0 89 69 175q-19 26 -29 62q-19 -10 -39 -26.5t-48 -48.5t-45.5 -84.5t-17.5 -115.5q0 -131 93 -226t224 -95q107 0 207 77l12 10v-8 q-3 -4 -9.5 -10t-28.5 -21.5t-45.5 -27.5t-60.5 -21.5t-75 -9.5q-137 0 -232.5 100.5t-95.5 231.5q0 185 154 283q3 3 5 4q-1 105 98 178.5t213 73.5q48 0 83 -13.5t46 -26.5l11 -13q2 2 6 4.5t16.5 6t25.5 1.5q17 -3 26.5 -18t9.5 -36zM610 642q-28 -35 -34 -59 q-5 -19 -5 -42q22 2 38 37t1 64zM669 624q0 16 -7.5 25t-18.5 9q-9 0 -24 -10q19 -39 0.5 -76t-48.5 -44l2 -75q96 88 96 171zM604 654q-4 5 -13 13.5t-43 22t-76 13.5q-41 0 -91 -16t-96.5 -44.5t-79 -76.5t-33.5 -104q7 5 20 13.5t60 25.5t100 24q103 13 198 13 q0 33 16.5 69.5t37.5 46.5zM549 528q-123 -3 -192 -12q-44 -6 -80.5 -16.5t-53.5 -19t-32.5 -18t-17.5 -10.5q10 -38 28 -59q6 5 17 13t45.5 21.5t69.5 13.5q40 0 65.5 -12.5t58.5 -47.5q16 7 38 20t35 22l14 9zM445 375q-4 6 -12.5 15.5t-38 25.5t-61.5 16q-37 0 -68 -12 t-44 -24l-13 -12q3 -5 10 -11.5t38.5 -18t73.5 -11.5q61 0 115 32zM543 369v48q-39 -29 -80 -47q20 -34 20 -85q0 -42 -43 -81t-94 -39q-32 0 -54 20.5t-22 49.5t18.5 49t44.5 20q23 0 45 -37q-56 -4 -56 -36q0 -18 12.5 -30t32.5 -12q40 0 71 34t31 78l-16 63 q-63 -31 -123 -31q-45 0 -78 10.5t-44 21.5l-10 11q-8 -9 -19 -24.5t-29 -59t-17 -82.5q1 -22 10 -51t27.5 -62.5t54.5 -56t82 -22.5q55 0 102 36.5t75 91.5t43.5 114t15.5 109z" />
<glyph unicode="T" horiz-adv-x="990" d="M1416 603q-7 -8 -13 -14q-50 -10 -84 -10q-42 0 -126.5 30.5t-177.5 61.5t-156 31q-95 0 -167 -18q30 -36 69 -115.5t39 -154.5q0 -19 -3.5 -37t-9.5 -32.5t-12 -26.5t-14.5 -22.5t-14 -16.5t-12 -12.5l-7.5 -7.5q-33 -136 -143 -231l-8 6q4 4 18 19.5t19.5 21.5t18 21 t18 24t16 25t16.5 30t13.5 32.5t12.5 38.5q-18 -6 -45 -6q-71 0 -118.5 56.5t-47.5 141.5q0 32 12.5 68t25.5 56l13 20q-80 24 -101 24q-143 0 -241.5 -101t-98.5 -246q0 -138 101 -239.5t239 -101.5q104 0 190 63t125 170q24 66 46.5 138.5t33 106t27 70t38.5 57.5t58 41 q56 31 174 42l-2 -11q-91 -11 -139.5 -43.5t-61.5 -92.5q-5 -23 -15 -70t-17.5 -78t-18.5 -68q-26 -85 -70.5 -150t-102.5 -104.5t-124.5 -59.5t-140.5 -20q-145 0 -247 102t-102 248q0 149 97.5 254t251.5 105q33 0 107 -24q62 86 106 106q-3 4 -10 11.5t-30.5 26t-50 33 t-70 26t-89.5 11.5q-67 0 -126 -21.5t-100.5 -56.5t-74.5 -76.5t-53.5 -85t-31.5 -78.5t-13 -61l-9 1q3 43 20 93t51 103t80 95.5t113.5 69.5t143.5 27q50 0 95.5 -11.5t75 -28t52.5 -33t33 -27.5l10 -12q61 28 98.5 37.5t84.5 9.5q54 0 108.5 -16.5t99.5 -40.5t88.5 -47.5 t90.5 -40t89 -16.5q30 0 81 11zM786 414q0 53 -27 118.5t-50.5 102t-31.5 44.5l-9 -5q-8 -5 -16.5 -11t-21.5 -16t-28.5 -25.5t-31.5 -34.5q62 -32 97 -70t51.5 -96t10.5 -142q57 53 57 135zM712 263q10 86 -7.5 148.5t-51.5 99t-89 65.5q-16 -18 -35 -61t-19 -74 q0 -80 44.5 -134.5t108.5 -54.5q24 0 49 11z" />
<glyph unicode="U" horiz-adv-x="865" d="M1543 423q0 -45 -45.5 -80t-105.5 -35q-61 0 -124.5 21.5t-110 52t-85 60.5t-58.5 52l-19 21q-6 -5 -17 -13.5t-42.5 -36.5t-60 -57.5t-64 -74t-61.5 -88.5q-128 -217 -107 -243q3 -4 11 -4q27 0 54.5 17.5t41.5 34.5l15 18v-18q-5 -8 -15 -19.5t-42.5 -31t-68.5 -19.5 q-59 0 -59 99q-81 -99 -142 -99q-32 0 -57 32.5t-25 74.5q0 46 31 104t68 103.5t68 94t31 78.5q0 76 -49.5 118t-132.5 42q-82 0 -152 -27.5t-113.5 -70t-68 -91t-24.5 -93.5q0 -63 46.5 -108.5t109.5 -45.5q94 0 163 39l3 -6q-65 -42 -166 -42q-69 0 -117 47.5t-48 115.5 q0 47 24.5 97t68.5 94t116 72t158 28q102 0 166.5 -59t64.5 -168q0 -11 -1.5 -21.5t-2.5 -18t-6 -18t-7 -15t-10 -16.5t-10.5 -15t-13.5 -18t-14 -19q-8 -10 -34.5 -44.5t-39 -52.5t-30 -45.5t-25.5 -49t-8 -38.5q0 -20 10 -33.5t27 -13.5q33 0 71.5 33.5t68.5 77.5 q12 18 38 62.5t52.5 83t66.5 88.5t100.5 102.5t135.5 100.5q-15 11 -38.5 27t-81.5 43t-96 27h-54v6h46q82 0 131 -17.5t121 -73.5q111 42 154.5 53t124.5 11q119 0 192 -55.5t73 -136.5zM1533 423q0 78 -71.5 130t-183.5 52q-56 0 -121 -17.5t-103 -35.5l-37 -18 q9 -9 24 -23.5t60 -51.5t88 -65.5t100 -52t103 -23.5q57 0 99 33.5t42 71.5z" />
<glyph unicode="V" horiz-adv-x="597" d="M1186 443q0 -108 -73.5 -190.5t-168.5 -82.5q-76 0 -128.5 52t-52.5 127q0 39 13.5 71.5t33 51.5t39 31.5t33 17.5t13.5 3v-7q-5 -1 -13 -4t-29 -16t-37.5 -30t-29.5 -48.5t-13 -69.5q0 -72 50 -120t121 -48q89 0 161 81.5t72 180.5q0 88 -62 139.5t-162 51.5 q-55 0 -108.5 -20t-92.5 -51t-65 -59t-41 -53q-1 -1 -16.5 -27t-23.5 -39t-29.5 -46t-39.5 -58t-47.5 -64t-58.5 -74.5t-67.5 -79.5t-80.5 -88q-11 0 -18 3q8 19 21 48t16 36.5t8.5 24.5t6.5 29.5t2 32.5q1 17 1 103.5t5 117.5q6 41 10.5 63t16 62.5t30.5 68.5t45 44 q-128 55 -207 55q-81 0 -133.5 -49t-52.5 -124q0 -30 14 -55.5t31.5 -43t18.5 -20.5q-42 11 -69 45.5t-27 80.5q0 76 61.5 125t156.5 49q41 0 93 -14.5t86.5 -27.5t36.5 -12q28 26 54 26q6 0 11 -4t5 -10q0 -16 -21.5 -22.5t-44.5 -1.5q-42 -31 -42 -101q0 -31 12 -115.5 t12 -108.5q0 -82 -108 -252q66 67 132 153t97.5 134.5t89.5 141.5q43 70 71 99q98 105 248 105q100 0 167 -61.5t67 -156.5zM493 626q0 6 -10 6q-16 0 -35 -19q15 -5 30 0t15 13z" />
<glyph unicode="W" horiz-adv-x="897" d="M1500 435q0 -106 -71.5 -187t-162.5 -81q-86 0 -142.5 54t-56.5 132q0 36 14.5 67.5t34.5 50.5t40.5 32.5t35.5 18.5l14 6l3 -9q-5 -2 -14 -6t-31.5 -18t-39.5 -31.5t-31 -47t-14 -63.5q0 -72 49.5 -123t137.5 -51q84 0 152.5 80t68.5 176q0 89 -58 144.5t-149 55.5 q-68 0 -122 -17.5t-99.5 -57t-78 -81t-78.5 -111.5q-57 -86 -178 -238.5t-145 -152.5q-9 0 -9 6q0 13 32 77q5 11 9 23.5t7 29t5 30t3 36t2 36.5t1 43v44.5v51v53.5q-6 -8 -31 -48t-55.5 -85.5t-57.5 -79.5q-59 -73 -129 -145.5t-84 -72.5q-4 0 -7.5 3.5t-3.5 7.5 q45 82 52 124q3 19 8.5 108t5.5 164q0 26 6 52t14 44.5t22.5 41.5t23 34.5t24.5 31t20 24.5q-12 7 -33 17t-75 26.5t-95 16.5q-95 0 -148 -51.5t-53 -127.5q0 -33 13 -55t50 -50q-1 1 0 -2q2 -5 0 -4q-4 1 -10 3.5t-22 12.5t-28.5 22.5t-22.5 34.5t-10 47q0 80 63.5 128 t167.5 48q26 0 57 -6t56.5 -15t47 -17.5t34.5 -14.5t14 -6q24 24 43 24q24 0 24 -13t-22 -19.5t-39 -3.5q-50 -50 -50 -79q0 -55 12 -129.5t12 -116.5q0 -70 -117 -258q122 116 177 189q91 118 195 321q18 33 66 75q-23 -40 -31 -64t-8 -56q0 -36 11 -104t11 -103 q0 -48 -20 -95.5t-81 -149.5q88 98 139 164q98 123 186 277q39 66 129.5 124t178.5 58q105 0 173 -63t68 -161zM497 627q0 9 -11 7q-18 -2 -30 -19q14 -2 27.5 0.5t13.5 11.5z" />
<glyph unicode="X" horiz-adv-x="734" d="M950 648q-29 -6 -43 -12q-31 -12 -52 -25t-48.5 -41t-46 -50t-68.5 -83.5t-91 -110.5q0 -8 -21 -110.5t-21 -146.5q0 -87 52 -87q25 0 56 15q-1 -2 1 -5t2 -4q-30 -15 -59 -15q-32 0 -55.5 10.5t-35.5 25t-20.5 39.5t-11 44t-5.5 50t-5 46q-131 -129 -201 -174.5 t-137 -45.5q-58 0 -97.5 38t-39.5 93q0 76 55.5 148.5t149.5 103.5q54 176 259 264q-24 22 -51 22q-50 0 -88 -24.5t-95 -84.5l-5 6q52 59 92.5 85t96.5 26q33 0 61 -25q26 3 41 -1q43 -12 66 -57.5t34 -130.5q6 7 17 18t43 41t61.5 55.5t67 51.5t66.5 38q9 4 25 9t29 8 t13 2zM483 555q0 25 -10 51q-81 -31 -153.5 -96.5t-101.5 -156.5q90 11 123 -48q72 54 107 125t35 125zM332 299q-30 54 -116 44q-5 -27 6.5 -48.5t39.5 -21.5q30 0 70 26zM524 512q0 53 -40 95q8 -26 8 -51q0 -71 -39.5 -143.5t-106.5 -116.5q15 -39 -15 -96t-83 -99 t-99 -42q-24 0 -43 19t-19 43q0 19 14.5 49t41.5 55l6 -4q-53 -60 -53 -100q0 -23 15.5 -38t37.5 -15q27 0 63.5 23t66.5 56t48 73t10 70q-39 -27 -75 -27q-28 0 -45 22t-10 55q-90 -31 -142.5 -101t-52.5 -140q0 -50 37.5 -83.5t90.5 -33.5q24 0 47.5 8t50 27t47 37 t52 53.5t51 58.5t58 70.5t59.5 72.5q19 189 19 203z" />
<glyph unicode="Y" horiz-adv-x="1049" d="M1611 -96q0 -134 -96 -225.5t-235 -91.5q-246 0 -507 248q-58 -116 -153 -184.5t-223 -68.5q-137 0 -225.5 68t-88.5 163q0 97 89 166.5t225 69.5q55 0 105.5 -13.5t94 -41t69 -46.5t60.5 -52t39 -36q14 20 21 38q16 34 48 202q-58 -70 -86 -91.5t-56 -21.5 q-40 0 -64.5 34.5t-24.5 91.5q0 41 16 83.5t38.5 77.5t45.5 68.5t39 70t16 69.5q0 72 -45 110.5t-105 38.5q-77 0 -164 -41q5 -36 -7 -85q-11 -41 -33 -77l-8 2q24 46 32 76q4 21 6 41t2 29l-1 10q-82 -48 -139 -72.5t-77.5 -28t-49.5 -3.5q-66 0 -116.5 38.5t-50.5 90.5 q0 134 234 134q54 0 93.5 -13t61.5 -37t32.5 -44.5t19.5 -49.5q8 3 24.5 9.5t24 9.5t22 7.5t26 6t29.5 3t39 1.5q85 0 145 -60.5t60 -144.5q0 -53 -24.5 -104.5t-63.5 -109.5t-55 -94q-1 -5 -3.5 -13.5t-5 -30.5t-1 -39t12 -30.5t29.5 -13.5q41 0 79 53.5t82.5 151 t65.5 131.5q202 327 438 327q58 0 99 -14t58 -33.5t25 -39t7 -33.5v-14q-10 6 -11 6q-9 65 -54.5 92.5t-105.5 27.5q-122 0 -257 -144.5t-226 -372.5q-24 -62 -47.5 -118t-38.5 -89.5t-17 -39.5q-11 -27 -21 -44q11 -12 30 -30.5t72 -60t108.5 -73.5t135 -57.5t156.5 -25.5 q131 0 225 87.5t94 218.5q0 101 -71 173.5t-161 72.5q-74 0 -119.5 -40t-45.5 -100q0 -34 14 -60.5t34 -39.5t40.5 -21t34.5 -9l14 -2q0 -11 -10 -11q-60 0 -100.5 40t-40.5 103q0 68 51 112t128 44q100 0 172 -77t72 -185zM433 597q-18 68 -62.5 105t-134.5 37 q-227 0 -227 -128q0 -51 48 -85.5t112 -34.5q48 0 108 25.5t156 80.5zM759 -150q-77 76 -119 106q-115 83 -243 83q-131 0 -213 -65t-82 -161q0 -75 89.5 -129.5t205.5 -54.5q70 0 132 22t98.5 47.5t70 64.5t42.5 53.5t19 33.5z" />
<glyph unicode="Z" horiz-adv-x="676" d="M707 499q0 -103 -88.5 -205.5t-277.5 -235.5q41 -15 57 -54q14 -29 15 -68l69 -16l-1 -9l-67 13q-12 -80 -71 -148.5t-131.5 -104.5t-134.5 -36q-64 0 -105.5 24.5t-41.5 72.5q0 54 51.5 104t127 79.5t147.5 29.5q15 0 51.5 1t44.5 1q10 28 10 41q0 22 -12 41t-24 19 q-118 -62 -153 -62q-39 0 -39 28q0 12 7 20.5t12.5 10.5t18.5 7q49 17 130 18q119 119 171 184q134 166 134 281q0 52 -30 84t-78 32q-23 0 -63.5 -13t-64.5 -29q3 -1 8 -4t17 -13.5t21.5 -22.5t17.5 -32.5t8 -43.5q0 -72 -32 -149.5t-87.5 -131t-115.5 -53.5 q-48 0 -82 36.5t-34 87.5q0 35 14 72t36.5 67.5t49.5 59t54 50.5t49.5 38.5t36.5 25.5l14 10q-39 7 -123 -21q-68 -23 -124.5 -85t-87.5 -152q-6 6 -7 0v4q21 59 53 106.5t65 74.5t56 40.5t39 18.5q93 30 139 22q90 48 164 47q79 -2 133 -48.5t54 -113.5zM434 493 q0 37 -19 64.5t-38 36.5l-19 9q-10 -7 -27.5 -18.5t-62 -47.5t-78 -72.5t-61.5 -86.5t-28 -95t32 -80t75 -35q83 0 154.5 106.5t71.5 218.5zM278 52q-2 1 -13.5 1t-30.5 -1.5t-31 -3.5q-17 -4 -25 -6t-17 -9.5t-9 -19.5q0 -15 19 -15q30 0 107 54zM348 -65q-34 2 -77 2 q-137 0 -235.5 -68.5t-98.5 -136.5q0 -21 14.5 -34.5t38.5 -13.5q104 0 219.5 75.5t138.5 175.5z" />
<glyph unicode="[" horiz-adv-x="300" d="M702 930l-12 -22h-110l-563 -1007h110l-12 -22h-198l587 1051h198z" />
<glyph unicode="\" horiz-adv-x="379" d="M347 -29l-32 1l-251 678l31 -1z" />
<glyph unicode="]" horiz-adv-x="300" d="M601 930l-587 -1051h-198l12 22h110l563 1007h-110l12 22h198z" />
<glyph unicode="^" horiz-adv-x="418" d="M410 202h1l-10 -5q-53 35 -111 78q-19 -12 -89.5 -43t-89.5 -41l-8 8q26 21 90.5 62t82.5 55q14 13 26 1q91 -98 108 -115z" />
<glyph unicode="_" horiz-adv-x="500" d="M507 -125h-513v50h513v-50z" />
<glyph unicode="`" horiz-adv-x="300" d="M222 365h-26l-100 75q-21 19 -21 40q0 15 11.5 28.5t31.5 13.5q22 0 40 -23z" />
<glyph unicode="a" horiz-adv-x="426" d="M449 218q-84 -103 -155.5 -168t-107.5 -65q-30 0 -46 14.5t-30 44.5q-44 -59 -95 -59q-30 0 -49 25.5t-19 73.5q0 74 66 145t158 71q34 0 51 -24q11 15 21 15q6 0 21 -3t21 -3q4 0 16 12.5t17 14.5l-131 -246q-17 -32 -17 -46q0 -20 22 -20q26 0 103 70.5t146 154.5z M207 258q0 9 -5.5 16.5t-15.5 7.5q-40 0 -84 -51t-70 -109.5t-26 -88.5q0 -33 20 -33q40 0 79 66q102 174 102 192z" />
<glyph unicode="b" horiz-adv-x="399" d="M422 218q-71 -94 -186 -96q-27 -46 -90.5 -91.5t-113.5 -45.5q-30 0 -48.5 21.5t-18.5 55.5q0 78 45 175.5t98 169.5q168 229 254 229q13 0 22 -13t9 -29q0 -49 -34 -104.5t-80 -96.5t-85.5 -69.5t-58.5 -35.5q-9 -20 -41.5 -79t-55.5 -107.5t-23 -71.5q0 -30 32 -32 q26 -1 66 48t58 86q-36 20 -36 76q0 37 15.5 64.5t40.5 27.5q75 0 75 -75q0 -23 -8 -51t-16 -40q38 1 86 21t86 70zM351 584q2 31 -11 31q-15 0 -55 -53.5t-76 -117.5q-29 -52 -68 -139q45 24 86 67t66.5 86t41 77.5t16.5 48.5zM204 248q0 36 -19 36q-16 0 -26 -23t-10 -53 q0 -43 28 -64q2 5 8 19.5t9.5 24t6.5 26.5t3 34z" />
<glyph unicode="c" horiz-adv-x="388" d="M411 218q-82 -115 -178.5 -174t-184.5 -59q-101 0 -101 90q0 71 37 124t87.5 77t101.5 24q25 0 42.5 -15.5t17.5 -36.5q0 -23 -18.5 -41t-41.5 -18q-36 0 -36 26q0 20 10 34q16 -13 29 -13q7 0 19 11t12 22q0 21 -34 21q-45 0 -107.5 -99.5t-62.5 -155.5q0 -17 13 -27.5 t32 -10.5q76 0 172.5 55t182.5 173z" />
<glyph unicode="d" horiz-adv-x="432" d="M587 594q0 -73 -107.5 -186.5t-189.5 -152.5q-113 -206 -113 -231q0 -26 21 -26q29 0 86 54t163 173l8 -7q-65 -73 -93 -103.5t-66 -68.5t-60.5 -51t-41.5 -13q-32 0 -49 15.5t-31 53.5q-40 -49 -52 -57q-15 -9 -39 -9q-31 0 -52.5 28.5t-21.5 63.5q0 95 71.5 159 t164.5 64q24 0 51 -27q90 153 177.5 254.5t144.5 101.5q12 0 20.5 -10t8.5 -25zM545 587q0 9 -5.5 15.5t-12.5 6.5q-37 0 -220 -323q99 60 168.5 155t69.5 146zM215 260q0 10 -10 18.5t-20 8.5q-42 0 -111 -100.5t-69 -153.5q0 -35 22 -35q12 0 22 5t21 17.5t18.5 22.5 t21.5 31t22 32q83 115 83 154z" />
<glyph unicode="e" horiz-adv-x="307" d="M330 218q-13 -22 -43.5 -58t-72 -76.5t-91 -69.5t-88.5 -29q-40 0 -64 26.5t-24 63.5q0 94 80.5 159.5t148.5 65.5q23 0 40 -16t17 -39q0 -34 -27 -62.5t-64 -43.5t-68.5 -23t-47.5 -8q-18 -39 -18 -70q0 -37 27 -37q66 0 158 81.5t129 142.5zM183 264q0 23 -21 23 q-22 0 -55 -40t-71 -115q40 0 93.5 51t53.5 81z" />
<glyph unicode="f" horiz-adv-x="237" d="M371 566q0 -62 -71.5 -154.5t-177.5 -147.5h55l-10 -18h-71q-28 -53 -70.5 -136.5t-66.5 -129t-58.5 -107t-60 -94.5t-57.5 -66t-64.5 -47t-68.5 -14q-43 0 -71 26t-28 64q0 40 29 72.5t66 32.5q19 0 34 -15.5t15 -35.5q0 -19 -16 -33t-39 -14q-18 0 -33 26q31 4 31 16 q0 11 -6 18.5t-15 7.5q-15 0 -33.5 -27t-18.5 -57q0 -29 25.5 -49.5t59.5 -20.5q37 0 69.5 28t65.5 87t62.5 122t77.5 164t93 182h-60l10 18h61q25 43 56 90t76.5 109t91.5 101t79 39q14 0 26.5 -11.5t12.5 -25.5zM332 558q0 29 -17 29q-24 0 -100.5 -126t-107.5 -197 q115 85 170 166.5t55 127.5z" />
<glyph unicode="g" horiz-adv-x="346" d="M369 218q-80 -144 -259 -257q-7 -16 -24.5 -62.5t-31.5 -77t-36.5 -67t-52 -55.5t-64.5 -19q-37 0 -63 21.5t-26 53.5q0 44 58.5 98t174.5 95l30 79q-20 -25 -32 -33.5t-28 -8.5q-72 0 -72 98q0 82 72 149.5t141 67.5q22 0 39 -18q12 9 21 9q16 0 25.5 -4.5t12.5 -4.5 t7.5 4.5t13 12.5t15.5 13q-62 -95 -96 -160q-15 -29 -35 -72t-33 -72l-12 -29q161 104 247 246zM179 266q0 8 -5.5 13.5t-12.5 5.5q-28 0 -66.5 -51t-65.5 -113t-27 -94q0 -14 3 -19.5t15 -5.5q34 0 96.5 115t62.5 149zM40 -68q-68 -20 -140.5 -74t-72.5 -100 q0 -17 12.5 -28t29.5 -11q47 0 95.5 67t75.5 146z" />
<glyph unicode="h" horiz-adv-x="342" d="M390 608q0 -51 -37.5 -110t-89.5 -106t-95 -79t-67 -44l-20 -44q38 35 73.5 55t55.5 20q18 0 29.5 -12t11.5 -30q0 -25 -32.5 -79.5t-65.5 -101t-33 -51.5q0 -18 14 -18q10 0 23.5 7.5t31 23t33 31t37 39.5t34.5 40t34.5 41.5t29.5 34.5l8 -7q-7 -9 -27 -33.5t-29.5 -36 t-28 -34t-30 -34.5t-28 -30t-29 -27.5t-26.5 -19t-26.5 -14t-23.5 -4.5q-23 0 -39 13.5t-16 34.5q0 25 64.5 121t64.5 109q0 10 -8 10q-23 0 -55.5 -26t-50.5 -54q-20 -34 -40 -71.5t-31 -57.5t-21.5 -38.5t-17.5 -25.5t-13 -7q-8 0 -20 4t-16 4q-7 0 -18.5 -11t-19.5 -16 q142 281 267 463q140 201 207 201q14 0 25 -8t11 -22zM345 593q0 25 -10 25q-24 0 -70.5 -70t-128.5 -212q-15 -27 -23 -40q103 68 167.5 156.5t64.5 140.5z" />
<glyph unicode="i" horiz-adv-x="235" d="M198 416q0 -22 -15 -39.5t-34 -17.5q-16 0 -27 11.5t-11 27.5q0 21 15.5 36.5t35.5 15.5q15 0 25.5 -10t10.5 -24zM258 218q-196 -233 -264 -233q-27 0 -44.5 16t-17.5 44q0 24 12 57t24 55.5t35 61.5t29 51q0 1 2.5 5t3 5t2.5 3.5t3 3.5t3.5 2t5.5 1.5t7 0.5 q17 0 23 -4.5t11 -4.5q4 0 18 14t20 16l-127 -242q-10 -19 -10 -38q0 -26 24 -26t108 85t124 134z" />
<glyph unicode="j" horiz-adv-x="198" d="M188 413q0 -22 -16 -39t-37 -17q-16 0 -26.5 11t-10.5 27q0 21 17 38t38 17q35 0 35 -37zM221 218q-194 -214 -275 -268q-10 -17 -24 -56t-28.5 -74t-35.5 -71t-52 -57.5t-70 -21.5q-38 0 -64 21t-26 52q0 52 70 111t160 80q59 172 148 323q20 35 37 35q6 0 15.5 -4.5 t16.5 -4.5q5 0 18 13.5t20 15.5l-182 -347q72 54 264 260zM-131 -86q-67 -6 -138.5 -64.5t-71.5 -103.5q0 -16 12 -26.5t30 -10.5q38 0 79.5 51t61.5 92.5t27 61.5z" />
<glyph unicode="k" horiz-adv-x="339" d="M411 605q0 -72 -107 -182.5t-179 -143.5l-32 -49q84 70 131 70q18 0 29 -10.5t11 -28.5q0 -55 -105 -111q18 -27 18 -39q0 -14 -21 -51t-21 -43q0 -8 11 -8q17 0 69 54t95 108l44 54l8 -7q-4 -5 -24.5 -31.5t-33 -42t-35.5 -43t-40.5 -44.5t-38 -35.5t-38.5 -27.5t-33 -9 q-18 0 -31 11t-13 28q0 13 19.5 55.5t19.5 52.5q0 5 -8 6.5t-27.5 1.5t-31.5 1q-17 -27 -31.5 -54t-21.5 -42.5t-14.5 -28.5t-14.5 -18t-17 -5q-6 0 -17 4t-15 4q-5 0 -18 -12.5t-20 -15.5l124 234q12 23 54.5 87t100 143.5t118 139t95.5 59.5q15 0 28 -9t13 -22zM363 597 q0 21 -11 21q-23 0 -109 -128t-105 -187q77 43 150 143.5t75 150.5zM198 245q0 19 -21 19q-22 0 -64.5 -38.5t-58.5 -69.5q42 -2 66 6q28 10 53 33t25 50z" />
<glyph unicode="l" horiz-adv-x="234" d="M393 624q0 -24 -18 -66.5t-51 -95t-91.5 -109.5t-129.5 -98l-21 -44q-20 -44 -28.5 -64.5t-19 -56.5t-10.5 -60q0 -9 6 -16.5t15 -7.5q39 0 98.5 65.5t105.5 153.5l8 -7q-63 -113 -118 -171t-121 -62q-27 -1 -43.5 22t-16.5 62q0 79 82 223.5t180 256t142 111.5 q12 0 21.5 -11t9.5 -25zM350 618q0 21 -14 21q-24 0 -100.5 -128.5t-111.5 -222.5q84 49 155 165.5t71 164.5z" />
<glyph unicode="m" horiz-adv-x="532" d="M555 218l-122 -136q-57 -64 -78 -79q-26 -18 -52 -18q-25 0 -42.5 18t-17.5 45q0 18 60 107t60 103q0 17 -18 17q-12 0 -46.5 -34t-70.5 -77q-5 -6 -41 -75t-43 -80q-10 -15 -27 -15q-6 0 -17.5 4.5t-15.5 4.5l-36 -30q149 275 149 288q0 14 -11 14q-10 0 -22.5 -7.5 t-30.5 -24t-28.5 -27t-32.5 -33.5q-23 -24 -49 -72.5t-44.5 -82.5t-28.5 -34q-11 0 -25 4.5t-17 4.5l-36 -30l140 263q24 46 32 51q5 4 12 4q10 0 23 -3t16 -3q4 0 17 13t19 14l-51 -96q82 84 142 84q22 0 33.5 -17t11.5 -35v-17q35 33 47.5 43t30.5 18t41 8q18 0 32 -15 t14 -34q0 -7 -17 -35l-97 -157q-15 -24 -15 -33q0 -10 6.5 -17t13.5 -7q8 0 39.5 26.5t63.5 61.5l121 135z" />
<glyph unicode="n" horiz-adv-x="385" d="M408 218l-154 -173q-26 -30 -49 -45.5t-52 -15.5q-53 0 -58 61q-2 27 21 61l83 127q14 22 14 30q0 9 -15 9q-25 0 -74.5 -44.5t-99.5 -128.5q-10 -16 -26 -48t-26 -44.5t-20 -12.5q-7 0 -19.5 4.5t-17.5 4.5q-4 0 -13.5 -7.5t-16.5 -15.5l-7 -7l154 294q13 24 30 24 q10 0 19 -4t16 -4q4 0 16.5 12.5t20.5 16.5l-51 -96q52 46 85 65t65 19q21 0 33.5 -12.5t12.5 -33.5q0 -24 -19 -54l-93 -145q-18 -27 -18 -34q0 -18 21 -18q28 0 83 60l147 162z" />
<glyph unicode="o" horiz-adv-x="369" d="M392 218q-36 -43 -123 -92q-32 -12 -45 -15q-25 -42 -80.5 -84t-117.5 -42q-34 0 -55.5 28.5t-21.5 64.5q0 85 71.5 153.5t155.5 68.5q35 0 58 -27t23 -67q0 -16 -3.5 -30t-11.5 -32l-9 -18q10 2 30 11q57 26 121 88zM197 263q0 25 -24 25q-28 0 -68.5 -49.5t-69 -111 t-28.5 -95.5t19 -34q28 0 56.5 28t67.5 93q-55 18 -55 49q0 15 9 23.5t22 8.5q21 0 21 -21q0 -18 -27 -20q3 -10 15.5 -19t22.5 -11q39 83 39 134z" />
<glyph unicode="p" horiz-adv-x="372" d="M395 218q-63 -106 -139 -178t-140 -72q-25 0 -45 23q-37 -26 -71 -26q-35 0 -44 46q-40 -73 -79 -167t-59.5 -138.5t-36.5 -44.5l-50 13l-42 -37q85 149 180.5 333t160.5 299l3 5q3 5 5.5 8t8 6t12.5 3t18 -4t16 -4q6 0 18.5 13.5t19.5 15.5l-17 -31q20 19 50 19 q28 0 47 -24t19 -58q0 -110 -147 -218q16 -20 33 -20q57 0 132.5 70.5t138.5 174.5zM170 258q0 21 -20 21q-23 0 -53 -31.5t-55 -75.5t-40 -73.5t-21 -43.5q7 3 26 3q7 0 19.5 -6.5t21.5 -13.5l8 -6q40 50 77 121.5t37 104.5zM45 21q-26 24 -48 24q-26 0 -26 -12 q0 -14 7.5 -27.5t19.5 -13.5q5 0 10 1t7.5 2t7 4.5t6.5 5t7.5 7.5t8.5 9z" />
<glyph unicode="q" horiz-adv-x="370" d="M393 218q-64 -102 -125.5 -153t-138.5 -71q11 -18 23 -54t12 -53q0 -75 -48.5 -153t-106.5 -78q-31 0 -48.5 23.5t-17.5 63.5t29.5 96t119.5 184q-29 -23 -44.5 -30.5t-35.5 -7.5q-62 0 -62 105q0 81 74 145.5t147 64.5q19 0 42 -18q9 9 24 9q7 0 17 -3.5t17 -3.5 q5 0 18.5 13.5t18.5 14.5l-176 -304q68 22 124 65.5t129 151.5zM197 264q0 15 -18 15q-42 0 -104.5 -97t-62.5 -147q0 -27 26 -27q22 0 41.5 26t61.5 103q50 90 54 106q2 9 2 21zM149 -113q0 35 -32 98q-69 -115 -83 -150.5t-14 -94.5q0 -18 9.5 -30t24.5 -12q29 0 62 65 t33 124z" />
<glyph unicode="r" horiz-adv-x="294" d="M317 218q-91 -138 -151 -185.5t-118 -47.5q-52 0 -54 74q-1 24 41.5 93t42.5 81q0 7 -4 7q-9 0 -26 -15.5t-37 -15.5q-25 0 -25 38q0 25 19 50.5t39 25.5q9 0 16.5 -6.5t7.5 -16.5q0 -29 -35 -69q6 5 16 13.5t15 12.5t13 10.5t12.5 9.5t11 7.5t10.5 7t9 4.5t9.5 3t8.5 1 q15 0 25 -11.5t10 -27.5q0 -7 -2 -14.5t-4.5 -11.5t-7.5 -11.5t-7 -11.5l-79 -135q-19 -32 -19 -41q0 -27 26 -27q79 0 229 216zM53 299q0 9 -9 9q-14 0 -27.5 -23t-13.5 -38q0 -17 11 -17q39 49 39 69z" />
<glyph unicode="s" horiz-adv-x="247" d="M270 218q-33 -55 -63.5 -91.5t-58.5 -54t-47.5 -24t-47.5 -10.5q-47 -55 -112 -55q-38 0 -58.5 19t-20.5 52q0 23 13.5 39.5t34.5 16.5q16 0 40 -20.5t31 -23.5q18 13 28 40t10 48q0 9 -9.5 42t-9.5 55q0 36 13.5 66t39.5 30q25 0 25 -18q0 -11 -4 -23t-6 -17 t-11.5 -20.5t-9.5 -16.5q30 -66 30 -109q0 -25 -6 -53.5t-12 -37.5q60 13 102 45t101 128zM66 327q0 12 -12 11q-6 0 -12 -13t-7 -29q0 -20 6 -32q25 36 25 63zM-29 56q-11 5 -28 20.5t-26 15.5q-7 0 -12.5 -6t-5.5 -14q0 -22 32 -28q30 -6 40 12z" />
<glyph unicode="t" horiz-adv-x="235" d="M258 218q-34 -54 -94 -126q-41 -56 -88 -81.5t-88 -25.5q-22 0 -37.5 19.5t-15.5 46.5t21 69l79 159h-74l16 15h81q45 29 73.5 60.5t84.5 116.5h11l-101 -177h75l-6 -15h-75l-104 -182q-23 -40 -23 -53q0 -11 8.5 -24.5t18.5 -13.5q28 0 68.5 30.5t65.5 63.5 q67 85 96 125z" />
<glyph unicode="u" horiz-adv-x="415" d="M438 218q-20 -30 -46.5 -63t-65.5 -75t-83 -68.5t-82 -26.5q-52 0 -59 84q-50 -56 -65 -67q-23 -17 -58 -17q-27 0 -39 16.5t-12 33.5q0 47 33 106l75 136q8 14 27 14q3 0 14.5 -3.5t18.5 -3.5q5 0 18 13.5t18 14.5l-119 -224q-18 -33 -18 -56q0 -26 26 -26q12 0 50.5 42 t66.5 91l78 139q7 13 23 13q7 0 18 -3.5t18 -3.5q5 0 17.5 13t18.5 15l-127 -239q-16 -29 -16 -44q0 -20 26 -20q34 0 102.5 62.5t133.5 153.5z" />
<glyph unicode="v" horiz-adv-x="376" d="M399 218q-89 -86 -180 -90q-18 -45 -86 -94t-144 -49q-22 0 -38.5 18t-16.5 39q0 51 29 104l72 131q8 14 22 14q9 0 20.5 -4t16.5 -4q4 0 15 12.5t20 15.5l-119 -228q-15 -29 -15 -45q0 -18 9 -28t23 -10q63 0 130 141q-32 37 -32 73q0 38 24 66t49 28q22 0 39.5 -24 t17.5 -53q0 -24 -9.5 -50.5t-18.5 -39.5q68 0 164 84zM207 240q0 45 -24 45q-18 0 -32 -23.5t-14 -48.5q0 -26 28 -60q42 71 42 87z" />
<glyph unicode="w" horiz-adv-x="552" d="M575 218q-22 -40 -73.5 -65t-99.5 -34q-36 -55 -102.5 -94.5t-120.5 -39.5q-25 0 -37 8.5t-22 27.5q-9 18 2 56q-44 -50 -73.5 -71t-66.5 -21q-21 0 -37 18t-16 48q0 16 4 30t6 18.5t13 24.5l80 147q11 20 25 20q8 0 20 -3.5t19 -3.5q5 0 17.5 13.5t18.5 14.5l-126 -238 q-14 -27 -14 -42q0 -11 5 -18.5t11 -7.5q29 0 68 39.5t66 90.5l76 141q8 14 22 14q6 0 18 -3.5t19 -3.5q6 0 18 13t19 15l-119 -225q-19 -35 -19 -55q0 -32 28 -32q65 0 135 135q-33 32 -33 78q0 40 22 67.5t55 27.5q22 0 40 -24.5t18 -53.5q0 -50 -31 -96q34 4 89.5 32.5 t67.5 58.5zM381 266q0 21 -19 21t-30.5 -22t-11.5 -52q-5 -40 24 -64q14 17 25.5 53t11.5 64z" />
<glyph unicode="x" horiz-adv-x="388" d="M411 218q-181 -233 -304 -233q-29 0 -50.5 23.5t-39.5 75.5q-50 -57 -77 -78t-50 -21q-16 0 -26 10t-10 25q0 17 24 36q25 -29 44 -29q20 0 49 30.5t41 50.5q0 9 -4 71.5t-4 74.5q0 16 1 23.5t6.5 13.5t15.5 6h35q4 0 9.5 15t9.5 17l2 -131q41 35 60.5 51t50.5 33.5 t52 17.5q16 0 27.5 -8t11.5 -19q0 -12 -16 -39q-31 24 -53 24q-32 0 -80 -33.5t-53 -45.5q0 -168 55 -168q50 0 132.5 73.5t132.5 140.5z" />
<glyph unicode="y" horiz-adv-x="382" d="M405 218l-132 -126q-11 -10 -37.5 -35.5t-37.5 -35.5t-35.5 -27t-52.5 -33q-11 -18 -32 -61.5t-38 -72t-41 -60.5t-54 -49t-64 -17t-57.5 22t-23.5 55q0 26 15 49t36.5 40t55.5 33.5t63.5 27t68.5 22.5l42 85q-66 -50 -99 -50q-24 0 -38.5 18.5t-14.5 49.5t17 62l82 152 q12 24 28 24q11 0 22 -4t17 -4q5 0 17.5 13.5t18.5 15.5l-122 -228q-17 -32 -17 -49q0 -28 15 -28q14 0 49 20.5t53 51.5l105 188q13 24 28 24q11 0 20 -4t16 -4q4 0 17.5 13.5t19.5 15.5q-3 -5 -24 -46t-42.5 -81.5t-57.5 -99.5t-72 -109q32 19 54.5 38t51 47.5t40.5 39.5 l132 124zM36 -60q-40 -14 -66.5 -23.5t-60 -26t-53.5 -31.5t-34 -36t-14 -44q0 -19 12 -30.5t30 -11.5q36 0 73 39.5t113 163.5z" />
<glyph unicode="z" horiz-adv-x="312" d="M335 218q-121 -188 -275 -262q5 -20 5 -65q0 -89 -73 -162.5t-174 -73.5q-37 0 -59 20t-22 55q0 66 81 126.5t193 90.5q0 40 -6 56q-37 -14 -56 -14q-36 0 -36 25q0 10 11.5 18.5t28.5 8.5q33 0 65 -18q24 20 56.5 80t32.5 107q0 35 -36 35q-10 0 -30.5 -15.5 t-40.5 -43.5v17q50 97 116 97q29 0 48 -21.5t19 -51.5q0 -75 -56.5 -138t-99.5 -77q22 -26 27 -46q69 34 133.5 94t139.5 165zM-2 13q-25 19 -45 19q-11 1 -19 -5t-8 -13q0 -16 23 -16q14 -1 49 15zM11 -65q-43 -11 -99.5 -45t-102.5 -85.5t-46 -97.5q0 -17 14.5 -29.5 t33.5 -12.5q38 0 86 47t81 111.5t33 111.5z" />
<glyph unicode="{" horiz-adv-x="400" d="M513 680q-32 -2 -66.5 -32t-48.5 -70l-76 -216q-14 -40 -44.5 -68t-66.5 -36l-3 -8q27 -3 40 -28.5t2 -57.5l-66 -192q-22 -50 -19.5 -90.5t44.5 -53.5q-84 0 -99.5 38t17.5 120l64 180q11 27 4 52.5t-31 37.5q31 7 58.5 37t41.5 69l61 178q24 71 64 105.5t124 34.5z" />
<glyph unicode="|" horiz-adv-x="260" d="M183 -80h-55v840h55v-840z" />
<glyph unicode="}" horiz-adv-x="400" d="M358 526l-64 -180q-11 -27 -4 -52.5t31 -37.5q-31 -7 -58.5 -37t-41.5 -69l-61 -178q-24 -71 -64 -105.5t-124 -34.5q32 2 66.5 32t48.5 70l76 216q14 40 44.5 68t66.5 36l3 8q-27 3 -40 28.5t-2 57.5l66 192q22 50 19.5 89t-44.5 52q84 0 99.5 -36.5t-17.5 -118.5z" />
<glyph unicode="~" horiz-adv-x="440" d="M447 237q-29 -66 -123 -66q-28 0 -73 7t-74 7q-47 0 -111 -15q39 64 134 64q29 0 76 -9t77 -9q33 0 94 21z" />
<glyph unicode="&#xa1;" horiz-adv-x="328" d="M-3 -152q0 29 35.5 90.5t134.5 202.5l108 168h11q-20 -38 -30 -61l-146 -344q-17 -41 -41.5 -68t-45.5 -27q-26 0 -26 39zM311 439q0 23 18 41.5t40 18.5q19 0 30.5 -14t11.5 -36q0 -23 -18 -41.5t-40 -18.5q-19 0 -30.5 14t-11.5 36z" />
<glyph unicode="&#xa2;" horiz-adv-x="355" d="M315 409q0 -31 -21 -52.5t-51 -21.5q-48 0 -48 40q0 23 12 37t32 14q9 0 21 -11q-17 -11 -17 -20q0 -19 14 -19q12 0 24.5 13t12.5 29q0 15 -11.5 24t-30.5 9q-56 0 -128 -102q-53 -74 -53 -142q0 -20 12.5 -35.5t30.5 -15.5q34 0 86 44l9 -13q-39 -34 -65 -45t-67 -9 l-49 -92l-16 7l48 90q-27 9 -41.5 32t-14.5 51q0 53 28 113q71 151 214 151l36 67l16 -5l-36 -67q53 -16 53 -71z" />
<glyph unicode="&#xa3;" horiz-adv-x="690" d="M673 521q0 -44 -26 -77.5t-67 -33.5q-29 0 -51.5 21.5t-22.5 48.5q0 21 16.5 36t37.5 15q25 0 40 -20q-9 -2 -21 -11.5t-12 -19.5q0 -13 9.5 -22t19.5 -9q21 0 40 24.5t19 51.5t-18 49.5t-44 22.5q-34 0 -61.5 -20t-49 -58t-36 -73t-33.5 -87t-31 -79q63 -14 79 -14 q28 0 50 6l6 -8q-9 -9 -30 -15.5t-41 -6.5q-24 0 -77 11q-63 -128 -132 -189q56 -14 92 -14q62 0 117 35t84 81l15 -4q-17 -53 -68.5 -110.5t-106.5 -57.5q-66 0 -162 46q-61 -42 -136 -42q-28 0 -47.5 11t-19.5 34q0 25 24 37.5t56 12.5q13 0 28 -2t25.5 -5t29 -8t28.5 -7 q50 63 88 186q-29 -3 -102 -36q-4 10 1 45q57 22 111 23q26 84 66 157.5t100 126.5t122 53q39 0 65 -31t26 -74zM180 53q-55 25 -88 25q-19 0 -33.5 -7.5t-14.5 -22.5q0 -16 13 -25.5t30 -9.5q51 0 93 40z" />
<glyph unicode="&#xa8;" horiz-adv-x="281" d="M92 757q12 0 19.5 -9t4.5 -21q-2 -11 -13.5 -20t-22.5 -9q-13 0 -19.5 8.5t-4.5 20.5t13 21t23 9zM217 757q12 0 19.5 -9t4.5 -21q-2 -11 -13 -20t-23 -9t-19 8.5t-5 20.5t13 21t23 9z" />
<glyph unicode="&#xab;" horiz-adv-x="273" d="M244 71l-91 112l157 100l-8 -23l-122 -77l73 -89zM145 71l-91 112l157 100l-8 -23l-122 -77l73 -89z" />
<glyph unicode="&#xb0;" horiz-adv-x="459" d="M274 537q0 -59 -52.5 -121t-115.5 -62q-31 0 -47.5 19.5t-16.5 50.5q0 55 59.5 113t111.5 58q61 0 61 -58zM249 527q0 14 -1 21t-7 13.5t-18 6.5q-39 0 -79.5 -62.5t-40.5 -102.5q0 -24 20 -24q28 0 77 49.5t49 98.5z" />
<glyph unicode="&#xb2;" horiz-adv-x="407" d="M381 582q0 -30 -16.5 -54.5t-45.5 -42.5t-55.5 -29.5t-59 -23.5t-43.5 -18q-25 -12 -51.5 -33t-26.5 -29q4 0 26 3.5t36 4.5q17 1 44.5 -5t37.5 -6q22 0 63 33q6 -21 -26.5 -51t-66.5 -30q-18 0 -44.5 6t-38.5 6q-30 0 -45.5 -2.5t-20 -5t-6.5 -2.5t-4 4v2q0 17 60 70 q24 21 89.5 56.5t72.5 42.5q31 29 52.5 63t21.5 58q0 20 -16 34.5t-39 14.5q-27 0 -50 -20.5t-23 -45.5q0 -12 7 -20.5t17 -8.5q5 0 10.5 4.5t5.5 9.5t-2.5 11t-2.5 8q19 5 26.5 -5.5t7.5 -21.5q0 -14 -11 -24t-27 -10q-19 0 -31 13t-12 33q0 34 34 61.5t76 27.5 q36 0 56.5 -21t20.5 -57z" />
<glyph unicode="&#xb3;" horiz-adv-x="403" d="M368 660l-183 -130q26 -3 48 -23.5t22 -58.5q0 -53 -48 -95.5t-108 -42.5q-33 0 -55.5 22t-22.5 53q0 26 17.5 46t39.5 20q16 0 28 -12.5t12 -27.5q0 -14 -9.5 -24t-23.5 -10t-22 17q21 6 21 14q0 19 -18 19q-16 0 -27 -12.5t-11 -31.5q0 -22 15.5 -36t41.5 -14 q47 0 85 49t38 89q0 16 -12 26t-30 10q-11 0 -24 -7l-13 -8q-9 0 -9 4l158 110q-50 15 -74 14q-13 0 -25.5 -3.5t-28.5 -10t-18 -7.5q4 7 11 17t31 27t51 17q11 0 41 -7t52 -7q21 0 50 14z" />
<glyph unicode="&#xb4;" horiz-adv-x="0" d="M56 788q0 -15 -25.5 -27t-75.5 -28.5t-82 -33.5v7q31 17 68.5 42t60 38t39.5 13q15 0 15 -11z" />
<glyph unicode="&#xb7;" horiz-adv-x="500" d="M625 726q0 -17 -16.5 -30.5t-36.5 -13.5q-17 0 -28 10.5t-11 26.5q0 17 16.5 30.5t36.5 13.5q17 0 28 -10.5t11 -26.5z" />
<glyph unicode="&#xb8;" horiz-adv-x="183" d="M144 -70q0 -19 -18 -32.5t-40 -13.5q-29 0 -60 16q-11 6 -4 11q6 4 13 0q7 -7 39 -6.5t32 23.5q0 17 -50 12l8 26q14 6 29 6l17 32h20l-22 -34q36 -7 36 -40z" />
<glyph unicode="&#xb9;" horiz-adv-x="317" d="M292 656q0 -2 -25 -37t-58.5 -86.5t-50.5 -87.5q-13 -26 -24.5 -56.5t-18 -47.5t-9.5 -19q-4 -4 -40 -1q-14 -19 -21 -23q15 53 43 110q14 27 45 69t52.5 69.5t18.5 27.5q-4 0 -18.5 -12.5t-27.5 -25.5l-13 -12l-14 -7q12 15 77.5 78.5t80.5 63.5h4q-1 0 -1 -3z" />
<glyph unicode="&#xbb;" horiz-adv-x="285" d="M120 283l91 -112l-157 -100l8 23l122 77l-73 89zM219 283l91 -112l-157 -100l8 23l122 77l-73 89z" />
<glyph unicode="&#xbc;" horiz-adv-x="605" d="M348 604q0 -2 -25 -37t-58.5 -86.5t-50.5 -87.5q-13 -26 -24.5 -56.5t-18 -47.5t-9.5 -19q-4 -4 -40 -1q-14 -19 -21 -23q15 53 43 110q14 27 45 69t52.5 69.5t18.5 27.5q-4 0 -18.5 -12.5t-27.5 -25.5l-13 -12l-14 -7q12 15 77.5 78.5t80.5 63.5h4q-1 0 -1 -3zM577 656 q-80 -95 -236.5 -323.5t-182.5 -296.5q-9 -24 -17.5 -33.5t-24.5 -12.5q-5 -1 -11 -1q-5 0 -8.5 -4t-7 -12t-5.5 -11q-4 -6 -8 -6q-5 0 -5 6q0 36 70 151q88 142 171.5 251t247.5 294zM558 362q1 -8 -1 -13q-9 -23 -48 -54q-34 -26 -97.5 -69t-96 -69t-32.5 -42q0 -7 19 -12 t40 -3l44 3q1 1 6.5 10t16.5 24.5t25 35t35.5 46t45.5 52.5q12 12 16 12q1 0 -24.5 -44.5t-51.5 -88.5l-26 -44l77 6q-3 -6 -7 -14.5t-7 -13.5q-10 0 -36 1.5t-33 1.5q-2 -5 -13 -30.5t-19 -41t-13 -15.5l-30 6q-14 -19 -22 -22q2 12 9.5 30t15 31t16.5 27.5t10 16.5l-61 2 q-50 2 -50 19q0 11 27 35.5t71 60.5t68 61l76 82l34 -2z" />
<glyph unicode="&#xbd;" horiz-adv-x="605" d="M583 277q0 -30 -16.5 -54.5t-45.5 -42.5t-55.5 -29.5t-59 -23.5t-43.5 -18q-25 -12 -51.5 -33t-26.5 -29q4 0 26 3.5t36 4.5q17 1 44.5 -5t37.5 -6q22 0 63 33q6 -21 -26.5 -51t-66.5 -30q-18 0 -44.5 6t-38.5 6q-30 0 -45.5 -2.5t-20 -5t-6.5 -2.5t-4 4v2q0 17 60 70 q24 21 89.5 56.5t72.5 42.5q31 29 52.5 63t21.5 58q0 20 -16 34.5t-39 14.5q-27 0 -50 -20.5t-23 -45.5q0 -12 7 -20.5t17 -8.5q5 0 10.5 4.5t5.5 9.5t-2.5 11t-2.5 8q19 5 26.5 -5.5t7.5 -21.5q0 -14 -11 -24t-27 -10q-19 0 -31 13t-12 33q0 34 34 61.5t76 27.5 q36 0 56.5 -20.5t20.5 -57.5zM577 656q-80 -95 -236.5 -323.5t-182.5 -296.5q-9 -24 -17.5 -33.5t-24.5 -12.5q-5 -1 -11 -1q-5 0 -8.5 -4t-7 -12t-5.5 -11q-4 -6 -8 -6q-5 0 -5 6q0 36 70 151q88 142 171.5 251t247.5 294zM348 604q0 -2 -25 -37t-58.5 -86.5t-50.5 -87.5 q-13 -26 -24.5 -56.5t-18 -47.5t-9.5 -19q-4 -4 -40 -1q-14 -19 -21 -23q15 53 43 110q14 27 45 69t52.5 69.5t18.5 27.5q-4 0 -18.5 -12.5t-27.5 -25.5l-13 -12l-14 -7q12 15 77.5 78.5t80.5 63.5h4q-1 0 -1 -3z" />
<glyph unicode="&#xbe;" horiz-adv-x="605" d="M373 604l-183 -130q26 -3 48 -23.5t22 -58.5q0 -53 -48 -95.5t-108 -42.5q-33 0 -55.5 22t-22.5 53q0 26 17.5 46t39.5 20q16 0 28 -12.5t12 -27.5q0 -14 -9.5 -24t-23.5 -10t-22 17q21 6 21 14q0 19 -18 19q-16 0 -27 -12.5t-11 -31.5q0 -22 15.5 -36t41.5 -14 q47 0 85 49t38 89q0 16 -12 26t-30 10q-11 0 -24 -7l-13 -8q-9 0 -9 4l158 110q-50 15 -74 14q-13 0 -25.5 -3.5t-28.5 -10t-18 -7.5q4 7 11 17t31 27t51 17q11 0 41 -7t52 -7q21 0 50 14zM577 656q-80 -95 -236.5 -323.5t-182.5 -296.5q-9 -24 -17.5 -33.5t-24.5 -12.5 q-5 -1 -11 -1q-5 0 -8.5 -4t-7 -12t-5.5 -11q-4 -6 -8 -6q-5 0 -5 6q0 36 70 151q88 142 171.5 251t247.5 294zM558 362q1 -8 -1 -13q-9 -23 -48 -54q-34 -26 -97.5 -69t-96 -69t-32.5 -42q0 -7 19 -12t40 -3l44 3q1 1 6.5 10t16.5 24.5t25 35t35.5 46t45.5 52.5 q12 12 16 12q1 0 -24.5 -44.5t-51.5 -88.5l-26 -44l77 6q-3 -6 -7 -14.5t-7 -13.5q-10 0 -36 1.5t-33 1.5q-2 -5 -13 -30.5t-19 -41t-13 -15.5l-30 6q-14 -19 -22 -22q2 12 9.5 30t15 31t16.5 27.5t10 16.5l-61 2q-50 2 -50 19q0 11 27 35.5t71 60.5t68 61l76 82l34 -2z" />
<glyph unicode="&#xbf;" horiz-adv-x="522" d="M11 -64q0 50 45.5 107t111.5 88l208 103q12 6 22 20.5t10 25.5q0 30 -38 30q-12 0 -25 -4l-11 7q23 6 46 8q18 0 30 -11.5t12 -29.5q0 -32 -29 -54q-9 -7 -148 -95q-30 -18 -83 -68q-78 -75 -78 -130q0 -40 30 -65.5t77 -25.5q49 0 96 25q51 29 86.5 74.5t35.5 84.5 q0 22 -13.5 35.5t-34.5 13.5q-23 0 -55 -18l-10 3q36 26 67 26q24 0 40.5 -16.5t16.5 -42.5q0 -83 -80.5 -150t-179.5 -67q-62 0 -105.5 36.5t-43.5 89.5zM406 439q0 23 18 41.5t40 18.5q19 0 30.5 -14t11.5 -36q0 -23 -18 -41.5t-40 -18.5q-19 0 -30.5 14t-11.5 36z" />
<glyph unicode="&#xc0;" d="M948 791q17 0 39.5 -13t60 -38t68.5 -42v-7q-32 17 -82 33.5t-75.5 28.5t-25.5 27q0 11 15 11zM1229 -15q0 -60 -59 -105.5t-124 -47.5q-31 -1 -61.5 3.5t-56.5 13t-47.5 17t-42 21t-31.5 19.5t-25 18l-14 11q-1 -1 -18 -10.5t-36 -20t-48 -24.5t-60.5 -26t-66.5 -23 t-73.5 -17.5t-73.5 -6.5q-173 0 -286.5 105t-113.5 266q0 162 97.5 261t257.5 99q25 0 58 -12v-12q-35 13 -58 13q-160 0 -252 -101t-92 -248q0 -155 110.5 -258t278.5 -103q73 0 164.5 31.5t146.5 63.5l55 31l-36 32q-4 -1 -11 -2t-24.5 -2.5t-31 0.5t-24.5 9.5t-11 21.5 q0 13 11 17.5t26 1.5t30.5 -7.5t26.5 -9.5l11 -5q9 0 41.5 29.5t36.5 39.5l12 27q12 27 21.5 50.5t21.5 56t19 61t7 47.5q-45 -9 -122 -9q-6 -9 -33 -50.5t-47 -71t-56 -72t-68.5 -69.5t-75.5 -47t-86 -20q-75 0 -116 36.5t-41 93.5q0 86 76.5 150.5t188.5 64.5h249 q30 65 78 126q41 52 86 93t79.5 63t64 36.5t45.5 19.5l15 4q10 0 10 -16q0 -9 -13 -21.5t-33 -32.5t-40 -48.5t-37 -80t-22 -116.5q8 3 21 8t46.5 26t59 46t46.5 69t21 95q0 107 -95.5 181t-233.5 74q-142 0 -240.5 -82.5t-98.5 -176.5q0 -41 11 -75t26 -53t30.5 -32 t26.5 -17l11 -5l-3 -13l-12.5 5t-27.5 18t-35.5 35t-28 56.5t-12.5 80.5q0 99 103.5 186t249.5 87q144 0 243.5 -78t99.5 -191q0 -55 -21.5 -102t-52.5 -75t-62 -48.5t-52 -28.5l-22 -8q-7 -58 -10 -71q-5 -19 -19.5 -49.5t-41 -71t-71 -82.5t-96.5 -71q24 -22 30 -28 q165 102 214.5 125.5t104.5 23.5q56 0 95 -34t39 -82zM1056 617q-19 0 -77 -45.5t-103 -96.5q-31 -35 -55.5 -72.5t-34 -56.5t-13.5 -30q64 0 112 9q7 43 29 89.5t47 81t49.5 63t37 43.5t8.5 15zM1215 -16q0 44 -34 73.5t-85 29.5q-53 0 -96.5 -20t-174.5 -100 q-25 -16 -39 -24q4 -4 12 -10.5t35 -23t55.5 -29.5t71.5 -23.5t86 -10.5q61 0 115 43t54 95zM696 -10q-3 2 -9 4.5l-18 7.5t-20 4.5t-8 -7.5q0 -11 13.5 -13.5t27.5 0.5zM741 299h-201q-103 0 -178.5 -60t-75.5 -138q0 -116 110 -116q28 0 58 11t53.5 25t52 41t46 46t43 54 t35.5 50t32.5 49t24.5 38z" />
<glyph unicode="&#xc1;" d="M1076 757q0 -15 -25.5 -27t-75.5 -28.5t-82 -33.5v7q31 17 68.5 42t60 38t39.5 13q15 0 15 -11zM1229 -15q0 -60 -59 -105.5t-124 -47.5q-31 -1 -61.5 3.5t-56.5 13t-47.5 17t-42 21t-31.5 19.5t-25 18l-14 11q-1 -1 -18 -10.5t-36 -20t-48 -24.5t-60.5 -26t-66.5 -23 t-73.5 -17.5t-73.5 -6.5q-173 0 -286.5 105t-113.5 266q0 162 97.5 261t257.5 99q25 0 58 -12v-12q-35 13 -58 13q-160 0 -252 -101t-92 -248q0 -155 110.5 -258t278.5 -103q73 0 164.5 31.5t146.5 63.5l55 31l-36 32q-4 -1 -11 -2t-24.5 -2.5t-31 0.5t-24.5 9.5t-11 21.5 q0 13 11 17.5t26 1.5t30.5 -7.5t26.5 -9.5l11 -5q9 0 41.5 29.5t36.5 39.5l12 27q12 27 21.5 50.5t21.5 56t19 61t7 47.5q-45 -9 -122 -9q-6 -9 -33 -50.5t-47 -71t-56 -72t-68.5 -69.5t-75.5 -47t-86 -20q-75 0 -116 36.5t-41 93.5q0 86 76.5 150.5t188.5 64.5h249 q30 65 78 126q41 52 86 93t79.5 63t64 36.5t45.5 19.5l15 4q10 0 10 -16q0 -9 -13 -21.5t-33 -32.5t-40 -48.5t-37 -80t-22 -116.5q8 3 21 8t46.5 26t59 46t46.5 69t21 95q0 107 -95.5 181t-233.5 74q-142 0 -240.5 -82.5t-98.5 -176.5q0 -41 11 -75t26 -53t30.5 -32 t26.5 -17l11 -5l-3 -13l-12.5 5t-27.5 18t-35.5 35t-28 56.5t-12.5 80.5q0 99 103.5 186t249.5 87q144 0 243.5 -78t99.5 -191q0 -55 -21.5 -102t-52.5 -75t-62 -48.5t-52 -28.5l-22 -8q-7 -58 -10 -71q-5 -19 -19.5 -49.5t-41 -71t-71 -82.5t-96.5 -71q24 -22 30 -28 q165 102 214.5 125.5t104.5 23.5q56 0 95 -34t39 -82zM1056 617q-19 0 -77 -45.5t-103 -96.5q-31 -35 -55.5 -72.5t-34 -56.5t-13.5 -30q64 0 112 9q7 43 29 89.5t47 81t49.5 63t37 43.5t8.5 15zM1215 -16q0 44 -34 73.5t-85 29.5q-53 0 -96.5 -20t-174.5 -100 q-25 -16 -39 -24q4 -4 12 -10.5t35 -23t55.5 -29.5t71.5 -23.5t86 -10.5q61 0 115 43t54 95zM696 -10q-3 2 -9 4.5l-18 7.5t-20 4.5t-8 -7.5q0 -11 13.5 -13.5t27.5 0.5zM741 299h-201q-103 0 -178.5 -60t-75.5 -138q0 -116 110 -116q28 0 58 11t53.5 25t52 41t46 46t43 54 t35.5 50t32.5 49t24.5 38z" />
<glyph unicode="&#xc2;" d="M1141 677q6 -6 0 -6l-6 3q-45 30 -74 52q-13 -8 -60 -29t-59 -27q-7 -4 -8 -1t3 6q16 13 58.5 40.5t56.5 38.5q9 8 17 0q65 -70 72 -77zM1229 -15q0 -60 -59 -105.5t-124 -47.5q-31 -1 -61.5 3.5t-56.5 13t-47.5 17t-42 21t-31.5 19.5t-25 18l-14 11q-1 -1 -18 -10.5 t-36 -20t-48 -24.5t-60.5 -26t-66.5 -23t-73.5 -17.5t-73.5 -6.5q-173 0 -286.5 105t-113.5 266q0 162 97.5 261t257.5 99q25 0 58 -12v-12q-35 13 -58 13q-160 0 -252 -101t-92 -248q0 -155 110.5 -258t278.5 -103q73 0 164.5 31.5t146.5 63.5l55 31l-36 32q-4 -1 -11 -2 t-24.5 -2.5t-31 0.5t-24.5 9.5t-11 21.5q0 13 11 17.5t26 1.5t30.5 -7.5t26.5 -9.5l11 -5q9 0 41.5 29.5t36.5 39.5l12 27q12 27 21.5 50.5t21.5 56t19 61t7 47.5q-45 -9 -122 -9q-6 -9 -33 -50.5t-47 -71t-56 -72t-68.5 -69.5t-75.5 -47t-86 -20q-75 0 -116 36.5t-41 93.5 q0 86 76.5 150.5t188.5 64.5h249q30 65 78 126q41 52 86 93t79.5 63t64 36.5t45.5 19.5l15 4q10 0 10 -16q0 -9 -13 -21.5t-33 -32.5t-40 -48.5t-37 -80t-22 -116.5q8 3 21 8t46.5 26t59 46t46.5 69t21 95q0 107 -95.5 181t-233.5 74q-142 0 -240.5 -82.5t-98.5 -176.5 q0 -41 11 -75t26 -53t30.5 -32t26.5 -17l11 -5l-3 -13l-12.5 5t-27.5 18t-35.5 35t-28 56.5t-12.5 80.5q0 99 103.5 186t249.5 87q144 0 243.5 -78t99.5 -191q0 -55 -21.5 -102t-52.5 -75t-62 -48.5t-52 -28.5l-22 -8q-7 -58 -10 -71q-5 -19 -19.5 -49.5t-41 -71t-71 -82.5 t-96.5 -71q24 -22 30 -28q165 102 214.5 125.5t104.5 23.5q56 0 95 -34t39 -82zM1056 617q-19 0 -77 -45.5t-103 -96.5q-31 -35 -55.5 -72.5t-34 -56.5t-13.5 -30q64 0 112 9q7 43 29 89.5t47 81t49.5 63t37 43.5t8.5 15zM1215 -16q0 44 -34 73.5t-85 29.5q-53 0 -96.5 -20 t-174.5 -100q-25 -16 -39 -24q4 -4 12 -10.5t35 -23t55.5 -29.5t71.5 -23.5t86 -10.5q61 0 115 43t54 95zM696 -10q-3 2 -9 4.5l-18 7.5t-20 4.5t-8 -7.5q0 -11 13.5 -13.5t27.5 0.5zM741 299h-201q-103 0 -178.5 -60t-75.5 -138q0 -116 110 -116q28 0 58 11t53.5 25t52 41 t46 46t43 54t35.5 50t32.5 49t24.5 38z" />
<glyph unicode="&#xc3;" d="M1071 767q-17 -51 -67 -51q-17 0 -43 4t-41 4q-10 0 -55 -9q24 49 82 49q10 0 32.5 -3t36.5 -3q10 0 55 9zM1229 -15q0 -60 -59 -105.5t-124 -47.5q-31 -1 -61.5 3.5t-56.5 13t-47.5 17t-42 21t-31.5 19.5t-25 18l-14 11q-1 -1 -18 -10.5t-36 -20t-48 -24.5t-60.5 -26 t-66.5 -23t-73.5 -17.5t-73.5 -6.5q-173 0 -286.5 105t-113.5 266q0 162 97.5 261t257.5 99q25 0 58 -12v-12q-35 13 -58 13q-160 0 -252 -101t-92 -248q0 -155 110.5 -258t278.5 -103q73 0 164.5 31.5t146.5 63.5l55 31l-36 32q-4 -1 -11 -2t-24.5 -2.5t-31 0.5t-24.5 9.5 t-11 21.5q0 13 11 17.5t26 1.5t30.5 -7.5t26.5 -9.5l11 -5q9 0 41.5 29.5t36.5 39.5l12 27q12 27 21.5 50.5t21.5 56t19 61t7 47.5q-45 -9 -122 -9q-6 -9 -33 -50.5t-47 -71t-56 -72t-68.5 -69.5t-75.5 -47t-86 -20q-75 0 -116 36.5t-41 93.5q0 86 76.5 150.5t188.5 64.5 h249q30 65 78 126q41 52 86 93t79.5 63t64 36.5t45.5 19.5l15 4q10 0 10 -16q0 -9 -13 -21.5t-33 -32.5t-40 -48.5t-37 -80t-22 -116.5q8 3 21 8t46.5 26t59 46t46.5 69t21 95q0 107 -95.5 181t-233.5 74q-142 0 -240.5 -82.5t-98.5 -176.5q0 -41 11 -75t26 -53t30.5 -32 t26.5 -17l11 -5l-3 -13l-12.5 5t-27.5 18t-35.5 35t-28 56.5t-12.5 80.5q0 99 103.5 186t249.5 87q144 0 243.5 -78t99.5 -191q0 -55 -21.5 -102t-52.5 -75t-62 -48.5t-52 -28.5l-22 -8q-7 -58 -10 -71q-5 -19 -19.5 -49.5t-41 -71t-71 -82.5t-96.5 -71q24 -22 30 -28 q165 102 214.5 125.5t104.5 23.5q56 0 95 -34t39 -82zM1056 617q-19 0 -77 -45.5t-103 -96.5q-31 -35 -55.5 -72.5t-34 -56.5t-13.5 -30q64 0 112 9q7 43 29 89.5t47 81t49.5 63t37 43.5t8.5 15zM1215 -16q0 44 -34 73.5t-85 29.5q-53 0 -96.5 -20t-174.5 -100 q-25 -16 -39 -24q4 -4 12 -10.5t35 -23t55.5 -29.5t71.5 -23.5t86 -10.5q61 0 115 43t54 95zM696 -10q-3 2 -9 4.5l-18 7.5t-20 4.5t-8 -7.5q0 -11 13.5 -13.5t27.5 0.5zM741 299h-201q-103 0 -178.5 -60t-75.5 -138q0 -116 110 -116q28 0 58 11t53.5 25t52 41t46 46t43 54 t35.5 50t32.5 49t24.5 38z" />
<glyph unicode="&#xc4;" d="M948 749q12 0 19.5 -9t4.5 -21q-2 -11 -13.5 -20t-22.5 -9q-13 0 -19.5 8.5t-4.5 20.5t13 21t23 9zM1073 749q12 0 19.5 -9t4.5 -21q-2 -11 -13 -20t-23 -9t-19 8.5t-5 20.5t13 21t23 9zM1229 -15q0 -60 -59 -105.5t-124 -47.5q-31 -1 -61.5 3.5t-56.5 13t-47.5 17 t-42 21t-31.5 19.5t-25 18l-14 11q-1 -1 -18 -10.5t-36 -20t-48 -24.5t-60.5 -26t-66.5 -23t-73.5 -17.5t-73.5 -6.5q-173 0 -286.5 105t-113.5 266q0 162 97.5 261t257.5 99q25 0 58 -12v-12q-35 13 -58 13q-160 0 -252 -101t-92 -248q0 -155 110.5 -258t278.5 -103 q73 0 164.5 31.5t146.5 63.5l55 31l-36 32q-4 -1 -11 -2t-24.5 -2.5t-31 0.5t-24.5 9.5t-11 21.5q0 13 11 17.5t26 1.5t30.5 -7.5t26.5 -9.5l11 -5q9 0 41.5 29.5t36.5 39.5l12 27q12 27 21.5 50.5t21.5 56t19 61t7 47.5q-45 -9 -122 -9q-6 -9 -33 -50.5t-47 -71t-56 -72 t-68.5 -69.5t-75.5 -47t-86 -20q-75 0 -116 36.5t-41 93.5q0 86 76.5 150.5t188.5 64.5h249q30 65 78 126q41 52 86 93t79.5 63t64 36.5t45.5 19.5l15 4q10 0 10 -16q0 -9 -13 -21.5t-33 -32.5t-40 -48.5t-37 -80t-22 -116.5q8 3 21 8t46.5 26t59 46t46.5 69t21 95 q0 107 -95.5 181t-233.5 74q-142 0 -240.5 -82.5t-98.5 -176.5q0 -41 11 -75t26 -53t30.5 -32t26.5 -17l11 -5l-3 -13l-12.5 5t-27.5 18t-35.5 35t-28 56.5t-12.5 80.5q0 99 103.5 186t249.5 87q144 0 243.5 -78t99.5 -191q0 -55 -21.5 -102t-52.5 -75t-62 -48.5t-52 -28.5 l-22 -8q-7 -58 -10 -71q-5 -19 -19.5 -49.5t-41 -71t-71 -82.5t-96.5 -71q24 -22 30 -28q165 102 214.5 125.5t104.5 23.5q56 0 95 -34t39 -82zM1056 617q-19 0 -77 -45.5t-103 -96.5q-31 -35 -55.5 -72.5t-34 -56.5t-13.5 -30q64 0 112 9q7 43 29 89.5t47 81t49.5 63 t37 43.5t8.5 15zM1215 -16q0 44 -34 73.5t-85 29.5q-53 0 -96.5 -20t-174.5 -100q-25 -16 -39 -24q4 -4 12 -10.5t35 -23t55.5 -29.5t71.5 -23.5t86 -10.5q61 0 115 43t54 95zM696 -10q-3 2 -9 4.5l-18 7.5t-20 4.5t-8 -7.5q0 -11 13.5 -13.5t27.5 0.5zM741 299h-201 q-103 0 -178.5 -60t-75.5 -138q0 -116 110 -116q28 0 58 11t53.5 25t52 41t46 46t43 54t35.5 50t32.5 49t24.5 38z" />
<glyph unicode="&#xc5;" d="M1070 715q-5 -25 -21.5 -40t-42.5 -15q-43 0 -35 55q4 24 21 40.5t42 16.5q22 0 31.5 -16.5t4.5 -40.5zM1054 715q4 19 -3 29.5t-21 10.5q-31 0 -40 -40q-8 -38 21 -38q34 0 43 38zM1229 -15q0 -60 -59 -105.5t-124 -47.5q-31 -1 -61.5 3.5t-56.5 13t-47.5 17t-42 21 t-31.5 19.5t-25 18l-14 11q-1 -1 -18 -10.5t-36 -20t-48 -24.5t-60.5 -26t-66.5 -23t-73.5 -17.5t-73.5 -6.5q-173 0 -286.5 105t-113.5 266q0 162 97.5 261t257.5 99q25 0 58 -12v-12q-35 13 -58 13q-160 0 -252 -101t-92 -248q0 -155 110.5 -258t278.5 -103 q73 0 164.5 31.5t146.5 63.5l55 31l-36 32q-4 -1 -11 -2t-24.5 -2.5t-31 0.5t-24.5 9.5t-11 21.5q0 13 11 17.5t26 1.5t30.5 -7.5t26.5 -9.5l11 -5q9 0 41.5 29.5t36.5 39.5l12 27q12 27 21.5 50.5t21.5 56t19 61t7 47.5q-45 -9 -122 -9q-6 -9 -33 -50.5t-47 -71t-56 -72 t-68.5 -69.5t-75.5 -47t-86 -20q-75 0 -116 36.5t-41 93.5q0 86 76.5 150.5t188.5 64.5h249q30 65 78 126q41 52 86 93t79.5 63t64 36.5t45.5 19.5l15 4q10 0 10 -16q0 -9 -13 -21.5t-33 -32.5t-40 -48.5t-37 -80t-22 -116.5q8 3 21 8t46.5 26t59 46t46.5 69t21 95 q0 107 -95.5 181t-233.5 74q-142 0 -240.5 -82.5t-98.5 -176.5q0 -41 11 -75t26 -53t30.5 -32t26.5 -17l11 -5l-3 -13l-12.5 5t-27.5 18t-35.5 35t-28 56.5t-12.5 80.5q0 99 103.5 186t249.5 87q144 0 243.5 -78t99.5 -191q0 -55 -21.5 -102t-52.5 -75t-62 -48.5t-52 -28.5 l-22 -8q-7 -58 -10 -71q-5 -19 -19.5 -49.5t-41 -71t-71 -82.5t-96.5 -71q24 -22 30 -28q165 102 214.5 125.5t104.5 23.5q56 0 95 -34t39 -82zM1056 617q-19 0 -77 -45.5t-103 -96.5q-31 -35 -55.5 -72.5t-34 -56.5t-13.5 -30q64 0 112 9q7 43 29 89.5t47 81t49.5 63 t37 43.5t8.5 15zM1215 -16q0 44 -34 73.5t-85 29.5q-53 0 -96.5 -20t-174.5 -100q-25 -16 -39 -24q4 -4 12 -10.5t35 -23t55.5 -29.5t71.5 -23.5t86 -10.5q61 0 115 43t54 95zM696 -10q-3 2 -9 4.5l-18 7.5t-20 4.5t-8 -7.5q0 -11 13.5 -13.5t27.5 0.5zM741 299h-201 q-103 0 -178.5 -60t-75.5 -138q0 -116 110 -116q28 0 58 11t53.5 25t52 41t46 46t43 54t35.5 50t32.5 49t24.5 38z" />
<glyph unicode="&#xc6;" horiz-adv-x="1475" d="M1182 476v2q0 -61 22 -98q3 -4 20.5 -13t18.5 -20q0 -11 -12 -12q-21 -3 -40 23q-23 11 -49.5 11.5t-54.5 -15t-51 -38t-37.5 -57.5t-14.5 -74q0 -47 17 -89q43 18 94 18q7 0 21 -2q-9 20 -9 44q0 62 55.5 117t121.5 55q45 0 73.5 -33.5t28.5 -86.5q0 -75 -44.5 -136 t-113.5 -87q-6 -56 -63.5 -97.5t-118.5 -43.5q-31 -1 -61.5 3.5t-56.5 13t-47.5 17t-42 21t-31.5 19.5t-25 18l-14 11q-1 -1 -18 -10.5t-36 -20t-48 -24.5t-60.5 -26t-66.5 -23t-73.5 -17.5t-73.5 -6.5q-173 0 -286.5 105t-113.5 266q0 162 97.5 261t257.5 99q25 0 58 -12 v-12q-35 13 -58 13q-160 0 -252 -101t-92 -248q0 -155 110.5 -258t278.5 -103q73 0 164.5 31.5t146.5 63.5l55 31l-36 32q-4 -1 -11 -2t-24.5 -2.5t-31 0.5t-24.5 9.5t-11 21.5q0 13 11 17.5t26 1.5t30.5 -7.5t26.5 -9.5l11 -5q9 0 41.5 29.5t36.5 39.5l12 27 q12 27 21.5 50.5t21.5 56t19 61t7 47.5q-45 -9 -122 -9q-6 -9 -33 -50.5t-47 -71t-56 -72t-68.5 -69.5t-75.5 -47t-86 -20q-75 0 -116 36.5t-41 93.5q0 86 76.5 150.5t188.5 64.5h249q30 65 78 126q41 52 86 93t79.5 63t64 36.5t45.5 19.5l15 4q10 0 10 -16q0 -9 -12.5 -21 t-31 -30.5t-38.5 -45t-37 -74t-24 -107.5q62 37 150 31q-35 52 -35 98q0 67 54.5 113t131.5 46q55 0 94.5 -36t39.5 -84q0 -28 -19.5 -52t-50.5 -40l-7 8q64 26 64 83q0 35 -26.5 60t-63.5 25q-65 -1 -101.5 -46t-36.5 -106zM741 312h-201q-103 0 -178.5 -60t-75.5 -138 q0 -116 110 -116q28 0 58 11t53.5 25t52 41t46 46t43 54t35.5 50t32.5 49t24.5 38zM696 3q-3 2 -9 4.5l-18 7.5t-20 4.5t-8 -7.5q0 -11 13.5 -13.5t27.5 1.5zM1056 630q-19 0 -77 -45.5t-103 -96.5q-31 -35 -55.5 -72.5t-34 -56.5t-13.5 -30q64 0 112 9q7 43 29 89.5t47 81 t49.5 63t37 43.5t8.5 15zM1215 -1h-1q-1 37 -27 64q-39 1 -63 34q-14 3 -29 3q-47 0 -88 -17q21 -44 58 -69.5t80 -25.5q35 0 70 11zM939 49v-1q-7 -4 -153 -92q4 -4 12 -10.5t35 -23t55.5 -29.5t71.5 -23.5t86 -10.5q55 0 106.5 37t60.5 85q-35 -11 -68 -11q-137 0 -206 79 zM897 125q-65 -84 -152 -132q24 -22 30 -28q110 68 155 94q-22 30 -33 66zM1133 108l1 -2q34 -9 59 -32q34 1 57 21t31.5 51.5t11.5 52t3 40.5h12q1 -22 -2 -47.5t-12.5 -55t-32.5 -50.5t-56 -25q22 -26 23 -59q63 25 103 81.5t40 123.5q0 47 -24 76.5t-64 29.5 q-61 0 -112 -51.5t-51 -106.5q0 -26 13 -47z" />
<glyph unicode="&#xc7;" horiz-adv-x="933" d="M798 272q0 67 -66 67q-51 0 -105 -46t-88.5 -112t-34.5 -123q0 -24 11 -52q21 -14 41 -14q54 0 112.5 52t94 118t35.5 110zM1066 561q0 47 -90 47q-25 0 -58 -11t-62.5 -27t-55 -32.5t-40.5 -27.5l-15 -11q122 -18 171 -18q36 0 66.5 5.5t57 24.5t26.5 50zM1153 -254 l-1 2q0 -23 -22 -54q-3 3 -5 6q15 28 15 48q0 58 -79.5 103t-185.5 45q-67 0 -145 -24t-137.5 -53t-134 -53t-135.5 -24q-145 0 -233 99.5t-88 247.5q0 86 35 167t94.5 142.5t144 99t177.5 37.5q40 0 89.5 -4.5t78 -8.5t29.5 -3q7 4 19.5 11t50.5 24.5t75 31t87 24.5t93 11 q101 0 101 -58q0 -36 -42 -63.5t-119 -27.5q-25 0 -73 5t-84 9l-35 5q-76 -62 -129 -126q-56 -68 -92 -141.5t-37 -126.5q0 -38 22 -60q-5 36 11.5 89.5t49 106t87.5 89.5t117 37q37 0 58 -24.5t21 -67.5q0 -77 -52.5 -150t-121.5 -111.5t-120 -28.5q23 -31 63 -31 q45 0 96 35t80 70l28 35l8 -9q-4 -6 -11.5 -15.5t-30.5 -34.5t-46.5 -44.5t-57.5 -35t-66 -15.5q-44 0 -81 37l-11 -18q36 -7 36 -40q0 -19 -18 -32.5t-40 -13.5q-29 0 -60 16q-11 6 -4 11q6 4 13 0q7 -7 39 -6.5t32 23.5q0 17 -50 12l8 26q14 6 29 6l15 28l-4 5 q-4 2 -10.5 5t-22.5 17t-28.5 32t-23 51t-10.5 72q0 53 21.5 106t50.5 91t64.5 71.5t57.5 50t35 23.5q0 2 -31.5 6t-76.5 7.5t-76 3.5q-121 0 -223.5 -63.5t-159.5 -163.5t-57 -208q0 -141 85 -238.5t225 -97.5q55 0 129 24t136 53t142 53t145 24q116 0 196.5 -45.5 t80.5 -113.5z" />
<glyph unicode="&#xc8;" horiz-adv-x="973" d="M672 779q17 0 39.5 -13t60 -38t68.5 -42v-7q-32 17 -82 33.5t-75.5 28.5t-25.5 27q0 11 15 11zM682 378h-1q3 -4 20.5 -13t18.5 -20q0 -11 -12 -12q-21 -3 -40 23q-23 11 -49.5 11.5t-54.5 -15t-51 -38t-37.5 -57.5t-14.5 -74q0 -81 47 -139t114 -58q92 0 159.5 66 t67.5 155q0 47 -24 76.5t-64 29.5q-61 0 -112 -51.5t-51 -106.5q0 -34 20.5 -57t49.5 -23q28 0 49 14.5t31.5 34t16.5 45.5t7 41t1 30h12q1 -23 -2.5 -49.5t-14.5 -58t-37 -51.5t-63 -20q-36 0 -60 27.5t-24 66.5q0 62 55.5 117t121.5 55q45 0 73.5 -33.5t28.5 -86.5 q0 -98 -72.5 -168.5t-168.5 -70.5q-121 0 -188.5 62t-67.5 160q0 96 66 160.5t182 55.5q-27 39 -33 81q-81 23 -191 23q-168 0 -273 -63t-105 -152q0 -6 6.5 -29t8.5 -26l-12 -8q-16 29 -16 62q0 97 108 163t283 66q114 0 191 -18q-1 68 53 113.5t132 44.5q55 -1 94.5 -36.5 t39.5 -83.5q0 -42 -40 -74.5t-94 -32.5q-40 0 -105 24q2 -49 21 -82zM660 476h-1q60 -28 105 -28t83.5 27.5t38.5 67.5q0 35 -26.5 60t-63.5 25q-64 -1 -98.5 -45.5t-37.5 -106.5z" />
<glyph unicode="&#xc9;" horiz-adv-x="973" d="M858 769q0 -15 -25.5 -27t-75.5 -28.5t-82 -33.5v7q31 17 68.5 42t60 38t39.5 13q15 0 15 -11zM682 378h-1q3 -4 20.5 -13t18.5 -20q0 -11 -12 -12q-21 -3 -40 23q-23 11 -49.5 11.5t-54.5 -15t-51 -38t-37.5 -57.5t-14.5 -74q0 -81 47 -139t114 -58q92 0 159.5 66 t67.5 155q0 47 -24 76.5t-64 29.5q-61 0 -112 -51.5t-51 -106.5q0 -34 20.5 -57t49.5 -23q28 0 49 14.5t31.5 34t16.5 45.5t7 41t1 30h12q1 -23 -2.5 -49.5t-14.5 -58t-37 -51.5t-63 -20q-36 0 -60 27.5t-24 66.5q0 62 55.5 117t121.5 55q45 0 73.5 -33.5t28.5 -86.5 q0 -98 -72.5 -168.5t-168.5 -70.5q-121 0 -188.5 62t-67.5 160q0 96 66 160.5t182 55.5q-27 39 -33 81q-81 23 -191 23q-168 0 -273 -63t-105 -152q0 -6 6.5 -29t8.5 -26l-12 -8q-16 29 -16 62q0 97 108 163t283 66q114 0 191 -18q-1 68 53 113.5t132 44.5q55 -1 94.5 -36.5 t39.5 -83.5q0 -42 -40 -74.5t-94 -32.5q-40 0 -105 24q2 -49 21 -82zM660 476h-1q60 -28 105 -28t83.5 27.5t38.5 67.5q0 35 -26.5 60t-63.5 25q-64 -1 -98.5 -45.5t-37.5 -106.5z" />
<glyph unicode="&#xca;" horiz-adv-x="973" d="M850 692q6 -6 0 -6l-6 3q-45 30 -74 52q-13 -8 -60 -29t-59 -27q-7 -4 -8 -1t3 6q16 13 58.5 40.5t56.5 38.5q9 8 17 0q65 -70 72 -77zM682 378h-1q3 -4 20.5 -13t18.5 -20q0 -11 -12 -12q-21 -3 -40 23q-23 11 -49.5 11.5t-54.5 -15t-51 -38t-37.5 -57.5t-14.5 -74 q0 -81 47 -139t114 -58q92 0 159.5 66t67.5 155q0 47 -24 76.5t-64 29.5q-61 0 -112 -51.5t-51 -106.5q0 -34 20.5 -57t49.5 -23q28 0 49 14.5t31.5 34t16.5 45.5t7 41t1 30h12q1 -23 -2.5 -49.5t-14.5 -58t-37 -51.5t-63 -20q-36 0 -60 27.5t-24 66.5q0 62 55.5 117 t121.5 55q45 0 73.5 -33.5t28.5 -86.5q0 -98 -72.5 -168.5t-168.5 -70.5q-121 0 -188.5 62t-67.5 160q0 96 66 160.5t182 55.5q-27 39 -33 81q-81 23 -191 23q-168 0 -273 -63t-105 -152q0 -6 6.5 -29t8.5 -26l-12 -8q-16 29 -16 62q0 97 108 163t283 66q114 0 191 -18 q-1 68 53 113.5t132 44.5q55 -1 94.5 -36.5t39.5 -83.5q0 -42 -40 -74.5t-94 -32.5q-40 0 -105 24q2 -49 21 -82zM660 476h-1q60 -28 105 -28t83.5 27.5t38.5 67.5q0 35 -26.5 60t-63.5 25q-64 -1 -98.5 -45.5t-37.5 -106.5z" />
<glyph unicode="&#xcb;" horiz-adv-x="973" d="M713 757q12 0 19.5 -9t4.5 -21q-2 -11 -13.5 -20t-22.5 -9q-13 0 -19.5 8.5t-4.5 20.5t13 21t23 9zM838 757q12 0 19.5 -9t4.5 -21q-2 -11 -13 -20t-23 -9t-19 8.5t-5 20.5t13 21t23 9zM682 378h-1q3 -4 20.5 -13t18.5 -20q0 -11 -12 -12q-21 -3 -40 23 q-23 11 -49.5 11.5t-54.5 -15t-51 -38t-37.5 -57.5t-14.5 -74q0 -81 47 -139t114 -58q92 0 159.5 66t67.5 155q0 47 -24 76.5t-64 29.5q-61 0 -112 -51.5t-51 -106.5q0 -34 20.5 -57t49.5 -23q28 0 49 14.5t31.5 34t16.5 45.5t7 41t1 30h12q1 -23 -2.5 -49.5t-14.5 -58 t-37 -51.5t-63 -20q-36 0 -60 27.5t-24 66.5q0 62 55.5 117t121.5 55q45 0 73.5 -33.5t28.5 -86.5q0 -98 -72.5 -168.5t-168.5 -70.5q-121 0 -188.5 62t-67.5 160q0 96 66 160.5t182 55.5q-27 39 -33 81q-81 23 -191 23q-168 0 -273 -63t-105 -152q0 -6 6.5 -29t8.5 -26 l-12 -8q-16 29 -16 62q0 97 108 163t283 66q114 0 191 -18q-1 68 53 113.5t132 44.5q55 -1 94.5 -36.5t39.5 -83.5q0 -42 -40 -74.5t-94 -32.5q-40 0 -105 24q2 -49 21 -82zM660 476h-1q60 -28 105 -28t83.5 27.5t38.5 67.5q0 35 -26.5 60t-63.5 25q-64 -1 -98.5 -45.5 t-37.5 -106.5z" />
<glyph unicode="&#xcc;" horiz-adv-x="789" d="M718 779q17 0 39.5 -13t60 -38t68.5 -42v-7q-32 17 -82 33.5t-75.5 28.5t-25.5 27q0 11 15 11zM1032 609q-70 -1 -120 -18q-52 -17 -96.5 -57t-71 -85t-45 -91t-26 -74t-7.5 -36q0 -3 20 5.5t46.5 24t40.5 30.5q30 34 57 115l9 -4q0 -4 -7 -25t-21.5 -50t-30.5 -46 q-23 -25 -58.5 -42.5t-59.5 -22.5q-47 -138 -135 -199.5t-224 -61.5q-48 0 -96 15t-93 46.5t-73.5 90t-28.5 135.5q-9 47 -9 107q0 131 92.5 221.5t207.5 90.5q26 0 51.5 -5.5t37.5 -10.5l12 -6l-2 -9q-47 22 -100 22q-108 0 -199 -87.5t-91 -215.5l8 -72q2 9 6.5 24 t25.5 53.5t50 67.5t84 53t124 24q87 0 156 -51l3 -3q21 62 70 105q101 95 291 95q57 0 114.5 -11t80.5 -24q3 -2 4 -5t1.5 -6.5t1.5 -6.5zM1014 615q-3 6 -27.5 15t-68 16.5t-88.5 7.5q-128 0 -225 -53t-126 -148q1 -2 7.5 -10.5t10 -15t9 -17t9.5 -24t7 -28.5l8 -87 q33 -24 49 -27l8 24q8 23 14.5 39.5t20 47t29 55.5t36 53.5t47.5 54t57 45.5q41 27 86 37t137 15zM519 288q-1 7 -2.5 31.5t-4.5 36.5q-11 48 -36 84q3 -51 9 -80q6 -27 34 -72zM519 266q-34 46 -45 91q-9 35 -9 94q-7 6 -19 15.5t-52.5 25t-83.5 15.5q-48 0 -89 -12 t-68.5 -28.5t-50.5 -42.5t-35.5 -45.5t-23 -47t-13 -37t-5.5 -24.5q-1 -3 -1 -4q2 -8 7.5 -22t25 -49t44.5 -61.5t68.5 -48.5t94.5 -22q32 0 60 5.5t50 16.5t40.5 23.5t33 29.5t25 30.5t19 31.5t13 28t9.5 23.5t5 14.5zM575 232q-29 10 -47 26q-68 -202 -264 -204 q-31 0 -59 7t-48.5 17t-40 26.5t-31.5 30.5t-24.5 33t-17.5 29.5t-12.5 26t-7.5 16.5q5 -70 33.5 -122.5t70 -80.5t86 -41t90.5 -13q60 0 146.5 76t125.5 173z" />
<glyph unicode="&#xcd;" horiz-adv-x="789" d="M912 769q0 -15 -25.5 -27t-75.5 -28.5t-82 -33.5v7q31 17 68.5 42t60 38t39.5 13q15 0 15 -11zM1032 609q-70 -1 -120 -18q-52 -17 -96.5 -57t-71 -85t-45 -91t-26 -74t-7.5 -36q0 -3 20 5.5t46.5 24t40.5 30.5q30 34 57 115l9 -4q0 -4 -7 -25t-21.5 -50t-30.5 -46 q-23 -25 -58.5 -42.5t-59.5 -22.5q-47 -138 -135 -199.5t-224 -61.5q-48 0 -96 15t-93 46.5t-73.5 90t-28.5 135.5q-9 47 -9 107q0 131 92.5 221.5t207.5 90.5q26 0 51.5 -5.5t37.5 -10.5l12 -6l-2 -9q-47 22 -100 22q-108 0 -199 -87.5t-91 -215.5l8 -72q2 9 6.5 24 t25.5 53.5t50 67.5t84 53t124 24q87 0 156 -51l3 -3q21 62 70 105q101 95 291 95q57 0 114.5 -11t80.5 -24q3 -2 4 -5t1.5 -6.5t1.5 -6.5zM1014 615q-3 6 -27.5 15t-68 16.5t-88.5 7.5q-128 0 -225 -53t-126 -148q1 -2 7.5 -10.5t10 -15t9 -17t9.5 -24t7 -28.5l8 -87 q33 -24 49 -27l8 24q8 23 14.5 39.5t20 47t29 55.5t36 53.5t47.5 54t57 45.5q41 27 86 37t137 15zM519 288q-1 7 -2.5 31.5t-4.5 36.5q-11 48 -36 84q3 -51 9 -80q6 -27 34 -72zM519 266q-34 46 -45 91q-9 35 -9 94q-7 6 -19 15.5t-52.5 25t-83.5 15.5q-48 0 -89 -12 t-68.5 -28.5t-50.5 -42.5t-35.5 -45.5t-23 -47t-13 -37t-5.5 -24.5q-1 -3 -1 -4q2 -8 7.5 -22t25 -49t44.5 -61.5t68.5 -48.5t94.5 -22q32 0 60 5.5t50 16.5t40.5 23.5t33 29.5t25 30.5t19 31.5t13 28t9.5 23.5t5 14.5zM575 232q-29 10 -47 26q-68 -202 -264 -204 q-31 0 -59 7t-48.5 17t-40 26.5t-31.5 30.5t-24.5 33t-17.5 29.5t-12.5 26t-7.5 16.5q5 -70 33.5 -122.5t70 -80.5t86 -41t90.5 -13q60 0 146.5 76t125.5 173z" />
<glyph unicode="&#xce;" horiz-adv-x="789" d="M916 692q6 -6 0 -6l-6 3q-45 30 -74 52q-13 -8 -60 -29t-59 -27q-7 -4 -8 -1t3 6q16 13 58.5 40.5t56.5 38.5q9 8 17 0q65 -70 72 -77zM1032 609q-70 -1 -120 -18q-52 -17 -96.5 -57t-71 -85t-45 -91t-26 -74t-7.5 -36q0 -3 20 5.5t46.5 24t40.5 30.5q30 34 57 115l9 -4 q0 -4 -7 -25t-21.5 -50t-30.5 -46q-23 -25 -58.5 -42.5t-59.5 -22.5q-47 -138 -135 -199.5t-224 -61.5q-48 0 -96 15t-93 46.5t-73.5 90t-28.5 135.5q-9 47 -9 107q0 131 92.5 221.5t207.5 90.5q26 0 51.5 -5.5t37.5 -10.5l12 -6l-2 -9q-47 22 -100 22q-108 0 -199 -87.5 t-91 -215.5l8 -72q2 9 6.5 24t25.5 53.5t50 67.5t84 53t124 24q87 0 156 -51l3 -3q21 62 70 105q101 95 291 95q57 0 114.5 -11t80.5 -24q3 -2 4 -5t1.5 -6.5t1.5 -6.5zM1014 615q-3 6 -27.5 15t-68 16.5t-88.5 7.5q-128 0 -225 -53t-126 -148q1 -2 7.5 -10.5t10 -15t9 -17 t9.5 -24t7 -28.5l8 -87q33 -24 49 -27l8 24q8 23 14.5 39.5t20 47t29 55.5t36 53.5t47.5 54t57 45.5q41 27 86 37t137 15zM519 288q-1 7 -2.5 31.5t-4.5 36.5q-11 48 -36 84q3 -51 9 -80q6 -27 34 -72zM519 266q-34 46 -45 91q-9 35 -9 94q-7 6 -19 15.5t-52.5 25 t-83.5 15.5q-48 0 -89 -12t-68.5 -28.5t-50.5 -42.5t-35.5 -45.5t-23 -47t-13 -37t-5.5 -24.5q-1 -3 -1 -4q2 -8 7.5 -22t25 -49t44.5 -61.5t68.5 -48.5t94.5 -22q32 0 60 5.5t50 16.5t40.5 23.5t33 29.5t25 30.5t19 31.5t13 28t9.5 23.5t5 14.5zM575 232q-29 10 -47 26 q-68 -202 -264 -204q-31 0 -59 7t-48.5 17t-40 26.5t-31.5 30.5t-24.5 33t-17.5 29.5t-12.5 26t-7.5 16.5q5 -70 33.5 -122.5t70 -80.5t86 -41t90.5 -13q60 0 146.5 76t125.5 173z" />
<glyph unicode="&#xcf;" horiz-adv-x="789" d="M770 757q12 0 19.5 -9t4.5 -21q-2 -11 -13.5 -20t-22.5 -9q-13 0 -19.5 8.5t-4.5 20.5t13 21t23 9zM895 757q12 0 19.5 -9t4.5 -21q-2 -11 -13 -20t-23 -9t-19 8.5t-5 20.5t13 21t23 9zM1032 609q-70 -1 -120 -18q-52 -17 -96.5 -57t-71 -85t-45 -91t-26 -74t-7.5 -36 q0 -3 20 5.5t46.5 24t40.5 30.5q30 34 57 115l9 -4q0 -4 -7 -25t-21.5 -50t-30.5 -46q-23 -25 -58.5 -42.5t-59.5 -22.5q-47 -138 -135 -199.5t-224 -61.5q-48 0 -96 15t-93 46.5t-73.5 90t-28.5 135.5q-9 47 -9 107q0 131 92.5 221.5t207.5 90.5q26 0 51.5 -5.5t37.5 -10.5 l12 -6l-2 -9q-47 22 -100 22q-108 0 -199 -87.5t-91 -215.5l8 -72q2 9 6.5 24t25.5 53.5t50 67.5t84 53t124 24q87 0 156 -51l3 -3q21 62 70 105q101 95 291 95q57 0 114.5 -11t80.5 -24q3 -2 4 -5t1.5 -6.5t1.5 -6.5zM1014 615q-3 6 -27.5 15t-68 16.5t-88.5 7.5 q-128 0 -225 -53t-126 -148q1 -2 7.5 -10.5t10 -15t9 -17t9.5 -24t7 -28.5l8 -87q33 -24 49 -27l8 24q8 23 14.5 39.5t20 47t29 55.5t36 53.5t47.5 54t57 45.5q41 27 86 37t137 15zM519 288q-1 7 -2.5 31.5t-4.5 36.5q-11 48 -36 84q3 -51 9 -80q6 -27 34 -72zM519 266 q-34 46 -45 91q-9 35 -9 94q-7 6 -19 15.5t-52.5 25t-83.5 15.5q-48 0 -89 -12t-68.5 -28.5t-50.5 -42.5t-35.5 -45.5t-23 -47t-13 -37t-5.5 -24.5q-1 -3 -1 -4q2 -8 7.5 -22t25 -49t44.5 -61.5t68.5 -48.5t94.5 -22q32 0 60 5.5t50 16.5t40.5 23.5t33 29.5t25 30.5t19 31.5 t13 28t9.5 23.5t5 14.5zM575 232q-29 10 -47 26q-68 -202 -264 -204q-31 0 -59 7t-48.5 17t-40 26.5t-31.5 30.5t-24.5 33t-17.5 29.5t-12.5 26t-7.5 16.5q5 -70 33.5 -122.5t70 -80.5t86 -41t90.5 -13q60 0 146.5 76t125.5 173z" />
<glyph unicode="&#xd1;" horiz-adv-x="1041" d="M1179 791q-17 -51 -67 -51q-17 0 -43 4t-41 4q-10 0 -55 -9q24 49 82 49q10 0 32.5 -3t36.5 -3q10 0 55 9zM1355 684q0 -27 -30 -46.5t-78 -19.5q-22 0 -45.5 4t-35.5 8l-12 5q-20 -32 -41 -72q-16 -31 -55.5 -110t-76 -144.5t-94.5 -158.5q-84 -136 -100 -153 q-8 -9 -13 -9q-13 0 -13 11q0 1 9.5 23.5t19.5 54.5t10 55q0 34 -8.5 107t-6.5 121q1 55 15 150l-159 -315q-76 -146 -162 -215t-195 -69q-128 0 -206 70.5t-78 185.5q0 135 97 231t229 96l67 -5q5 69 51.5 138.5t110.5 98.5q37 17 78.5 22t119.5 5q73 0 211.5 -42.5 t183.5 -63.5q73 81 141 81q30 0 48 -12t18 -32zM1346 684q0 15 -18.5 25t-38.5 10q-38 0 -73.5 -24t-55.5 -51l10 -3q10 -3 19 -5.5t25 -4.5t33 -2q41 0 70 15t29 40zM1143 638q-31 12 -80.5 29.5t-155 47t-154.5 29.5q-87 0 -186 -48q-38 -18 -67 -45t-46.5 -57 t-27.5 -56.5t-15 -54.5q59 -25 85 -58.5t46 -103.5q138 16 138 141q0 13 -4 31t-8 29l-5 12l9 2q18 -48 18 -74q0 -135 -146 -154q0 -62 -11 -101t-42 -85q-39 -55 -100.5 -88.5t-120.5 -33.5q-66 0 -110 45.5t-44 115.5q0 89 61 157.5t140 68.5q56 0 96 -38.5t40 -93.5 q0 -32 -22 -76q-8 -2 -11 -2q23 49 23 78q0 49 -37.5 86t-88.5 37q-79 0 -135 -69.5t-56 -147.5q0 -66 41 -109.5t103 -43.5q54 0 116 34t97 84q52 75 52 183q-61 9 -102.5 58.5t-39.5 111.5q-43 7 -67 7q-131 0 -224.5 -93t-93.5 -226q0 -111 76.5 -179.5t199.5 -68.5 q203 0 346 276q28 53 65 127t62.5 126.5t30.5 61.5q42 74 148 166l2 2q-80 27 -132 27q-100 0 -184.5 -46.5t-84.5 -95.5q0 -12 8 -23t16 -16l8 -5l-2 -9l-11 5.5t-18 17t-11 30.5q0 55 86.5 103t192.5 48q60 0 154 -31q-69 -57 -92 -92.5t-23 -87.5q0 -9 20 -129t20 -125 q0 -41 -34 -138q34 54 60.5 98.5t43.5 73t39 70t31 60t37 74.5t42 83zM533 321q-19 65 -41.5 96.5t-80.5 55.5q-3 -62 38 -102.5t84 -49.5z" />
<glyph unicode="&#xd2;" horiz-adv-x="600" d="M345 779q17 0 39.5 -13t60 -38t68.5 -42v-7q-32 17 -82 33.5t-75.5 28.5t-25.5 27q0 11 15 11zM570 476q0 -43 -24.5 -120t-54.5 -130q-65 -113 -156.5 -181.5t-176.5 -68.5q-69 0 -113.5 53t-44.5 129q0 87 57 193t150 193q99 85 171 94h42q-70 -34 -102.5 -61.5 t-78.5 -89.5q-165 -234 -165 -405q0 -44 24 -72t60 -28q57 0 122.5 61.5t126.5 171.5q108 195 108 315q0 81 -56 81q-68 0 -142.5 -93t-74.5 -184q0 -35 17.5 -55t45.5 -20q44 0 82 36.5t56.5 79t18.5 71.5q0 24 -11.5 41.5t-25.5 17.5q-27 0 -58 -36l-7 7q39 39 65 39 q20 0 34 -21t14 -48q0 -64 -50.5 -131t-117.5 -67q-33 0 -53.5 23.5t-20.5 62.5q0 58 34.5 125t89 114t104.5 47q44 0 77.5 -43.5t33.5 -100.5z" />
<glyph unicode="&#xd3;" horiz-adv-x="600" d="M535 769q0 -15 -25.5 -27t-75.5 -28.5t-82 -33.5v7q31 17 68.5 42t60 38t39.5 13q15 0 15 -11zM570 476q0 -43 -24.5 -120t-54.5 -130q-65 -113 -156.5 -181.5t-176.5 -68.5q-69 0 -113.5 53t-44.5 129q0 87 57 193t150 193q99 85 171 94h42q-70 -34 -102.5 -61.5 t-78.5 -89.5q-165 -234 -165 -405q0 -44 24 -72t60 -28q57 0 122.5 61.5t126.5 171.5q108 195 108 315q0 81 -56 81q-68 0 -142.5 -93t-74.5 -184q0 -35 17.5 -55t45.5 -20q44 0 82 36.5t56.5 79t18.5 71.5q0 24 -11.5 41.5t-25.5 17.5q-27 0 -58 -36l-7 7q39 39 65 39 q20 0 34 -21t14 -48q0 -64 -50.5 -131t-117.5 -67q-33 0 -53.5 23.5t-20.5 62.5q0 58 34.5 125t89 114t104.5 47q44 0 77.5 -43.5t33.5 -100.5z" />
<glyph unicode="&#xd4;" horiz-adv-x="600" d="M548 692q6 -6 0 -6l-6 3q-45 30 -74 52q-13 -8 -60 -29t-59 -27q-7 -4 -8 -1t3 6q16 13 58.5 40.5t56.5 38.5q9 8 17 0q65 -70 72 -77zM570 476q0 -43 -24.5 -120t-54.5 -130q-65 -113 -156.5 -181.5t-176.5 -68.5q-69 0 -113.5 53t-44.5 129q0 87 57 193t150 193 q99 85 171 94h42q-70 -34 -102.5 -61.5t-78.5 -89.5q-165 -234 -165 -405q0 -44 24 -72t60 -28q57 0 122.5 61.5t126.5 171.5q108 195 108 315q0 81 -56 81q-68 0 -142.5 -93t-74.5 -184q0 -35 17.5 -55t45.5 -20q44 0 82 36.5t56.5 79t18.5 71.5q0 24 -11.5 41.5 t-25.5 17.5q-27 0 -58 -36l-7 7q39 39 65 39q20 0 34 -21t14 -48q0 -64 -50.5 -131t-117.5 -67q-33 0 -53.5 23.5t-20.5 62.5q0 58 34.5 125t89 114t104.5 47q44 0 77.5 -43.5t33.5 -100.5z" />
<glyph unicode="&#xd5;" horiz-adv-x="600" d="M541 757q-17 -51 -67 -51q-17 0 -43 4t-41 4q-10 0 -55 -9q24 49 82 49q10 0 32.5 -3.5t36.5 -3.5q5 0 55 10zM570 476q0 -43 -24.5 -120t-54.5 -130q-65 -113 -156.5 -181.5t-176.5 -68.5q-69 0 -113.5 53t-44.5 129q0 87 57 193t150 193q99 85 171 94h42 q-70 -34 -102.5 -61.5t-78.5 -89.5q-165 -234 -165 -405q0 -44 24 -72t60 -28q57 0 122.5 61.5t126.5 171.5q108 195 108 315q0 81 -56 81q-68 0 -142.5 -93t-74.5 -184q0 -35 17.5 -55t45.5 -20q44 0 82 36.5t56.5 79t18.5 71.5q0 24 -11.5 41.5t-25.5 17.5q-27 0 -58 -36 l-7 7q39 39 65 39q20 0 34 -21t14 -48q0 -64 -50.5 -131t-117.5 -67q-33 0 -53.5 23.5t-20.5 62.5q0 58 34.5 125t89 114t104.5 47q44 0 77.5 -43.5t33.5 -100.5z" />
<glyph unicode="&#xd6;" horiz-adv-x="600" d="M390 757q12 0 19.5 -9t4.5 -21q-2 -11 -13.5 -20t-22.5 -9q-13 0 -19.5 8.5t-4.5 20.5t13 21t23 9zM515 757q12 0 19.5 -9t4.5 -21q-2 -11 -13 -20t-23 -9t-19 8.5t-5 20.5t13 21t23 9zM570 476q0 -43 -24.5 -120t-54.5 -130q-65 -113 -156.5 -181.5t-176.5 -68.5 q-69 0 -113.5 53t-44.5 129q0 87 57 193t150 193q99 85 171 94h42q-70 -34 -102.5 -61.5t-78.5 -89.5q-165 -234 -165 -405q0 -44 24 -72t60 -28q57 0 122.5 61.5t126.5 171.5q108 195 108 315q0 81 -56 81q-68 0 -142.5 -93t-74.5 -184q0 -35 17.5 -55t45.5 -20 q44 0 82 36.5t56.5 79t18.5 71.5q0 24 -11.5 41.5t-25.5 17.5q-27 0 -58 -36l-7 7q39 39 65 39q20 0 34 -21t14 -48q0 -64 -50.5 -131t-117.5 -67q-33 0 -53.5 23.5t-20.5 62.5q0 58 34.5 125t89 114t104.5 47q44 0 77.5 -43.5t33.5 -100.5z" />
<glyph unicode="&#xd7;" horiz-adv-x="303" d="M210 224l56 -116h-29l-47 96l-104 -96h-32l126 117l-59 122h30l49 -103l111 103h32z" />
<glyph unicode="&#xd9;" horiz-adv-x="865" d="M562 779q17 0 39.5 -13t60 -38t68.5 -42v-7q-32 17 -82 33.5t-75.5 28.5t-25.5 27q0 11 15 11zM1543 423q0 -45 -45.5 -80t-105.5 -35q-61 0 -124.5 21.5t-110 52t-85 60.5t-58.5 52l-19 21q-6 -5 -17 -13.5t-42.5 -36.5t-60 -57.5t-64 -74t-61.5 -88.5 q-128 -217 -107 -243q3 -4 11 -4q27 0 54.5 17.5t41.5 34.5l15 18v-18q-5 -8 -15 -19.5t-42.5 -31t-68.5 -19.5q-59 0 -59 99q-81 -99 -142 -99q-32 0 -57 32.5t-25 74.5q0 46 31 104t68 103.5t68 94t31 78.5q0 76 -49.5 118t-132.5 42q-82 0 -152 -27.5t-113.5 -70t-68 -91 t-24.5 -93.5q0 -63 46.5 -108.5t109.5 -45.5q94 0 163 39l3 -6q-65 -42 -166 -42q-69 0 -117 47.5t-48 115.5q0 47 24.5 97t68.5 94t116 72t158 28q102 0 166.5 -59t64.5 -168q0 -11 -1.5 -21.5t-2.5 -18t-6 -18t-7 -15t-10 -16.5t-10.5 -15t-13.5 -18t-14 -19 q-8 -10 -34.5 -44.5t-39 -52.5t-30 -45.5t-25.5 -49t-8 -38.5q0 -20 10 -33.5t27 -13.5q33 0 71.5 33.5t68.5 77.5q12 18 38 62.5t52.5 83t66.5 88.5t100.5 102.5t135.5 100.5q-15 11 -38.5 27t-81.5 43t-96 27h-54v6h46q82 0 131 -17.5t121 -73.5q111 42 154.5 53t124.5 11 q119 0 192 -55.5t73 -136.5zM1533 423q0 78 -71.5 130t-183.5 52q-56 0 -121 -17.5t-103 -35.5l-37 -18q9 -9 24 -23.5t60 -51.5t88 -65.5t100 -52t103 -23.5q57 0 99 33.5t42 71.5z" />
<glyph unicode="&#xda;" horiz-adv-x="865" d="M858 769q0 -15 -25.5 -27t-75.5 -28.5t-82 -33.5v7q31 17 68.5 42t60 38t39.5 13q15 0 15 -11zM1543 423q0 -45 -45.5 -80t-105.5 -35q-61 0 -124.5 21.5t-110 52t-85 60.5t-58.5 52l-19 21q-6 -5 -17 -13.5t-42.5 -36.5t-60 -57.5t-64 -74t-61.5 -88.5 q-128 -217 -107 -243q3 -4 11 -4q27 0 54.5 17.5t41.5 34.5l15 18v-18q-5 -8 -15 -19.5t-42.5 -31t-68.5 -19.5q-59 0 -59 99q-81 -99 -142 -99q-32 0 -57 32.5t-25 74.5q0 46 31 104t68 103.5t68 94t31 78.5q0 76 -49.5 118t-132.5 42q-82 0 -152 -27.5t-113.5 -70t-68 -91 t-24.5 -93.5q0 -63 46.5 -108.5t109.5 -45.5q94 0 163 39l3 -6q-65 -42 -166 -42q-69 0 -117 47.5t-48 115.5q0 47 24.5 97t68.5 94t116 72t158 28q102 0 166.5 -59t64.5 -168q0 -11 -1.5 -21.5t-2.5 -18t-6 -18t-7 -15t-10 -16.5t-10.5 -15t-13.5 -18t-14 -19 q-8 -10 -34.5 -44.5t-39 -52.5t-30 -45.5t-25.5 -49t-8 -38.5q0 -20 10 -33.5t27 -13.5q33 0 71.5 33.5t68.5 77.5q12 18 38 62.5t52.5 83t66.5 88.5t100.5 102.5t135.5 100.5q-15 11 -38.5 27t-81.5 43t-96 27h-54v6h46q82 0 131 -17.5t121 -73.5q111 42 154.5 53t124.5 11 q119 0 192 -55.5t73 -136.5zM1533 423q0 78 -71.5 130t-183.5 52q-56 0 -121 -17.5t-103 -35.5l-37 -18q9 -9 24 -23.5t60 -51.5t88 -65.5t100 -52t103 -23.5q57 0 99 33.5t42 71.5z" />
<glyph unicode="&#xdb;" horiz-adv-x="865" d="M850 692q6 -6 0 -6l-6 3q-45 30 -74 52q-13 -8 -60 -29t-59 -27q-7 -4 -8 -1t3 6q16 13 58.5 40.5t56.5 38.5q9 8 17 0q65 -70 72 -77zM1543 423q0 -45 -45.5 -80t-105.5 -35q-61 0 -124.5 21.5t-110 52t-85 60.5t-58.5 52l-19 21q-6 -5 -17 -13.5t-42.5 -36.5t-60 -57.5 t-64 -74t-61.5 -88.5q-128 -217 -107 -243q3 -4 11 -4q27 0 54.5 17.5t41.5 34.5l15 18v-18q-5 -8 -15 -19.5t-42.5 -31t-68.5 -19.5q-59 0 -59 99q-81 -99 -142 -99q-32 0 -57 32.5t-25 74.5q0 46 31 104t68 103.5t68 94t31 78.5q0 76 -49.5 118t-132.5 42 q-82 0 -152 -27.5t-113.5 -70t-68 -91t-24.5 -93.5q0 -63 46.5 -108.5t109.5 -45.5q94 0 163 39l3 -6q-65 -42 -166 -42q-69 0 -117 47.5t-48 115.5q0 47 24.5 97t68.5 94t116 72t158 28q102 0 166.5 -59t64.5 -168q0 -11 -1.5 -21.5t-2.5 -18t-6 -18t-7 -15t-10 -16.5 t-10.5 -15t-13.5 -18t-14 -19q-8 -10 -34.5 -44.5t-39 -52.5t-30 -45.5t-25.5 -49t-8 -38.5q0 -20 10 -33.5t27 -13.5q33 0 71.5 33.5t68.5 77.5q12 18 38 62.5t52.5 83t66.5 88.5t100.5 102.5t135.5 100.5q-15 11 -38.5 27t-81.5 43t-96 27h-54v6h46q82 0 131 -17.5 t121 -73.5q111 42 154.5 53t124.5 11q119 0 192 -55.5t73 -136.5zM1533 423q0 78 -71.5 130t-183.5 52q-56 0 -121 -17.5t-103 -35.5l-37 -18q9 -9 24 -23.5t60 -51.5t88 -65.5t100 -52t103 -23.5q57 0 99 33.5t42 71.5z" />
<glyph unicode="&#xdc;" horiz-adv-x="865" d="M713 757q12 0 19.5 -9t4.5 -21q-2 -11 -13.5 -20t-22.5 -9q-13 0 -19.5 8.5t-4.5 20.5t13 21t23 9zM838 757q12 0 19.5 -9t4.5 -21q-2 -11 -13 -20t-23 -9t-19 8.5t-5 20.5t13 21t23 9zM1543 423q0 -45 -45.5 -80t-105.5 -35q-61 0 -124.5 21.5t-110 52t-85 60.5 t-58.5 52l-19 21q-6 -5 -17 -13.5t-42.5 -36.5t-60 -57.5t-64 -74t-61.5 -88.5q-128 -217 -107 -243q3 -4 11 -4q27 0 54.5 17.5t41.5 34.5l15 18v-18q-5 -8 -15 -19.5t-42.5 -31t-68.5 -19.5q-59 0 -59 99q-81 -99 -142 -99q-32 0 -57 32.5t-25 74.5q0 46 31 104t68 103.5 t68 94t31 78.5q0 76 -49.5 118t-132.5 42q-82 0 -152 -27.5t-113.5 -70t-68 -91t-24.5 -93.5q0 -63 46.5 -108.5t109.5 -45.5q94 0 163 39l3 -6q-65 -42 -166 -42q-69 0 -117 47.5t-48 115.5q0 47 24.5 97t68.5 94t116 72t158 28q102 0 166.5 -59t64.5 -168 q0 -11 -1.5 -21.5t-2.5 -18t-6 -18t-7 -15t-10 -16.5t-10.5 -15t-13.5 -18t-14 -19q-8 -10 -34.5 -44.5t-39 -52.5t-30 -45.5t-25.5 -49t-8 -38.5q0 -20 10 -33.5t27 -13.5q33 0 71.5 33.5t68.5 77.5q12 18 38 62.5t52.5 83t66.5 88.5t100.5 102.5t135.5 100.5 q-15 11 -38.5 27t-81.5 43t-96 27h-54v6h46q82 0 131 -17.5t121 -73.5q111 42 154.5 53t124.5 11q119 0 192 -55.5t73 -136.5zM1533 423q0 78 -71.5 130t-183.5 52q-56 0 -121 -17.5t-103 -35.5l-37 -18q9 -9 24 -23.5t60 -51.5t88 -65.5t100 -52t103 -23.5q57 0 99 33.5 t42 71.5z" />
<glyph unicode="&#xdf;" horiz-adv-x="364" d="M387 218q-48 -82 -88.5 -125t-97.5 -53q-36 -56 -105 -56q-33 0 -56.5 19t-23.5 55q0 16 12.5 26t31.5 10q9 0 18.5 -3t15.5 -6t16.5 -9.5t16.5 -9.5q31 38 31 86q0 18 -4.5 44t-4.5 43q0 20 10 37t38 49t37 43q80 101 80 178q0 24 -14 24q-35 0 -104.5 -125.5 t-166.5 -334.5q-92 -197 -122 -250q-87 -150 -175 -170q-16 -4 -32 -4q-43 0 -71.5 23.5t-28.5 66.5q0 37 25.5 64.5t62.5 27.5q19 0 36 -14.5t17 -32.5q0 -19 -13.5 -33t-33.5 -14q-37 0 -45 31q12 -2 21.5 3t9.5 14q0 4 -4 8t-8 4q-21 0 -35 -22t-14 -48q0 -29 23 -46.5 t54 -17.5t58.5 22.5t53.5 70t45.5 93t50.5 121.5t53 125q84 181 190 319.5t171 138.5q16 0 31 -16.5t15 -35.5q0 -38 -33 -95t-75 -95q-6 -5 -16.5 -14.5t-16 -14.5t-13.5 -12.5t-12 -12t-8 -11t-6 -11.5t-2 -10q0 -24 19 -70t19 -90q0 -27 -12 -51q71 8 172 172zM118 57 q-9 4 -21 11.5t-20 11.5t-15 4q-5 0 -9.5 -5t-4.5 -11q0 -13 9 -20.5t21 -7.5q20 0 40 17z" />
<glyph unicode="&#xe0;" horiz-adv-x="426" d="M449 218q-84 -103 -155.5 -168t-107.5 -65q-30 0 -46 14.5t-30 44.5q-44 -59 -95 -59q-30 0 -49 25.5t-19 73.5q0 74 66 145t158 71q34 0 51 -24q11 15 21 15q6 0 21 -3t21 -3q4 0 16 12.5t17 14.5l-131 -246q-17 -32 -17 -46q0 -20 22 -20q26 0 103 70.5t146 154.5z M207 258q0 9 -5.5 16.5t-15.5 7.5q-40 0 -84 -51t-70 -109.5t-26 -88.5q0 -33 20 -33q40 0 79 66q102 174 102 192zM99 459q17 0 39.5 -13t60 -38t68.5 -42v-7q-32 17 -82 33.5t-75.5 28.5t-25.5 27q0 11 15 11z" />
<glyph unicode="&#xe1;" horiz-adv-x="426" d="M449 218q-84 -103 -155.5 -168t-107.5 -65q-30 0 -46 14.5t-30 44.5q-44 -59 -95 -59q-30 0 -49 25.5t-19 73.5q0 74 66 145t158 71q34 0 51 -24q11 15 21 15q6 0 21 -3t21 -3q4 0 16 12.5t17 14.5l-131 -246q-17 -32 -17 -46q0 -20 22 -20q26 0 103 70.5t146 154.5z M207 258q0 9 -5.5 16.5t-15.5 7.5q-40 0 -84 -51t-70 -109.5t-26 -88.5q0 -33 20 -33q40 0 79 66q102 174 102 192zM314 440q0 -15 -25.5 -27t-75.5 -28.5t-82 -33.5v7q31 17 68.5 42t60 38t39.5 13q15 0 15 -11z" />
<glyph unicode="&#xe2;" horiz-adv-x="426" d="M449 218q-84 -103 -155.5 -168t-107.5 -65q-30 0 -46 14.5t-30 44.5q-44 -59 -95 -59q-30 0 -49 25.5t-19 73.5q0 74 66 145t158 71q34 0 51 -24q11 15 21 15q6 0 21 -3t21 -3q4 0 16 12.5t17 14.5l-131 -246q-17 -32 -17 -46q0 -20 22 -20q26 0 103 70.5t146 154.5z M207 258q0 9 -5.5 16.5t-15.5 7.5q-40 0 -84 -51t-70 -109.5t-26 -88.5q0 -33 20 -33q40 0 79 66q102 174 102 192zM313 383q6 -6 0 -6l-6 3q-45 30 -74 52q-13 -8 -60 -29t-59 -27q-7 -4 -8 -1t3 6q16 13 58.5 40.5t56.5 38.5q9 8 17 0q65 -70 72 -77z" />
<glyph unicode="&#xe3;" horiz-adv-x="426" d="M449 218q-84 -103 -155.5 -168t-107.5 -65q-30 0 -46 14.5t-30 44.5q-44 -59 -95 -59q-30 0 -49 25.5t-19 73.5q0 74 66 145t158 71q34 0 51 -24q11 15 21 15q6 0 21 -3t21 -3q4 0 16 12.5t17 14.5l-131 -246q-17 -32 -17 -46q0 -20 22 -20q26 0 103 70.5t146 154.5z M207 258q0 9 -5.5 16.5t-15.5 7.5q-40 0 -84 -51t-70 -109.5t-26 -88.5q0 -33 20 -33q40 0 79 66q102 174 102 192zM349 418q-17 -51 -67 -51q-17 0 -43 4t-41 4q-10 0 -55 -9q24 49 82 49q10 0 32.5 -3t36.5 -3q10 0 55 9z" />
<glyph unicode="&#xe4;" horiz-adv-x="426" d="M449 218q-84 -103 -155.5 -168t-107.5 -65q-30 0 -46 14.5t-30 44.5q-44 -59 -95 -59q-30 0 -49 25.5t-19 73.5q0 74 66 145t158 71q34 0 51 -24q11 15 21 15q6 0 21 -3t21 -3q4 0 16 12.5t17 14.5l-131 -246q-17 -32 -17 -46q0 -20 22 -20q26 0 103 70.5t146 154.5z M207 258q0 9 -5.5 16.5t-15.5 7.5q-40 0 -84 -51t-70 -109.5t-26 -88.5q0 -33 20 -33q40 0 79 66q102 174 102 192zM179 433q12 0 19.5 -9t4.5 -21q-2 -11 -13.5 -20t-22.5 -9q-13 0 -19.5 8.5t-4.5 20.5t13 21t23 9zM304 433q12 0 19.5 -9t4.5 -21q-2 -11 -13 -20t-23 -9 t-19 8.5t-5 20.5t13 21t23 9z" />
<glyph unicode="&#xe5;" horiz-adv-x="426" d="M449 218q-84 -103 -155.5 -168t-107.5 -65q-30 0 -46 14.5t-30 44.5q-44 -59 -95 -59q-30 0 -49 25.5t-19 73.5q0 74 66 145t158 71q34 0 51 -24q11 15 21 15q6 0 21 -3t21 -3q4 0 16 12.5t17 14.5l-131 -246q-17 -32 -17 -46q0 -20 22 -20q26 0 103 70.5t146 154.5z M207 258q0 9 -5.5 16.5t-15.5 7.5q-40 0 -84 -51t-70 -109.5t-26 -88.5q0 -33 20 -33q40 0 79 66q102 174 102 192zM330 427q-5 -25 -21.5 -40t-42.5 -15q-43 0 -35 55q4 24 21 40.5t42 16.5q22 0 31.5 -16.5t4.5 -40.5zM314 427q4 19 -3 29.5t-21 10.5q-31 0 -40 -40 q-8 -38 21 -38q34 0 43 38z" />
<glyph unicode="&#xe6;" horiz-adv-x="503" d="M207 258q0 9 -5.5 16.5t-15.5 7.5q-40 0 -84 -51t-70 -109.5t-26 -88.5q0 -33 20 -33q40 0 79 66q102 174 102 192zM379 264q0 23 -21 23q-22 0 -55 -40t-71 -115q40 0 93.5 51t53.5 81zM526 218l-1 1q-13 -22 -43.5 -58t-72 -76.5t-91 -69.5t-88.5 -29q-32 0 -53.5 17 t-29.5 44q-24 -30 -64 -45.5t-68 -15.5q-30 0 -49 25.5t-19 73.5q0 74 66 145t158 71q34 0 51 -24q11 20 21 20h62q4 0 -7 -15q42 18 74 18q23 0 40 -16t17 -39q0 -34 -27 -62.5t-64 -43.5t-68.5 -23t-47.5 -8q-18 -39 -18 -70q0 -37 27 -37q66 0 158 81.5t129 142.5z" />
<glyph unicode="&#xe7;" horiz-adv-x="388" d="M73 -84q0 -19 -18 -32.5t-40 -13.5q-29 0 -60 16q-11 6 -4 11q6 4 13 0q7 -7 39 -6.5t32 23.5q0 17 -50 12l8 26q13 6 29 6l14 28q-89 4 -89 89q0 71 37 124t87.5 77t101.5 24q25 0 42.5 -15.5t17.5 -36.5q0 -23 -18.5 -41t-41.5 -18q-36 0 -36 26q0 20 10 34 q16 -13 29 -13q7 0 19 11t12 22q0 21 -34 21q-45 0 -107.5 -99.5t-62.5 -155.5q0 -17 13 -27.5t32 -10.5q76 0 172.5 55t182.5 173l8 -7q-80 -112 -174.5 -171t-180.5 -62l-19 -29q36 -7 36 -40z" />
<glyph unicode="&#xe8;" horiz-adv-x="307" d="M330 218q-13 -22 -43.5 -58t-72 -76.5t-91 -69.5t-88.5 -29q-40 0 -64 26.5t-24 63.5q0 94 80.5 159.5t148.5 65.5q23 0 40 -16t17 -39q0 -34 -27 -62.5t-64 -43.5t-68.5 -23t-47.5 -8q-18 -39 -18 -70q0 -37 27 -37q66 0 158 81.5t129 142.5zM183 264q0 23 -21 23 q-22 0 -55 -40t-71 -115q40 0 93.5 51t53.5 81zM46 459q17 0 39.5 -13t60 -38t68.5 -42v-7q-32 17 -82 33.5t-75.5 28.5t-25.5 27q0 11 15 11z" />
<glyph unicode="&#xe9;" horiz-adv-x="307" d="M330 218q-13 -22 -43.5 -58t-72 -76.5t-91 -69.5t-88.5 -29q-40 0 -64 26.5t-24 63.5q0 94 80.5 159.5t148.5 65.5q23 0 40 -16t17 -39q0 -34 -27 -62.5t-64 -43.5t-68.5 -23t-47.5 -8q-18 -39 -18 -70q0 -37 27 -37q66 0 158 81.5t129 142.5zM183 264q0 23 -21 23 q-22 0 -55 -40t-71 -115q40 0 93.5 51t53.5 81zM279 440q0 -15 -25.5 -27t-75.5 -28.5t-82 -33.5v7q31 17 68.5 42t60 38t39.5 13q15 0 15 -11z" />
<glyph unicode="&#xea;" horiz-adv-x="307" d="M330 218q-13 -22 -43.5 -58t-72 -76.5t-91 -69.5t-88.5 -29q-40 0 -64 26.5t-24 63.5q0 94 80.5 159.5t148.5 65.5q23 0 40 -16t17 -39q0 -34 -27 -62.5t-64 -43.5t-68.5 -23t-47.5 -8q-18 -39 -18 -70q0 -37 27 -37q66 0 158 81.5t129 142.5zM183 264q0 23 -21 23 q-22 0 -55 -40t-71 -115q40 0 93.5 51t53.5 81zM270 383q6 -6 0 -6l-6 3q-45 30 -74 52q-13 -8 -60 -29t-59 -27q-7 -4 -8 -1t3 6q16 13 58.5 40.5t56.5 38.5q9 8 17 0q65 -70 72 -77z" />
<glyph unicode="&#xeb;" horiz-adv-x="307" d="M330 218q-13 -22 -43.5 -58t-72 -76.5t-91 -69.5t-88.5 -29q-40 0 -64 26.5t-24 63.5q0 94 80.5 159.5t148.5 65.5q23 0 40 -16t17 -39q0 -34 -27 -62.5t-64 -43.5t-68.5 -23t-47.5 -8q-18 -39 -18 -70q0 -37 27 -37q66 0 158 81.5t129 142.5zM183 264q0 23 -21 23 q-22 0 -55 -40t-71 -115q40 0 93.5 51t53.5 81zM135 433q12 0 19.5 -9t4.5 -21q-2 -11 -13.5 -20t-22.5 -9q-13 0 -19.5 8.5t-4.5 20.5t13 21t23 9zM260 433q12 0 19.5 -9t4.5 -21q-2 -11 -13 -20t-23 -9t-19 8.5t-5 20.5t13 21t23 9z" />
<glyph unicode="&#xec;" horiz-adv-x="235" d="M258 218q-196 -233 -264 -233q-27 0 -44.5 16t-17.5 44q0 24 12 57t24 55.5t35 61.5t29 51q0 1 2.5 5t3 5t2.5 3.5t3 3.5t3.5 2t5.5 1.5t7 0.5q17 0 23 -4.5t11 -4.5q4 0 18 14t20 16l-127 -242q-10 -19 -10 -38q0 -26 24 -26t108 85t124 134zM30 459q17 0 39.5 -13 t60 -38t68.5 -42v-7q-32 17 -82 33.5t-75.5 28.5t-25.5 27q0 11 15 11z" />
<glyph unicode="&#xed;" horiz-adv-x="235" d="M258 218q-196 -233 -264 -233q-27 0 -44.5 16t-17.5 44q0 24 12 57t24 55.5t35 61.5t29 51q0 1 2.5 5t3 5t2.5 3.5t3 3.5t3.5 2t5.5 1.5t7 0.5q17 0 23 -4.5t11 -4.5q4 0 18 14t20 16l-127 -242q-10 -19 -10 -38q0 -26 24 -26t108 85t124 134zM206 440q0 -15 -25.5 -27 t-75.5 -28.5t-82 -33.5v7q31 17 68.5 42t60 38t39.5 13q15 0 15 -11z" />
<glyph unicode="&#xee;" horiz-adv-x="235" d="M258 218q-196 -233 -264 -233q-27 0 -44.5 16t-17.5 44q0 24 12 57t24 55.5t35 61.5t29 51q0 1 2.5 5t3 5t2.5 3.5t3 3.5t3.5 2t5.5 1.5t7 0.5q17 0 23 -4.5t11 -4.5q4 0 18 14t20 16l-127 -242q-10 -19 -10 -38q0 -26 24 -26t108 85t124 134zM222 383q6 -6 0 -6l-6 3 q-45 30 -74 52q-13 -8 -60 -29t-59 -27q-7 -4 -8 -1t3 6q16 13 58.5 40.5t56.5 38.5q9 8 17 0q65 -70 72 -77z" />
<glyph unicode="&#xef;" horiz-adv-x="235" d="M258 218q-196 -233 -264 -233q-27 0 -44.5 16t-17.5 44q0 24 12 57t24 55.5t35 61.5t29 51q0 1 2.5 5t3 5t2.5 3.5t3 3.5t3.5 2t5.5 1.5t7 0.5q17 0 23 -4.5t11 -4.5q4 0 18 14t20 16l-127 -242q-10 -19 -10 -38q0 -26 24 -26t108 85t124 134zM73 433q12 0 19.5 -9 t4.5 -21q-2 -11 -13.5 -20t-22.5 -9q-13 0 -19.5 8.5t-4.5 20.5t13 21t23 9zM198 433q12 0 19.5 -9t4.5 -21q-2 -11 -13 -20t-23 -9t-19 8.5t-5 20.5t13 21t23 9z" />
<glyph unicode="&#xf1;" horiz-adv-x="385" d="M408 218l-154 -173q-26 -30 -49 -45.5t-52 -15.5q-53 0 -58 61q-2 27 21 61l83 127q14 22 14 30q0 9 -15 9q-25 0 -74.5 -44.5t-99.5 -128.5q-10 -16 -26 -48t-26 -44.5t-20 -12.5q-7 0 -19.5 4.5t-17.5 4.5q-4 0 -13.5 -7.5t-16.5 -15.5l-7 -7l154 294q13 24 30 24 q10 0 19 -4t16 -4q4 0 16.5 12.5t20.5 16.5l-51 -96q52 46 85 65t65 19q21 0 33.5 -12.5t12.5 -33.5q0 -24 -19 -54l-93 -145q-18 -27 -18 -34q0 -18 21 -18q28 0 83 60l147 162zM322 418q-17 -51 -67 -51q-17 0 -43 4t-41 4q-10 0 -55 -9q24 49 82 49q10 0 32.5 -3t36.5 -3 q10 0 55 9z" />
<glyph unicode="&#xf2;" horiz-adv-x="376" d="M399 218q-89 -86 -180 -90q-18 -45 -86 -94t-144 -49q-22 0 -38.5 18t-16.5 39q0 51 29 104l72 131q8 14 22 14q9 0 20.5 -4t16.5 -4q4 0 15 12.5t20 15.5l-119 -228q-15 -29 -15 -45q0 -18 9 -28t23 -10q63 0 130 141q-32 37 -32 73q0 38 24 66t49 28q22 0 39.5 -24 t17.5 -53q0 -24 -9.5 -50.5t-18.5 -39.5q68 0 164 84zM207 240q0 45 -24 45q-18 0 -32 -23.5t-14 -48.5q0 -26 28 -60q42 71 42 87zM73 459q17 0 39.5 -13t60 -38t68.5 -42v-7q-32 17 -82 33.5t-75.5 28.5t-25.5 27q0 11 15 11z" />
<glyph unicode="&#xf3;" horiz-adv-x="376" d="M399 218q-89 -86 -180 -90q-18 -45 -86 -94t-144 -49q-22 0 -38.5 18t-16.5 39q0 51 29 104l72 131q8 14 22 14q9 0 20.5 -4t16.5 -4q4 0 15 12.5t20 15.5l-119 -228q-15 -29 -15 -45q0 -18 9 -28t23 -10q63 0 130 141q-32 37 -32 73q0 38 24 66t49 28q22 0 39.5 -24 t17.5 -53q0 -24 -9.5 -50.5t-18.5 -39.5q68 0 164 84zM207 240q0 45 -24 45q-18 0 -32 -23.5t-14 -48.5q0 -26 28 -60q42 71 42 87zM292 440q0 -15 -25.5 -27t-75.5 -28.5t-82 -33.5v7q31 17 68.5 42t60 38t39.5 13q15 0 15 -11z" />
<glyph unicode="&#xf4;" horiz-adv-x="376" d="M399 218q-89 -86 -180 -90q-18 -45 -86 -94t-144 -49q-22 0 -38.5 18t-16.5 39q0 51 29 104l72 131q8 14 22 14q9 0 20.5 -4t16.5 -4q4 0 15 12.5t20 15.5l-119 -228q-15 -29 -15 -45q0 -18 9 -28t23 -10q63 0 130 141q-32 37 -32 73q0 38 24 66t49 28q22 0 39.5 -24 t17.5 -53q0 -24 -9.5 -50.5t-18.5 -39.5q68 0 164 84zM207 240q0 45 -24 45q-18 0 -32 -23.5t-14 -48.5q0 -26 28 -60q42 71 42 87zM282 383q6 -6 0 -6l-6 3q-45 30 -74 52q-13 -8 -60 -29t-59 -27q-7 -4 -8 -1t3 6q16 13 58.5 40.5t56.5 38.5q9 8 17 0q65 -70 72 -77z" />
<glyph unicode="&#xf5;" horiz-adv-x="376" d="M399 218q-89 -86 -180 -90q-18 -45 -86 -94t-144 -49q-22 0 -38.5 18t-16.5 39q0 51 29 104l72 131q8 14 22 14q9 0 20.5 -4t16.5 -4q4 0 15 12.5t20 15.5l-119 -228q-15 -29 -15 -45q0 -18 9 -28t23 -10q63 0 130 141q-32 37 -32 73q0 38 24 66t49 28q22 0 39.5 -24 t17.5 -53q0 -24 -9.5 -50.5t-18.5 -39.5q68 0 164 84zM207 240q0 45 -24 45q-18 0 -32 -23.5t-14 -48.5q0 -26 28 -60q42 71 42 87zM300 418q-17 -51 -67 -51q-17 0 -43 4t-41 4q-10 0 -55 -9q24 49 82 49q10 0 32.5 -3t36.5 -3q10 0 55 9z" />
<glyph unicode="&#xf6;" horiz-adv-x="376" d="M399 218q-89 -86 -180 -90q-18 -45 -86 -94t-144 -49q-22 0 -38.5 18t-16.5 39q0 51 29 104l72 131q8 14 22 14q9 0 20.5 -4t16.5 -4q4 0 15 12.5t20 15.5l-119 -228q-15 -29 -15 -45q0 -18 9 -28t23 -10q63 0 130 141q-32 37 -32 73q0 38 24 66t49 28q22 0 39.5 -24 t17.5 -53q0 -24 -9.5 -50.5t-18.5 -39.5q68 0 164 84zM207 240q0 45 -24 45q-18 0 -32 -23.5t-14 -48.5q0 -26 28 -60q42 71 42 87zM141 433q12 0 19.5 -9t4.5 -21q-2 -11 -13.5 -20t-22.5 -9q-13 0 -19.5 8.5t-4.5 20.5t13 21t23 9zM266 433q12 0 19.5 -9t4.5 -21 q-2 -11 -13 -20t-23 -9t-19 8.5t-5 20.5t13 21t23 9z" />
<glyph unicode="&#xf7;" horiz-adv-x="303" d="M251 315q-6 -15 -20 -25.5t-29 -10.5t-22 10.5t-1 25.5q5 15 19.5 25.5t29.5 10.5t21.5 -10.5t1.5 -25.5zM301 240l-9 -25h-228l9 25h228zM187 140q-5 -15 -19.5 -25.5t-29.5 -10.5t-21.5 10.5t-1.5 25.5t19.5 25.5t29.5 10.5t21.5 -10.5t1.5 -25.5z" />
<glyph unicode="&#xf8;" horiz-adv-x="369" d="M392 218v-1q-36 -43 -123 -92q-32 -12 -45 -15q-25 -42 -80.5 -84t-117.5 -42q-7 0 -17 2l-36 -50h-32l44 62q-36 28 -36 79q0 85 71.5 153.5t155.5 68.5q12 0 23 -3l32 45h32l-41 -57q35 -27 35 -78q0 -16 -3.5 -30t-11.5 -32l-9 -18q10 2 30 11q57 26 121 88zM129 199 l61 84q-7 5 -16 5q-28 0 -68.5 -49.5t-69 -111t-28.5 -95.5v-3l90 126q-3 6 -3 12q0 15 9 23.5t22 8.5h3zM126 149h-1q14 -17 33 -21q36 76 39 119l-50 -69q0 -10 -12 -16zM115 135l-96 -135q4 -2 8 -2q28 0 56.5 28t67.5 93q-24 8 -36 16z" />
<glyph unicode="&#xf9;" horiz-adv-x="415" d="M438 218q-20 -30 -46.5 -63t-65.5 -75t-83 -68.5t-82 -26.5q-52 0 -59 84q-50 -56 -65 -67q-23 -17 -58 -17q-27 0 -39 16.5t-12 33.5q0 47 33 106l75 136q8 14 27 14q3 0 14.5 -3.5t18.5 -3.5q5 0 18 13.5t18 14.5l-119 -224q-18 -33 -18 -56q0 -26 26 -26q12 0 50.5 42 t66.5 91l78 139q7 13 23 13q7 0 18 -3.5t18 -3.5q5 0 17.5 13t18.5 15l-127 -239q-16 -29 -16 -44q0 -20 26 -20q34 0 102.5 62.5t133.5 153.5zM99 459q17 0 39.5 -13t60 -38t68.5 -42v-7q-32 17 -82 33.5t-75.5 28.5t-25.5 27q0 11 15 11z" />
<glyph unicode="&#xfa;" horiz-adv-x="415" d="M438 218q-20 -30 -46.5 -63t-65.5 -75t-83 -68.5t-82 -26.5q-52 0 -59 84q-50 -56 -65 -67q-23 -17 -58 -17q-27 0 -39 16.5t-12 33.5q0 47 33 106l75 136q8 14 27 14q3 0 14.5 -3.5t18.5 -3.5q5 0 18 13.5t18 14.5l-119 -224q-18 -33 -18 -56q0 -26 26 -26q12 0 50.5 42 t66.5 91l78 139q7 13 23 13q7 0 18 -3.5t18 -3.5q5 0 17.5 13t18.5 15l-127 -239q-16 -29 -16 -44q0 -20 26 -20q34 0 102.5 62.5t133.5 153.5zM314 440q0 -15 -25.5 -27t-75.5 -28.5t-82 -33.5v7q31 17 68.5 42t60 38t39.5 13q15 0 15 -11z" />
<glyph unicode="&#xfb;" horiz-adv-x="415" d="M438 218q-20 -30 -46.5 -63t-65.5 -75t-83 -68.5t-82 -26.5q-52 0 -59 84q-50 -56 -65 -67q-23 -17 -58 -17q-27 0 -39 16.5t-12 33.5q0 47 33 106l75 136q8 14 27 14q3 0 14.5 -3.5t18.5 -3.5q5 0 18 13.5t18 14.5l-119 -224q-18 -33 -18 -56q0 -26 26 -26q12 0 50.5 42 t66.5 91l78 139q7 13 23 13q7 0 18 -3.5t18 -3.5q5 0 17.5 13t18.5 15l-127 -239q-16 -29 -16 -44q0 -20 26 -20q34 0 102.5 62.5t133.5 153.5zM313 383q6 -6 0 -6l-6 3q-45 30 -74 52q-13 -8 -60 -29t-59 -27q-7 -4 -8 -1t3 6q16 13 58.5 40.5t56.5 38.5q9 8 17 0 q65 -70 72 -77z" />
<glyph unicode="&#xfc;" horiz-adv-x="415" d="M438 218q-20 -30 -46.5 -63t-65.5 -75t-83 -68.5t-82 -26.5q-52 0 -59 84q-50 -56 -65 -67q-23 -17 -58 -17q-27 0 -39 16.5t-12 33.5q0 47 33 106l75 136q8 14 27 14q3 0 14.5 -3.5t18.5 -3.5q5 0 18 13.5t18 14.5l-119 -224q-18 -33 -18 -56q0 -26 26 -26q12 0 50.5 42 t66.5 91l78 139q7 13 23 13q7 0 18 -3.5t18 -3.5q5 0 17.5 13t18.5 15l-127 -239q-16 -29 -16 -44q0 -20 26 -20q34 0 102.5 62.5t133.5 153.5zM179 433q12 0 19.5 -9t4.5 -21q-2 -11 -13.5 -20t-22.5 -9q-13 0 -19.5 8.5t-4.5 20.5t13 21t23 9zM304 433q12 0 19.5 -9 t4.5 -21q-2 -11 -13 -20t-23 -9t-19 8.5t-5 20.5t13 21t23 9z" />
<glyph unicode="&#xfd;" horiz-adv-x="382" d="M405 218l-132 -126q-11 -10 -37.5 -35.5t-37.5 -35.5t-35.5 -27t-52.5 -33q-11 -18 -32 -61.5t-38 -72t-41 -60.5t-54 -49t-64 -17t-57.5 22t-23.5 55q0 26 15 49t36.5 40t55.5 33.5t63.5 27t68.5 22.5l42 85q-66 -50 -99 -50q-24 0 -38.5 18.5t-14.5 49.5t17 62l82 152 q12 24 28 24q11 0 22 -4t17 -4q5 0 17.5 13.5t18.5 15.5l-122 -228q-17 -32 -17 -49q0 -28 15 -28q14 0 49 20.5t53 51.5l105 188q13 24 28 24q11 0 20 -4t16 -4q4 0 17.5 13.5t19.5 15.5q-3 -5 -24 -46t-42.5 -81.5t-57.5 -99.5t-72 -109q32 19 54.5 38t51 47.5t40.5 39.5 l132 124zM36 -60q-40 -14 -66.5 -23.5t-60 -26t-53.5 -31.5t-34 -36t-14 -44q0 -19 12 -30.5t30 -11.5q36 0 73 39.5t113 163.5zM292 440q0 -15 -25.5 -27t-75.5 -28.5t-82 -33.5v7q31 17 68.5 42t60 38t39.5 13q15 0 15 -11z" />
<glyph unicode="&#xff;" horiz-adv-x="382" d="M405 218l-132 -126q-11 -10 -37.5 -35.5t-37.5 -35.5t-35.5 -27t-52.5 -33q-11 -18 -32 -61.5t-38 -72t-41 -60.5t-54 -49t-64 -17t-57.5 22t-23.5 55q0 26 15 49t36.5 40t55.5 33.5t63.5 27t68.5 22.5l42 85q-66 -50 -99 -50q-24 0 -38.5 18.5t-14.5 49.5t17 62l82 152 q12 24 28 24q11 0 22 -4t17 -4q5 0 17.5 13.5t18.5 15.5l-122 -228q-17 -32 -17 -49q0 -28 15 -28q14 0 49 20.5t53 51.5l105 188q13 24 28 24q11 0 20 -4t16 -4q4 0 17.5 13.5t19.5 15.5q-3 -5 -24 -46t-42.5 -81.5t-57.5 -99.5t-72 -109q32 19 54.5 38t51 47.5t40.5 39.5 l132 124zM36 -60q-40 -14 -66.5 -23.5t-60 -26t-53.5 -31.5t-34 -36t-14 -44q0 -19 12 -30.5t30 -11.5q36 0 73 39.5t113 163.5zM179 433q12 0 19.5 -9t4.5 -21q-2 -11 -13.5 -20t-22.5 -9q-13 0 -19.5 8.5t-4.5 20.5t13 21t23 9zM304 433q12 0 19.5 -9t4.5 -21 q-2 -11 -13 -20t-23 -9t-19 8.5t-5 20.5t13 21t23 9z" />
<glyph unicode="&#x104;" d="M1229 -15q0 -60 -59 -105.5t-124 -47.5q-31 -1 -61.5 3.5t-56.5 13t-47.5 17t-42 21t-31.5 19.5t-25 18l-14 11q-3 -2 -13 -7.5t-27 -15t-34 -18.5q8 1 28 11q9 5 11 3q2 -4 -4 -10q-34 -36 -73 -33q-10 2 -16 4q-140 -62 -248 -62q-173 0 -286.5 105t-113.5 266 q0 162 97.5 261t257.5 99q25 0 58 -12v-12q-35 13 -58 13q-160 0 -252 -101t-92 -248q0 -155 110.5 -258t278.5 -103q102 0 237 60q-12 12 -6 30q11 33 88 66q-91 -15 -91 29q0 13 11 17.5t26 1.5t30.5 -7.5t26.5 -9.5l11 -5q9 0 41.5 29.5t36.5 39.5l12 27q12 27 21.5 50.5 t21.5 56t19 61t7 47.5q-45 -9 -122 -9q-6 -9 -33 -50.5t-47 -71t-56 -72t-68.5 -69.5t-75.5 -47t-86 -20q-75 0 -116 36.5t-41 93.5q0 86 76.5 150.5t188.5 64.5h249q30 65 78 126q41 52 86 93t79.5 63t64 36.5t45.5 19.5l15 4q10 0 10 -16q0 -9 -13 -21.5t-33 -32.5 t-40 -48.5t-37 -80t-22 -116.5q8 3 21 8t46.5 26t59 46t46.5 69t21 95q0 107 -95.5 181t-233.5 74q-142 0 -240.5 -82.5t-98.5 -176.5q0 -41 11 -75t26 -53t30.5 -32t26.5 -17l11 -5l-3 -13l-12.5 5t-27.5 18t-35.5 35t-28 56.5t-12.5 80.5q0 99 103.5 186t249.5 87 q144 0 243.5 -78t99.5 -191q0 -55 -21.5 -102t-52.5 -75t-62 -48.5t-52 -28.5l-22 -8q-7 -58 -10 -71q-5 -19 -19.5 -49.5t-41 -71t-71 -82.5t-96.5 -71q24 -22 30 -28q165 102 214.5 125.5t104.5 23.5q56 0 95 -34t39 -82zM741 299h-201q-103 0 -178.5 -60t-75.5 -138 q0 -116 110 -116q28 0 58 11t53.5 25t52 41t46 46t43 54t35.5 50t32.5 49t24.5 38zM1215 -16q0 44 -34 73.5t-85 29.5q-53 0 -96.5 -20t-174.5 -100q-25 -16 -39 -24q4 -4 12 -10.5t35 -23t55.5 -29.5t71.5 -23.5t86 -10.5q61 0 115 43t54 95zM1056 617q-19 0 -77 -45.5 t-103 -96.5q-31 -35 -55.5 -72.5t-34 -56.5t-13.5 -30q64 0 112 9q7 43 29 89.5t47 81t49.5 63t37 43.5t8.5 15zM758 -57l-31 28q-47 -29 -55 -55q-4 -11 3 -18zM696 -10q-3 2 -9 4.5l-18 7.5t-20 4.5t-8 -7.5q0 -11 13.5 -13.5t27.5 0.5z" />
<glyph unicode="&#x105;" horiz-adv-x="426" d="M449 218q-170 -208 -249 -230q-59 -32 -67 -62q-6 -20 13 -22q16 -1 37 11q9 5 11 3q2 -4 -4 -10q-34 -36 -73 -33q-19 1 -28.5 13.5t-4.5 28.5q11 35 94 68q-26 2 -40.5 16.5t-27.5 42.5q-44 -59 -95 -59q-30 0 -49 25.5t-19 73.5q0 74 66 145t158 71q34 0 51 -24 q11 15 21 15q6 0 21 -3t21 -3q4 0 16 12.5t17 14.5l-131 -246q-17 -32 -17 -46q0 -20 22 -20q26 0 103 70.5t146 154.5zM207 258q0 9 -5.5 16.5t-15.5 7.5q-40 0 -84 -51t-70 -109.5t-26 -88.5q0 -33 20 -33q40 0 79 66q102 174 102 192z" />
<glyph unicode="&#x106;" horiz-adv-x="933" d="M1153 -254q0 -23 -22 -54q-3 3 -5 6q15 28 15 48q0 58 -79.5 103t-185.5 45q-67 0 -145 -24t-137.5 -53t-134 -53t-135.5 -24q-145 0 -233 99.5t-88 247.5q0 86 35 167t94.5 142.5t144 99t177.5 37.5q40 0 89.5 -4.5t78 -8.5t29.5 -3q7 4 19.5 11t50.5 24.5t75 31 t87 24.5t93 11q101 0 101 -58q0 -36 -42 -63.5t-119 -27.5q-25 0 -73 5t-83 9l-36 5q-76 -62 -129 -126q-56 -68 -92 -141.5t-37 -126.5q0 -38 22 -60q-5 36 11.5 89.5t49 106t87.5 89.5t117 37q37 0 58 -24.5t21 -67.5q0 -77 -52.5 -150t-121.5 -111.5t-120 -28.5 q23 -31 63 -31q45 0 96 35t79 70l29 35l8 -9q-4 -6 -11.5 -15.5t-30.5 -34.5t-46.5 -44.5t-57.5 -35t-66 -15.5q-27 0 -51 14t-35 28l-11 14q-4 2 -10.5 5t-22.5 17t-28.5 32t-23 51t-10.5 72q0 53 21.5 106t50.5 91t64.5 71.5t57.5 50t35 23.5q0 2 -31.5 6t-76.5 7.5 t-76 3.5q-121 0 -223.5 -63.5t-159.5 -163.5t-57 -208q0 -141 85 -238.5t225 -97.5q55 0 129 24t136 53t142 53t145 24q116 0 196.5 -45.5t80.5 -113.5zM1066 561q0 47 -90 47q-25 0 -58 -11t-62.5 -27t-55 -32.5t-40.5 -27.5l-15 -11q122 -18 171 -18q36 0 66.5 5.5 t57 24.5t26.5 50zM798 272q0 67 -66 67q-51 0 -105 -46t-88.5 -112t-34.5 -123q0 -24 11 -52q21 -14 41 -14q54 0 112.5 52t94 118t35.5 110zM1046 769q0 -15 -25.5 -27t-75.5 -28.5t-82 -33.5v7q31 17 68.5 42t60 38t39.5 13q15 0 15 -11z" />
<glyph unicode="&#x107;" horiz-adv-x="388" d="M411 218q-82 -115 -178.5 -174t-184.5 -59q-101 0 -101 90q0 71 37 124t87.5 77t101.5 24q25 0 42.5 -15.5t17.5 -36.5q0 -23 -18.5 -41t-41.5 -18q-36 0 -36 26q0 20 10 34q16 -13 29 -13q7 0 19 11t12 22q0 21 -34 21q-45 0 -107.5 -99.5t-62.5 -155.5q0 -17 13 -27.5 t32 -10.5q76 0 172.5 55t182.5 173zM279 440q0 -15 -25.5 -27t-75.5 -28.5t-82 -33.5v7q31 17 68.5 42t60 38t39.5 13q15 0 15 -11z" />
<glyph unicode="&#x118;" horiz-adv-x="973" d="M682 378h-1q3 -4 20.5 -13t18.5 -20q0 -11 -12 -12q-21 -3 -40 23q-23 11 -49.5 11.5t-54.5 -15t-51 -38t-37.5 -57.5t-14.5 -74q0 -81 47 -139t114 -58q92 0 159.5 66t67.5 155q0 47 -24 76.5t-64 29.5q-61 0 -112 -51.5t-51 -106.5q0 -34 20.5 -57t49.5 -23 q28 0 49 14.5t31.5 34t16.5 45.5t7 41t1 30h12q1 -23 -2.5 -49.5t-14.5 -58t-37 -51.5t-63 -20q-36 0 -60 27.5t-24 66.5q0 62 55.5 117t121.5 55q45 0 73.5 -33.5t28.5 -86.5q0 -87 -60 -154t-144 -82q-61 -30 -71 -63q-6 -20 13 -22q16 -1 37 11q9 5 11 3q2 -4 -4 -10 q-34 -36 -73 -33q-19 1 -28.5 13.5t-4.5 28.5q11 36 97 70q-5 -1 -14 -1q-121 0 -188.5 62t-67.5 160q0 96 66 160.5t182 55.5q-27 39 -33 81q-81 23 -191 23q-168 0 -273 -63t-105 -152q0 -6 6.5 -29t8.5 -26l-12 -8q-16 29 -16 62q0 97 108 163t283 66q114 0 191 -18 q-1 68 53 113.5t132 44.5q55 -1 94.5 -36.5t39.5 -83.5q0 -42 -40 -74.5t-94 -32.5q-40 0 -105 24q2 -49 21 -82zM660 476h-1q60 -28 105 -28t83.5 27.5t38.5 67.5q0 35 -26.5 60t-63.5 25q-64 -1 -98.5 -45.5t-37.5 -106.5z" />
<glyph unicode="&#x119;" horiz-adv-x="307" d="M330 218q-31 -51 -111 -129.5t-150 -98.5h1q-63 -32 -73 -64q-6 -20 13 -22q16 -1 37 11q9 5 11 3q2 -4 -4 -10q-34 -36 -73 -33q-19 1 -28.5 13.5t-4.5 28.5q11 35 94 69q-1 0 -3.5 -0.5t-3.5 -0.5q-40 0 -64 26.5t-24 63.5q0 94 80.5 159.5t148.5 65.5q23 0 40 -16 t17 -39q0 -34 -27 -62.5t-64 -43.5t-68.5 -23t-47.5 -8q-18 -39 -18 -70q0 -37 27 -37q66 0 158 81.5t129 142.5zM183 264q0 23 -21 23q-22 0 -55 -40t-71 -115q40 0 93.5 51t53.5 81z" />
<glyph unicode="&#x141;" horiz-adv-x="978" d="M595 298l-13 -18l-115 -25q-22 -72 -113 -191q82 -29 132 -38t117 -9q139 0 215 54t76 146q0 39 -18 67.5t-59 58.5l6 11q87 -51 87 -137q0 -106 -101 -187.5t-235 -81.5q-67 0 -122 17t-151 67q-55 -33 -86.5 -45t-69.5 -12q-59 0 -100 23.5t-41 65.5q0 33 35.5 56 t83.5 23q60 0 165 -55q35 58 52 97q4 9 18 46l-92 -20l17 27l83 16l22 74q-60 -24 -99 -24q-87 0 -145.5 65.5t-58.5 156.5q0 112 82 187t205 75q35 0 50 -3t37 -15q-72 8 -87 8q-120 0 -198.5 -73.5t-78.5 -178.5q0 -85 55 -148.5t139 -63.5q22 0 53 9.5t50 20.5 q8 32 15 59t15 50t12 37.5t13.5 32.5t11.5 24.5t13 22.5t12 18t14.5 19.5t14.5 18.5q36 48 78 75t72 27q79 0 79 -70q0 -80 -63.5 -161.5t-186.5 -132.5q-8 -51 -19 -90zM729 658q0 30 -14.5 45t-51.5 15q-40 0 -80 -48t-66 -127t-26 -162q83 31 160.5 120t77.5 157zM271 55 q-111 72 -169 72q-31 0 -58 -20t-27 -43q0 -30 31.5 -52t75.5 -22q34 0 76.5 19t70.5 46z" />
<glyph unicode="&#x142;" horiz-adv-x="234" d="M147 185l-85 -17q-38 -87 -38 -138q0 -9 6 -16.5t15 -7.5q39 0 98.5 65.5t105.5 153.5l8 -7q-63 -113 -118 -171t-121 -62q-27 -1 -43.5 22t-16.5 62q0 31 16 81l-92 -19l13 28l89 18q37 94 113.5 209t152.5 194.5t112 79.5q12 0 21.5 -11t9.5 -25q0 -24 -18 -66.5 t-51 -95t-91.5 -109.5t-129.5 -98q-3 -7 -13 -27.5t-15 -32.5l85 18zM350 618q0 21 -14 21q-24 0 -100.5 -128.5t-111.5 -222.5q84 49 155 165.5t71 164.5z" />
<glyph unicode="&#x143;" horiz-adv-x="1041" d="M1355 684q0 -27 -30 -46.5t-78 -19.5q-22 0 -45.5 4t-35.5 8l-12 5q-20 -32 -41 -72q-16 -31 -55.5 -110t-76 -144.5t-94.5 -158.5q-84 -136 -100 -153q-8 -9 -13 -9q-13 0 -13 11q0 1 9.5 23.5t19.5 54.5t10 55q0 34 -8.5 107t-6.5 121q1 55 15 150l-159 -315 q-76 -146 -162 -215t-195 -69q-128 0 -206 70.5t-78 185.5q0 135 97 231t229 96l67 -5q5 69 51.5 138.5t110.5 98.5q37 17 78.5 22t119.5 5q73 0 211.5 -42.5t183.5 -63.5q73 81 141 81q30 0 48 -12t18 -32zM1346 684q0 15 -18.5 25t-38.5 10q-38 0 -73.5 -24t-55.5 -51 l10 -3q10 -3 19 -5.5t25 -4.5t33 -2q41 0 70 15t29 40zM1143 638q-31 12 -80.5 29.5t-155 47t-154.5 29.5q-87 0 -186 -48q-38 -18 -67 -45t-46.5 -57t-27.5 -56.5t-15 -54.5q59 -25 85 -58.5t46 -103.5q138 16 138 141q0 13 -4 31t-8 29l-5 12l9 2q18 -48 18 -74 q0 -135 -146 -154q0 -62 -11 -101t-42 -85q-39 -55 -100.5 -88.5t-120.5 -33.5q-66 0 -110 45.5t-44 115.5q0 89 61 157.5t140 68.5q56 0 96 -38.5t40 -93.5q0 -32 -22 -76q-8 -2 -11 -2q23 49 23 78q0 49 -37.5 86t-88.5 37q-79 0 -135 -69.5t-56 -147.5q0 -66 41 -109.5 t103 -43.5q54 0 116 34t97 84q52 75 52 183q-61 9 -102.5 58.5t-39.5 111.5q-43 7 -67 7q-131 0 -224.5 -93t-93.5 -226q0 -111 76.5 -179.5t199.5 -68.5q203 0 346 276q28 53 65 127t62.5 126.5t30.5 61.5q42 74 148 166l2 2q-80 27 -132 27q-100 0 -184.5 -46.5 t-84.5 -95.5q0 -12 8 -23t16 -16l8 -5l-2 -9l-11 5.5t-18 17t-11 30.5q0 55 86.5 103t192.5 48q60 0 154 -31q-69 -57 -92 -92.5t-23 -87.5q0 -9 20 -129t20 -125q0 -41 -34 -138q34 54 60.5 98.5t43.5 73t39 70t31 60t37 74.5t42 83zM533 321q-19 65 -41.5 96.5t-80.5 55.5 q-3 -62 38 -102.5t84 -49.5zM1196 786q0 -15 -25.5 -27t-75.5 -28.5t-82 -33.5v7q31 17 68.5 42t60 38t39.5 13q15 0 15 -11z" />
<glyph unicode="&#x144;" horiz-adv-x="385" d="M408 218l-154 -173q-26 -30 -49 -45.5t-52 -15.5q-53 0 -58 61q-2 27 21 61l83 127q14 22 14 30q0 9 -15 9q-25 0 -74.5 -44.5t-99.5 -128.5q-10 -16 -26 -48t-26 -44.5t-20 -12.5q-7 0 -19.5 4.5t-17.5 4.5q-4 0 -13.5 -7.5t-16.5 -15.5l-7 -7l154 294q13 24 30 24 q10 0 19 -4t16 -4q4 0 16.5 12.5t20.5 16.5l-51 -96q52 46 85 65t65 19q21 0 33.5 -12.5t12.5 -33.5q0 -24 -19 -54l-93 -145q-18 -27 -18 -34q0 -18 21 -18q28 0 83 60l147 162zM314 440q0 -15 -25.5 -27t-75.5 -28.5t-82 -33.5v7q31 17 68.5 42t60 38t39.5 13q15 0 15 -11 z" />
<glyph unicode="&#x152;" horiz-adv-x="1030" d="M718 476h-1q60 -28 105 -28t83.5 27.5t38.5 67.5q0 35 -26.5 60t-63.5 25q-64 -1 -98.5 -45.5t-37.5 -106.5zM636 505l-1 -2q0 67 54 113t132 45q55 -1 94.5 -36.5t39.5 -83.5q0 -42 -40 -74.5t-94 -32.5q-40 0 -105 24q2 -49 21 -82q3 -4 20.5 -13t18.5 -20 q0 -11 -12 -12q-21 -3 -40 23q-23 11 -49.5 11.5t-54.5 -15t-51 -38t-37.5 -57.5t-14.5 -74q0 -81 47 -139t114 -58q92 0 159.5 66t67.5 155q0 47 -24 76.5t-64 29.5q-61 0 -112 -51.5t-51 -106.5q0 -34 20.5 -57t49.5 -23q28 0 49 14.5t31.5 34t16.5 45.5t7 41t1 30h12 q1 -23 -2.5 -49.5t-14.5 -58t-37 -51.5t-63 -20q-36 0 -60 27.5t-24 66.5q0 62 55.5 117t121.5 55q45 0 73.5 -33.5t28.5 -86.5q0 -98 -72.5 -168.5t-168.5 -70.5q-103 0 -168 46t-82 123q-62 -75 -134 -118t-138 -43q-69 0 -113.5 53t-44.5 129q0 87 57 193t150 193 q99 85 171 94h42q-70 -34 -102.5 -61.5t-78.5 -89.5q-165 -234 -165 -405q0 -44 24 -72t60 -28q57 0 122.5 61.5t126.5 171.5q108 195 108 315q0 81 -56 81q-68 0 -142.5 -93t-74.5 -184q0 -35 17.5 -55t45.5 -20q44 0 82 36.5t56.5 79t18.5 71.5q0 24 -11.5 41.5 t-25.5 17.5q-27 0 -58 -36l-7 7q39 39 65 39q20 0 34 -21t14 -48q0 -64 -50.5 -131t-117.5 -67q-33 0 -53.5 23.5t-20.5 62.5q0 58 34.5 125t89 114t104.5 47q44 0 77.5 -43.5t33.5 -100.5q0 -33 -14 -84q52 20 117 16q-35 52 -35 99z" />
<glyph unicode="&#x153;" horiz-adv-x="514" d="M389 264q0 23 -21 23q-22 0 -55 -40t-71 -115q40 0 93.5 51t53.5 81zM536 218h-1q-13 -22 -43.5 -58t-72 -76.5t-91 -69.5t-88.5 -29q-60 0 -81 55q-62 -55 -133 -55q-34 0 -55.5 28.5t-21.5 64.5q0 85 71.5 153.5t155.5 68.5q51 0 73 -53q72 53 133 53q23 0 40 -16 t17 -39q0 -34 -27 -62.5t-64 -43.5t-68.5 -23t-47.5 -8q-18 -39 -18 -70q0 -37 27 -37q66 0 158 81.5t129 142.5zM159 133q37 79 37 130q0 25 -24 25q-28 0 -68.5 -49.5t-69 -111t-28.5 -95.5t19 -34q52 0 125 120q-56 18 -56 50q0 15 9 23.5t22 8.5q21 0 21 -21 q0 -18 -27 -20q7 -20 40 -26z" />
<glyph unicode="&#x15a;" horiz-adv-x="710" d="M696 616q0 -30 -30.5 -75t-59.5 -75t-32 -30q24 -148 24 -205q0 -99 -74.5 -170.5t-177.5 -71.5q-96 0 -159.5 66.5t-63.5 154.5q0 89 69 175q-19 26 -29 62q-19 -10 -39 -26.5t-48 -48.5t-45.5 -84.5t-17.5 -115.5q0 -131 93 -226t224 -95q107 0 207 77l12 10v-8 q-3 -4 -9.5 -10t-28.5 -21.5t-45.5 -27.5t-60.5 -21.5t-75 -9.5q-137 0 -232.5 100.5t-95.5 231.5q0 185 154 283q3 3 5 4q-1 105 98 178.5t213 73.5q48 0 83 -13.5t46 -26.5l11 -13q2 2 6 4.5t16.5 6t25.5 1.5q17 -3 26.5 -18t9.5 -36zM610 642q-28 -35 -34 -59 q-5 -19 -5 -42q22 2 38 37t1 64zM669 624q0 16 -7.5 25t-18.5 9q-9 0 -24 -10q19 -39 0.5 -76t-48.5 -44l2 -75q96 88 96 171zM604 654q-4 5 -13 13.5t-43 22t-76 13.5q-41 0 -91 -16t-96.5 -44.5t-79 -76.5t-33.5 -104q7 5 20 13.5t60 25.5t100 24q103 13 198 13 q0 33 16.5 69.5t37.5 46.5zM549 528q-123 -3 -192 -12q-44 -6 -80.5 -16.5t-53.5 -19t-32.5 -18t-17.5 -10.5q10 -38 28 -59q6 5 17 13t45.5 21.5t69.5 13.5q40 0 65.5 -12.5t58.5 -47.5q16 7 38 20t35 22l14 9zM445 375q-4 6 -12.5 15.5t-38 25.5t-61.5 16q-37 0 -68 -12 t-44 -24l-13 -12q3 -5 10 -11.5t38.5 -18t73.5 -11.5q61 0 115 32zM543 369v48q-39 -29 -80 -47q20 -34 20 -85q0 -42 -43 -81t-94 -39q-32 0 -54 20.5t-22 49.5t18.5 49t44.5 20q23 0 45 -37q-56 -4 -56 -36q0 -18 12.5 -30t32.5 -12q40 0 71 34t31 78l-16 63 q-63 -31 -123 -31q-45 0 -78 10.5t-44 21.5l-10 11q-8 -9 -19 -24.5t-29 -59t-17 -82.5q1 -22 10 -51t27.5 -62.5t54.5 -56t82 -22.5q55 0 102 36.5t75 91.5t43.5 114t15.5 109zM784 771q0 -15 -25.5 -27t-75.5 -28.5t-82 -33.5v7q31 17 68.5 42t60 38t39.5 13q15 0 15 -11z " />
<glyph unicode="&#x15b;" horiz-adv-x="247" d="M270 218q-33 -55 -63.5 -91.5t-58.5 -54t-47.5 -24t-47.5 -10.5q-47 -55 -112 -55q-38 0 -58.5 19t-20.5 52q0 23 13.5 39.5t34.5 16.5q16 0 40 -20.5t31 -23.5q18 13 28 40t10 48q0 9 -9.5 42t-9.5 55q0 36 13.5 66t39.5 30q25 0 25 -18q0 -11 -4 -23t-6 -17 t-11.5 -20.5t-9.5 -16.5q30 -66 30 -109q0 -25 -6 -53.5t-12 -37.5q60 13 102 45t101 128zM66 327q0 12 -12 11q-6 0 -12 -13t-7 -29q0 -20 6 -32q25 36 25 63zM-29 56q-11 5 -28 20.5t-26 15.5q-7 0 -12.5 -6t-5.5 -14q0 -22 32 -28q30 -6 40 12zM144 460q0 -15 -25.5 -27 t-75.5 -28.5t-82 -33.5v7q31 17 68.5 42t60 38t39.5 13q15 0 15 -11z" />
<glyph unicode="&#x179;" horiz-adv-x="676" d="M707 499q0 -103 -88.5 -205.5t-277.5 -235.5q41 -15 57 -54q14 -29 15 -68l69 -16l-1 -9l-67 13q-12 -80 -71 -148.5t-131.5 -104.5t-134.5 -36q-64 0 -105.5 24.5t-41.5 72.5q0 54 51.5 104t127 79.5t147.5 29.5q15 0 51.5 1t44.5 1q10 28 10 41q0 22 -12 41t-24 19 q-118 -62 -153 -62q-39 0 -39 28q0 12 7 20.5t12.5 10.5t18.5 7q49 17 130 18q119 119 171 184q134 166 134 281q0 52 -30 84t-78 32q-23 0 -63.5 -13t-64.5 -29q3 -1 8 -4t17 -13.5t21.5 -22.5t17.5 -32.5t8 -43.5q0 -72 -32 -149.5t-87.5 -131t-115.5 -53.5 q-48 0 -82 36.5t-34 87.5q0 35 14 72t36.5 67.5t49.5 59t54 50.5t49.5 38.5t36.5 25.5l14 10q-39 7 -123 -21q-68 -23 -124.5 -85t-87.5 -152q-6 6 -7 0v4q21 59 53 106.5t65 74.5t56 40.5t39 18.5q93 30 139 22q90 48 164 47q79 -2 133 -48.5t54 -113.5zM434 493 q0 37 -19 64.5t-38 36.5l-19 9q-10 -7 -27.5 -18.5t-62 -47.5t-78 -72.5t-61.5 -86.5t-28 -95t32 -80t75 -35q83 0 154.5 106.5t71.5 218.5zM278 52q-2 1 -13.5 1t-30.5 -1.5t-31 -3.5q-17 -4 -25 -6t-17 -9.5t-9 -19.5q0 -15 19 -15q30 0 107 54zM348 -65q-34 2 -77 2 q-137 0 -235.5 -68.5t-98.5 -136.5q0 -21 14.5 -34.5t38.5 -13.5q104 0 219.5 75.5t138.5 175.5zM596 769q0 -15 -25.5 -27t-75.5 -28.5t-82 -33.5v7q31 17 68.5 42t60 38t39.5 13q15 0 15 -11z" />
<glyph unicode="&#x17a;" horiz-adv-x="312" d="M335 218q-121 -188 -275 -262q5 -20 5 -65q0 -89 -73 -162.5t-174 -73.5q-37 0 -59 20t-22 55q0 66 81 126.5t193 90.5q0 40 -6 56q-37 -14 -56 -14q-36 0 -36 25q0 10 11.5 18.5t28.5 8.5q33 0 65 -18q24 20 56.5 80t32.5 107q0 35 -36 35q-10 0 -30.5 -15.5 t-40.5 -43.5v17q50 97 116 97q29 0 48 -21.5t19 -51.5q0 -75 -56.5 -138t-99.5 -77q22 -26 27 -46q69 34 133.5 94t139.5 165zM-2 13q-25 19 -45 19q-11 1 -19 -5t-8 -13q0 -16 23 -16q14 -1 49 15zM11 -65q-43 -11 -99.5 -45t-102.5 -85.5t-46 -97.5q0 -17 14.5 -29.5 t33.5 -12.5q38 0 86 47t81 111.5t33 111.5zM208 440q0 -15 -25.5 -27t-75.5 -28.5t-82 -33.5v7q31 17 68.5 42t60 38t39.5 13q15 0 15 -11z" />
<glyph unicode="&#x17b;" horiz-adv-x="676" d="M707 499q0 -103 -88.5 -205.5t-277.5 -235.5q41 -15 57 -54q14 -29 15 -68l69 -16l-1 -9l-67 13q-12 -80 -71 -148.5t-131.5 -104.5t-134.5 -36q-64 0 -105.5 24.5t-41.5 72.5q0 54 51.5 104t127 79.5t147.5 29.5q15 0 51.5 1t44.5 1q10 28 10 41q0 22 -12 41t-24 19 q-118 -62 -153 -62q-39 0 -39 28q0 12 7 20.5t12.5 10.5t18.5 7q49 17 130 18q119 119 171 184q134 166 134 281q0 52 -30 84t-78 32q-23 0 -63.5 -13t-64.5 -29q3 -1 8 -4t17 -13.5t21.5 -22.5t17.5 -32.5t8 -43.5q0 -72 -32 -149.5t-87.5 -131t-115.5 -53.5 q-48 0 -82 36.5t-34 87.5q0 35 14 72t36.5 67.5t49.5 59t54 50.5t49.5 38.5t36.5 25.5l14 10q-39 7 -123 -21q-68 -23 -124.5 -85t-87.5 -152q-6 6 -7 0v4q21 59 53 106.5t65 74.5t56 40.5t39 18.5q93 30 139 22q90 48 164 47q79 -2 133 -48.5t54 -113.5zM434 493 q0 37 -19 64.5t-38 36.5l-19 9q-10 -7 -27.5 -18.5t-62 -47.5t-78 -72.5t-61.5 -86.5t-28 -95t32 -80t75 -35q83 0 154.5 106.5t71.5 218.5zM278 52q-2 1 -13.5 1t-30.5 -1.5t-31 -3.5q-17 -4 -25 -6t-17 -9.5t-9 -19.5q0 -15 19 -15q30 0 107 54zM348 -65q-34 2 -77 2 q-137 0 -235.5 -68.5t-98.5 -136.5q0 -21 14.5 -34.5t38.5 -13.5q104 0 219.5 75.5t138.5 175.5zM625 726q0 -17 -16.5 -30.5t-36.5 -13.5q-17 0 -28 10.5t-11 26.5q0 17 16.5 30.5t36.5 13.5q17 0 28 -10.5t11 -26.5z" />
<glyph unicode="&#x17c;" horiz-adv-x="312" d="M335 218q-121 -188 -275 -262q5 -20 5 -65q0 -89 -73 -162.5t-174 -73.5q-37 0 -59 20t-22 55q0 66 81 126.5t193 90.5q0 40 -6 56q-37 -14 -56 -14q-36 0 -36 25q0 10 11.5 18.5t28.5 8.5q33 0 65 -18q24 20 56.5 80t32.5 107q0 35 -36 35q-10 0 -30.5 -15.5 t-40.5 -43.5v17q50 97 116 97q29 0 48 -21.5t19 -51.5q0 -75 -56.5 -138t-99.5 -77q22 -26 27 -46q69 34 133.5 94t139.5 165zM-2 13q-25 19 -45 19q-11 1 -19 -5t-8 -13q0 -16 23 -16q14 -1 49 15zM11 -65q-43 -11 -99.5 -45t-102.5 -85.5t-46 -97.5q0 -17 14.5 -29.5 t33.5 -12.5q38 0 86 47t81 111.5t33 111.5zM195 407q0 -17 -16.5 -30.5t-36.5 -13.5q-17 0 -28 10.5t-11 26.5q0 17 16.5 30.5t36.5 13.5q17 0 28 -10.5t11 -26.5z" />
<glyph unicode="&#x2db;" horiz-adv-x="178" d="M134 1h15q-63 -32 -73 -64q-6 -20 13 -22q16 -1 37 11q9 5 11 3q2 -4 -4 -10q-34 -36 -73 -33q-19 1 -28.5 13.5t-4.5 28.5q13 38 107 73z" />
<glyph unicode="&#x2013;" horiz-adv-x="414" d="M408 200q0 -5 -14 -17q-52 -38 -107 -42h-3q-9 0 -16 1l-131 18l-29 3q-45 3 -69 -7q-18 -7 -29 -7q-6 0 -6 5q0 9 12.5 20t31.5 18q53 22 88 22q40 0 148 -20q24 -4 43 -4q27 0 50 12q14 7 20 7q11 0 11 -9z" />
<glyph unicode="&#x2014;" horiz-adv-x="604" d="M560 200q0 -5 -14 -17q-52 -38 -107 -42h-3q-9 0 -16 1l-263 18l-29 3q-45 3 -69 -7q-18 -7 -29 -7q-6 0 -6 5q0 9 12.5 20t31.5 18q53 22 88 22q33 0 135.5 -6t144.5 -14q24 -4 43 -4q27 0 50 12q14 7 20 7q11 0 11 -9z" />
<glyph unicode="&#x2018;" horiz-adv-x="0" d="M-126 802q18 0 42 -14t63.5 -40.5t73.5 -44.5v-7q-34 18 -87.5 36t-80.5 30.5t-27 28.5q0 11 16 11z" />
<glyph unicode="&#x2019;" horiz-adv-x="158" d="M253 624q0 -31 -11.5 -55t-39.5 -55q-27 -29 -46 -29q-9 1 -9 7q0 4 2.5 6t8 4.5t9.5 4.5q31 23 31 40q0 10 -7 13q-39 20 -39 49q0 24 17 42.5t39 18.5q18 0 31.5 -14t13.5 -32z" />
<glyph unicode="&#x201c;" horiz-adv-x="218" d="M127 531q0 31 11.5 55t39.5 55q27 29 46 29q9 -1 9 -7q0 -4 -2.5 -6t-8 -4.5t-9.5 -4.5q-31 -23 -31 -40q0 -10 7 -13q39 -19 39 -49q0 -24 -17 -42.5t-39 -18.5q-18 0 -31.5 13.5t-13.5 32.5zM242 531q0 31 11.5 55t39.5 55q27 29 46 29q9 -1 9 -7q0 -4 -2.5 -6t-8 -4.5 t-9.5 -4.5q-31 -23 -31 -40q0 -10 7 -13q39 -19 39 -49q0 -24 -17 -42.5t-39 -18.5q-17 0 -31 13.5t-14 32.5z" />
<glyph unicode="&#x201d;" horiz-adv-x="218" d="M348 624q0 -31 -11.5 -55t-39.5 -55q-27 -29 -46 -29q-9 1 -9 7q0 4 2.5 6t8 4.5t9.5 4.5q31 23 31 40q0 10 -7 13q-39 20 -39 49q0 24 17 42.5t39 18.5q17 0 31 -14t14 -32zM233 624q0 -31 -11.5 -55t-39.5 -55q-27 -29 -46 -29q-9 1 -9 7q0 4 2.5 6t8 4.5t9.5 4.5 q31 23 31 40q0 10 -7 13q-39 20 -39 49q0 24 17 42.5t39 18.5q18 0 31.5 -14t13.5 -32z" />
<glyph unicode="&#x2020;" horiz-adv-x="458" d="M556 426q-4 -16 -20 -28t-33 -12q-11 0 -55 17t-81 17q-21 -49 -29 -84.5t-2 -85.5q-81 -96 -190 -352h-17q103 240 106 349q69 71 111 174q-37 0 -81 -16.5t-65 -16.5q-18 0 -27 11t-5 31q3 16 19.5 26.5t34.5 10.5q17 0 50 -14t85 -14q19 48 23.5 72t4 47.5t5.5 53.5 q4 19 21.5 32t41.5 13q13 0 23.5 -14t6.5 -33q-4 -15 -23 -37.5t-45.5 -58t-43.5 -77.5q36 0 78.5 14t64.5 14q21 0 33.5 -10t8.5 -29z" />
<glyph unicode="&#x2021;" horiz-adv-x="458" d="M348 421q-37 0 -82 -16.5t-66 -16.5q-18 0 -27 11t-5 31q3 16 19.5 26.5t34.5 10.5q17 0 50 -14t85 -14q19 48 23.5 72t4 47.5t5.5 53.5q4 19 21.5 32t41.5 13q13 0 23.5 -14t6.5 -33q-4 -15 -23 -37.5t-45.5 -58t-43.5 -77.5q36 0 78.5 14t64.5 14q21 0 33.5 -10 t8.5 -29q-4 -16 -20 -28t-33 -12q-11 0 -55 17t-81 17q-14 -30 -26 -74t-8 -70q-24 -23 -51 -69t-40 -80q37 0 81 16.5t65 16.5q18 0 27 -11t5 -31q-3 -16 -19.5 -26.5t-34.5 -10.5q-17 0 -50 14t-85 14q-19 -48 -23.5 -72t-4 -47.5t-5.5 -53.5q-4 -19 -21.5 -32t-41.5 -13 q-13 0 -23.5 14t-6.5 33q4 15 23 37.5t45.5 58t43.5 77.5q-36 0 -78.5 -14t-64.5 -14q-21 0 -33.5 10t-8.5 29q4 16 20 28t33 12q11 0 55 -17t81 -17q50 109 45 157q40 35 82 136z" />
<glyph unicode="&#x2022;" horiz-adv-x="256" d="M236 346q0 -58 -46 -119t-101 -61q-26 0 -45 19.5t-19 47.5q0 54 56 111t101 57q25 0 39.5 -14.5t14.5 -40.5z" />
<glyph unicode="&#x2026;" horiz-adv-x="600" d="M542 50q0 -23 -18 -41.5t-40 -18.5q-19 0 -30.5 14t-11.5 36q0 23 18 41.5t40 18.5q19 0 30.5 -14t11.5 -36zM342 50q0 -23 -18 -41.5t-40 -18.5q-19 0 -30.5 14t-11.5 36q0 23 18 41.5t40 18.5q19 0 30.5 -14t11.5 -36zM142 50q0 -23 -18 -41.5t-40 -18.5 q-19 0 -30.5 14t-11.5 36q0 23 18 41.5t40 18.5q19 0 30.5 -14t11.5 -36z" />
<glyph unicode="&#x2030;" horiz-adv-x="626" d="M381 209q0 -64 -46 -132t-101 -68q-26 0 -45 21.5t-19 52.5q0 60 56 123.5t101 63.5q25 0 39.5 -16t14.5 -45zM362 198q0 16 -1 25t-7 16.5t-18 7.5q-34 0 -71 -71t-37 -116q0 -30 21 -30q25 0 69 55.5t44 112.5zM491 599q0 -20 -26.5 -43t-91.5 -58q-119 -179 -282 -376 q-38 -46 -82 -128q-6 -6 -20 -6h-12q-6 0 -12.5 -7t-9.5 -14l-3 -7l-12 1q23 70 49.5 113t78.5 97l68 74q102 115 197 240l-73 -13q-22 -63 -62 -101t-75 -38q-26 0 -45.5 20.5t-19.5 49.5q0 58 53.5 124t108.5 66q22 0 35 -15.5t13 -42.5q0 -23 -5 -46q49 4 88 20 q75 107 120 107q20 0 20 -17zM590 209q0 -64 -46 -132t-101 -68q-26 0 -45 21.5t-19 52.5q0 60 56 123.5t101 63.5q25 0 39.5 -16t14.5 -45zM474 594q0 8 -9 8q-25 0 -78 -78q47 28 67 43t20 27zM251 534q0 34 -26 34q-12 0 -21.5 -10.5t-9.5 -25.5q0 -38 49 -41q8 24 8 43z M240 475q-33 8 -44.5 16.5t-23.5 35.5q-55 -96 -55 -144q0 -27 25 -27q18 0 51.5 35t46.5 84zM571 198q0 16 -1 25t-7 16.5t-18 7.5q-34 0 -71 -71t-37 -116q0 -30 21 -30q25 0 69 55.5t44 112.5z" />
<glyph unicode="&#x2039;" horiz-adv-x="174" d="M133 75l-91 112l157 100l-8 -23l-122 -77l73 -89z" />
<glyph unicode="&#x203a;" horiz-adv-x="174" d="M108 287l91 -112l-157 -100l8 23l122 77l-73 89z" />
<glyph unicode="&#x2044;" horiz-adv-x="170" d="M326 656q-80 -95 -236.5 -323.5t-182.5 -296.5q-9 -24 -17.5 -33.5t-24.5 -12.5q-5 -1 -11 -1q-5 0 -8.5 -4t-7 -12t-5.5 -11q-4 -6 -8 -6q-5 0 -5 6q0 36 70 151q88 142 171.5 251t247.5 294z" />
<glyph unicode="&#x20ac;" horiz-adv-x="470" d="M481 361q0 -31 -21 -52.5t-51 -21.5q-48 0 -48 40q0 23 12 37t32 14q9 0 21 -11q-17 -11 -17 -20q0 -19 14 -19q12 0 24.5 13t12.5 29q0 27 -20.5 44t-46.5 17q-59 0 -117 -53t-98 -130h152l-4 -16h-155q-11 -24 -21 -50h144l-4 -16h-145q-10 -34 -10 -66q0 -89 72 -89 q41 0 91.5 32.5t97.5 83.5l9 -7q-48 -56 -105.5 -91.5t-110.5 -35.5q-129 0 -129 104q0 35 9 69h-48l4 16h49q7 23 21 50h-38l4 16h42q49 84 132 139.5t161 55.5q35 0 60 -23t25 -59z" />
<glyph unicode="&#xe000;" horiz-adv-x="330" d="M0 330h330v-330h-330v330z" />
<glyph unicode="&#xe001;" horiz-adv-x="916" d="M433 -28q-69 0 -150 50q-7 -5 -20 -13.5t-51.5 -22t-75.5 -13.5q-58 0 -93.5 24.5t-35.5 66.5q0 31 26 52t69 21q15 0 30 -2.5t29 -8t26 -11t24.5 -13l20 -12t17.5 -11.5t11 -8q16 11 32 48t40.5 102t48.5 113q126 250 279 308q-43 61 -118 96t-170 35q-83 0 -148.5 -27 t-102.5 -70t-55.5 -90.5t-18.5 -94.5q0 -84 56 -148.5t138 -64.5q48 0 91 35.5t43 86.5q0 45 -28 77t-72 48l8 11q48 -17 76 -54t28 -82q0 -58 -46 -96t-100 -38q-87 0 -146 66.5t-59 155.5q0 54 20.5 105.5t59.5 95t105.5 70t150.5 26.5q94 0 174.5 -34.5t133.5 -101.5 q52 16 112 16q50 0 91 -15t63 -37l-4 -8q-47 31 -73.5 39.5t-76.5 8.5q-57 0 -103 -16q71 -100 71 -242q0 -95 -45.5 -193.5t-122.5 -164t-159 -65.5zM708 476q0 95 -40 153q-41 -18 -72.5 -50.5t-52.5 -75.5t-34.5 -81t-30 -90.5t-27.5 -81.5q-11 -27 -22 -50.5t-19.5 -40 t-21 -33t-18.5 -25t-19 -21t-17 -16t-18 -14.5t-16 -13q2 -1 11.5 -7t16 -10t16.5 -8.5t19.5 -7t17.5 -2.5q64 0 126.5 48t105 119.5t69 154t26.5 152.5zM244 58q-7 7 -19.5 18t-53.5 29t-84 19q-28 0 -45.5 -17t-17.5 -43q0 -31 25.5 -52.5t62.5 -21.5q56 0 129 65z" />
<glyph unicode="&#xe002;" horiz-adv-x="1130" d="M567 595q-103 43 -194 43q-142 0 -248 -95.5t-106 -228.5q0 -103 63 -181t160 -78q84 0 147 62t63 148q0 36 -15 66q-68 -75 -154 -75q-52 0 -73 15l11 10q43 -13 61 -13q78 0 145 80q-22 34 -58.5 54t-77.5 21q-69 1 -119 -49.5t-50 -117.5q0 -52 39.5 -91.5t86.5 -38.5 l-2 -11q-57 -1 -98 40t-41 99q0 76 54 130t130 52q94 -2 146 -75q22 30 43.5 68.5t47 89.5t39.5 76zM923 449l-1 1q47 0 84.5 27.5t37.5 67.5q0 35 -26.5 60t-63.5 25q-61 0 -97.5 -44t-39.5 -103q73 -34 106 -34zM738 522l-2 1q7 62 59 102t126 40q55 0 94.5 -36t39.5 -84 q0 -42 -41.5 -74.5t-92.5 -32.5q-38 0 -106 30q2 -54 23 -89q3 -4 20.5 -13t18.5 -20q0 -10 -12 -12q-21 -3 -40 23q-23 11 -49.5 11.5t-54.5 -15t-51 -38t-37.5 -57.5t-14.5 -74q0 -81 47 -139t114 -58q92 0 159.5 66t67.5 155q0 47 -24 76.5t-64 29.5q-61 0 -112 -51.5 t-51 -106.5q0 -34 20.5 -57t49.5 -23q28 0 49 14.5t31.5 34t16.5 45.5t7 41t1 30h12q1 -23 -2.5 -49.5t-14.5 -58t-37 -51.5t-63 -20q-36 0 -60 27.5t-24 66.5q0 62 55.5 117t121.5 55q45 0 73.5 -33.5t28.5 -86.5q0 -98 -72.5 -168.5t-168.5 -70.5q-121 0 -188.5 62 t-67.5 160q0 96 66 160.5t182 55.5q-14 21 -24 50t-10 49q-25 13 -61 33t-59 32.5t-35 17.5q-13 -24 -40 -79.5t-49 -95.5t-47 -70q21 -39 21 -81q0 -92 -64.5 -154.5t-161.5 -62.5q-108 0 -174.5 79.5t-66.5 188.5q0 144 109.5 240t266.5 96q84 0 195 -43q32 53 105 94.5 t146 41.5q32 0 54 -8l-4 -8q-26 6 -51 6q-66 0 -135.5 -41t-97.5 -91q11 -4 33 -16t57.5 -31t59.5 -32z" />
<glyph unicode="&#xe003;" horiz-adv-x="1026" d="M1019 427q0 11 -15 11q-6 0 -14.5 -12t-12.5 -24t0 -12q11 0 26.5 9.5t15.5 27.5zM800 397q-68 -184 -101 -262.5t-46 -98.5t-44 -50q-45 -45 -104.5 -70t-114.5 -25q-153 0 -251.5 108.5t-98.5 270.5q0 97 44 183.5t125.5 140.5t180.5 54q41 0 79.5 -10.5t56.5 -21.5 l18 -10q-1 -1 -12.5 -13.5t-23.5 -27.5t-26.5 -36.5t-26.5 -49t-17 -55.5q-50 -19 -86 -52.5t-51.5 -68t-22 -59t-5.5 -40.5q1 -56 50.5 -100t110.5 -44q92 0 172 91.5t80 208.5q0 37 -7 65q58 -9 121 -28zM675 440q-17 60 -51 106.5t-52 56.5l6.5 6.5t22.5 14.5t41 18 t63.5 14.5t88.5 6.5q64 0 109.5 -8.5t121.5 -32.5q37 -12 87 -39.5t95 -45.5t95 -18q46 0 79.5 25t40.5 53q2 8 2 10q-2 -3 -5.5 -8.5t-15 -19t-25 -23.5t-34 -18.5t-42.5 -8.5q-45 0 -92 19t-90.5 46.5t-90 54.5t-108 46t-127.5 19q-61 0 -121.5 -24.5t-90.5 -49.5l-30 -24 q-78 42 -162 42q-161 0 -271.5 -112.5t-110.5 -275.5q0 -169 107.5 -279t274.5 -110q98 0 197.5 44.5t150.5 108.5q31 38 64.5 124t51.5 153l19 67q30 -7 60 -9q-7 -104 -17 -127q-8 -22 -23 -22q-10 0 -28 7l-7 -7q17 -16 34 -16q28 0 47 15.5t27 41.5t10.5 51.5t0.5 54.5 q20 3 39.5 19t19.5 36q0 17 -10 25.5t-22 8.5q-28 0 -42.5 -18.5t-23.5 -49.5q-33 -2 -59 6q4 11 11.5 28.5t30 51.5t45.5 45q13 7 43 12t53.5 9t25.5 9v4q-91 -3 -131.5 -14.5t-87.5 -51.5q-27 -22 -62 -75q-68 18 -132 28zM663 442q-123 15 -211 -13q14 53 48.5 104.5 t59.5 63.5q25 -19 56 -60t47 -95zM667 427q8 -34 8 -67q0 -110 -74.5 -199.5t-166.5 -89.5q-55 0 -100.5 44t-45.5 89q0 58 36.5 115t110.5 88q-1 -8 -1 -26q0 -76 41.5 -116.5t108.5 -29.5v11q-61 -10 -100 28t-39 107q0 15 3 30q95 34 219 16z" />
<glyph unicode="&#xe004;" horiz-adv-x="1218" d="M1391 626q10 -5 8.5 -12t-12.5 -7q-119 1 -200 -72q21 -37 21 -84q0 -81 -50 -139.5t-126 -70.5q-37 -128 -126 -199t-232 -71q-77 0 -140 24q-76 -26 -158 -26q-147 0 -258.5 98.5t-111.5 235.5q0 122 88.5 213t202.5 91q95 0 172.5 -53t90.5 -135q87 -1 134 -72 q69 131 101 174q87 118 210 118q10 0 28 -2q80 26 157 26q139 0 201 -37zM1376 618q-49 23 -90.5 29.5t-106.5 6.5q-66 0 -129 -19q68 -15 112 -65q87 47 214 48zM1193 451q0 41 -17 75q-89 -87 -141 -274q67 13 112.5 71.5t45.5 127.5zM1151 563q-49 52 -125 63 q-81 -30 -131 -87t-50 -135q0 -54 24.5 -92t67.5 -54q42 111 90 185.5t124 119.5zM1008 628h-14q-28 0 -53 -7.5t-44.5 -18t-40 -32t-33.5 -37.5t-31.5 -47.5t-28 -50l-28.5 -55.5t-28 -55q22 -45 22 -105q0 -77 -48 -132.5t-129 -86.5q42 -15 86 -15q55 0 104 23t85 63 t61.5 83.5t44.5 93.5q-52 17 -79 59.5t-27 99.5q0 76 50 131.5t131 88.5zM684 328q-43 77 -123 78q1 -5 1 -15q0 -80 -46.5 -149.5t-118.5 -94.5q13 -36 41 -69q57 15 105.5 57t76.5 84t64 109zM543 389q0 11 -1 16q-69 -7 -112.5 -63t-43.5 -130q0 -23 7 -53 q67 25 108.5 91t41.5 139zM712 222q0 44 -16 82q-51 -94 -107.5 -154t-139.5 -83q41 -39 84 -58q80 31 129.5 86t49.5 127zM541 418q-12 79 -82 128.5t-158 49.5q-103 0 -191.5 -89t-88.5 -204q0 -125 108 -224t247 -99q74 0 139 22q-54 25 -87 60q-31 -7 -74 -7 q-94 0 -160 49l6 9q79 -45 154 -45q36 0 64 6q-24 28 -38 68q-27 -8 -53 -8q-73 0 -127.5 47t-54.5 118q0 58 43 94t80 28l-1 -11q-36 4 -70.5 -31t-34.5 -80q0 -63 49.5 -107.5t115.5 -44.5q27 0 49 6q-10 35 -10 71q0 70 48.5 128.5t126.5 65.5z" />
<glyph unicode="&#xe005;" horiz-adv-x="1121" d="M1267 615h34q-48 -19 -117 -59q-43 -25 -87.5 -96.5t-111.5 -208.5q-71 -135 -71 -207q0 -18 8.5 -33t23.5 -15q19 0 41 24.5t33.5 45t13.5 26.5q3 1 6 0.5t5 1.5q-29 -62 -55 -87.5t-58 -25.5q-37 0 -59 28.5t-22 73.5q0 123 212 390q-98 -75 -170 -165 q-51 -62 -136 -186t-108 -149q-5 8 -5 13q6 17 15 40t11 31t4.5 24.5t2.5 40.5q0 164 11 225t55 153q-39 -40 -79.5 -116t-79.5 -165.5t-55 -117.5q-29 -52 -101.5 -89t-149.5 -37q-113 0 -197.5 71.5t-84.5 168.5q0 108 70.5 184t166.5 76q81 0 138 -50.5t57 -123.5 q0 -74 -56 -131.5t-121 -57.5q-57 0 -88.5 38t-31.5 98q0 32 20 87l12 -3q-21 -51 -21 -84q0 -56 30 -90.5t79 -34.5q61 0 113.5 54t52.5 124q0 69 -54.5 116t-129.5 47q-91 0 -158.5 -74t-67.5 -175q0 -35 17 -74t49 -74t86 -58t119 -23q144 0 258 210q61 111 85.5 153.5 t65 106.5t69.5 94.5t62 50.5q-153 52 -187 52q-59 0 -102.5 -15t-63.5 -33.5t-32 -45t-13.5 -39t-1.5 -25.5v-2q0 -48 28 -82t69 -34q30 0 51 21h6q-18 -27 -33.5 -36.5t-36.5 -9.5q-50 0 -83 36t-33 90q0 22 4.5 43.5t20 48t41 45.5t72 32.5t107.5 13.5q15 0 64 -13.5 t91 -27.5l41 -13q23 12 40 12q21 0 21 -15q0 -18 -24 -18q-10 0 -19 6q-37 -52 -53 -162q-3 -21 -3 -39q0 -12 1 -35t1 -35q0 -19 -3 -43q-3 -23 -9.5 -47t-17 -52.5t-12.5 -35.5q118 170 218.5 266t207.5 157q82 45 92 49z" />
<glyph unicode="&#xe006;" horiz-adv-x="1238" d="M448 149q23 -13 50 -38.5t42.5 -43t52.5 -60.5q93 48 138 93q18 18 53.5 88t67.5 139.5t36 75.5q95 149 221 218q-7 6 -21 15t-65.5 24.5t-111.5 15.5q-121 0 -208 -68.5t-87 -156.5v-1q1 -63 39.5 -104.5t96.5 -41.5q63 0 99 69l3 -15q-29 -63 -102 -63q-62 0 -104.5 46 t-42.5 109q0 40 19.5 80t56 75t97 57t133.5 22q130 0 217 -50l5 -3q83 32 159 32q86 0 159 -33l-2 -6q-76 31 -157 31q-71 0 -140 -34l10 -9q10 -8 24 -23.5t28 -34.5t24 -45.5t10 -52.5q0 -81 -71 -138t-173 -57q-42 0 -71 3q-19 -62 -58.5 -113.5t-83 -81t-84 -50.5 t-67.5 -29l-26 -7q16 -20 72 -73q38 18 109.5 53t111 53.5t91.5 34.5t92 16q82 0 144 -42t62 -114q0 -80 -77.5 -126t-166.5 -46q-189 0 -346 128q-193 -106 -343 -106q-142 0 -252.5 88t-110.5 221q0 111 88 203t206 92q68 0 114.5 -44t46.5 -113q0 -28 -7 -59zM430 158h-3 q7 24 7 54q0 62 -39 102.5t-104 40.5h-1q-105 0 -187.5 -89t-82.5 -178q0 -118 88.5 -194.5t217.5 -76.5q151 0 337 84q-43 39 -74 78q-57 -11 -115 -11q-88 0 -141 43q-51 -25 -113 -25q-37 0 -69 10l4 11q29 -9 60 -9q56 0 106 26q-29 31 -29 73q0 33 26.5 51.5t61.5 18.5 q26 0 50 -9zM1275 -83q0 59 -57 96t-116 37q-34 0 -70.5 -9.5t-77.5 -29.5t-72 -38t-81.5 -49t-80.5 -48q155 -128 326 -128q91 0 160 45t69 124zM571 0q-5 5 -23.5 27t-24 28t-20 22t-22.5 23.5t-19 17t-21 16.5q-21 -74 -95 -116q42 -39 103 -39q68 0 122 21zM423 145 q-20 11 -42 11q-26 0 -49.5 -17.5t-23.5 -39.5q0 -36 25 -66q67 41 90 112zM1173 487q0 84 -43 118l-3 2q-3 -2 -9 -5.5t-22.5 -16.5t-31.5 -28t-31.5 -39t-27.5 -50q-69 -179 -69 -182q20 -1 38 -1q79 0 139 60.5t60 141.5z" />
<glyph unicode="&#xe007;" horiz-adv-x="1320" d="M909 701l2 1q-75 0 -133.5 -19.5t-90.5 -46.5t-53 -61.5t-27.5 -60.5t-6.5 -46q0 -82 31.5 -115.5t76.5 -33.5q107 0 132 78l5 -14q-14 -37 -51.5 -56t-85.5 -19q-49 0 -84 36t-35 124q0 23 6.5 50t27.5 62.5t54 63t94 47t140 19.5q56 0 104.5 -12t69.5 -24l21 -12 q1 0 8.5 3.5t22.5 9t34.5 11t48.5 9.5t60 4q40 0 67.5 -6t69.5 -24l-2 -6q-61 27 -135 27q-41 0 -79.5 -9t-56.5 -19l-18 -9q0 -1 11 -8.5t26.5 -20.5t31 -30.5t26.5 -43t11 -53.5q0 -79 -63.5 -130.5t-178.5 -67.5q44 -44 55.5 -66t11.5 -64v-92q0 -8 2 -20q87 12 162 -22 q13 21 13 44q0 37 -36 99l8 6q40 -53 40 -105q0 -27 -14 -50q27 -15 51 -51.5t24 -73.5q0 -69 -73 -119t-160 -50q-188 0 -353 135q-185 -99 -355 -99q-93 0 -175 39.5t-133.5 113t-51.5 163.5q0 68 39 134.5t107 110.5t145 44q81 0 126 -41t45 -121q0 -24 -7 -56 q54 -31 144 -142q105 44 159 157q9 19 48 110.5t61 141.5q19 43 48 82t57 64t53.5 44.5t40.5 28.5l16 8q-6 5 -19 13.5t-59.5 22t-100.5 13.5zM1159 512q0 45 -13.5 78t-26.5 44l-13 10q-3 -1 -7.5 -4t-19.5 -16t-29 -30t-32.5 -47.5t-34.5 -67.5q-25 -58 -47 -161 q85 -11 154 48t69 146zM682 -94q-40 36 -76 80q-76 -17 -148.5 -10.5t-115.5 47.5q-43 -20 -101.5 -23.5t-83.5 10.5l4 10q35 -13 83 -9.5t87 23.5q-26 29 -26 71q0 45 50.5 64.5t89.5 -2.5q7 30 7 53q0 68 -42 108t-108 40q-71 0 -136 -44.5t-102 -106t-37 -117.5 q0 -122 97 -200t228 -78q136 0 330 84zM440 155q-34 19 -77.5 4t-43.5 -52t26 -66q68 42 95 114zM585 10q-4 5 -26 31.5t-28.5 34t-22 25t-27 27t-23.5 17.5q-27 -72 -102 -114q81 -75 229 -21zM988 40v2q-19 28 -19 61q0 28 4 72t4 61q0 39 -44 68q-46 -101 -61 -137 q-24 -58 -91.5 -105.5t-155.5 -70.5q26 -31 74 -78q36 16 90 42.5t100.5 47t98.5 37.5zM1000 27h-1q-55 -24 -143.5 -77t-118.5 -69q163 -133 320 -133q86 0 158.5 47.5t72.5 115.5q0 71 -63 108l-1 1q-34 -42 -104 -42q-74 0 -120 49zM1213 26h-1q-72 36 -151 22 q9 -25 30.5 -40t49.5 -15q44 0 72 33z" />
<glyph unicode="&#xe008;" horiz-adv-x="1005" d="M1229 600q0 -36 -55 -65t-108 -29t-114 25q-11 -18 -22 -42.5t-17.5 -42t-16.5 -53t-13.5 -49.5t-14 -58.5t-12.5 -53.5q-12 -49 -32 -92.5t-58.5 -89t-89 -78t-127.5 -53.5t-170 -21q-158 0 -262 95t-104 244q0 115 61.5 216.5t160 159.5t204.5 58q129 0 224 -83 t95 -206q0 -86 -52 -177.5t-145 -156t-197 -64.5q-98 0 -163.5 66t-65.5 157q0 135 97.5 235.5t223.5 100.5q79 0 137 -51t58 -127q0 -89 -62.5 -162t-145.5 -78q-7 0 -10 3.5t-1 7.5t9 4q73 5 134 72.5t61 150.5q0 71 -54.5 121t-127.5 50q-78 0 -150.5 -53t-113 -125.5 t-40.5 -136.5q0 -91 61.5 -158.5t150.5 -67.5q76 0 148.5 40t121.5 99.5t79 127t30 124.5q0 118 -90.5 198t-213.5 80q-68 0 -141 -34.5t-132 -90.5t-97.5 -135.5t-38.5 -162.5q0 -134 102 -233t238 -99q73 0 136.5 25t106.5 63.5t78 90t54.5 98.5t31.5 95q41 161 138 269 q-48 24 -113 67t-121.5 82t-120 76.5t-131 60t-131.5 22.5q-36 0 -79 -10t-86 -29t-71 -53.5t-28 -77.5q0 -47 42 -89q6 -6 1 -9q-4 -1 -9 2q-15 8 -31.5 35.5t-16.5 57.5q0 46 28 82.5t71 57t89.5 31t89.5 10.5q84 0 177 -36t159.5 -80t154 -103.5t135.5 -85.5 q47 49 94.5 75t109.5 26q40 0 71.5 -14.5t31.5 -45.5zM1214 600q0 47 -84 47q-54 0 -99 -32t-73 -75q56 -25 104 -25q50 0 101 28.5t51 56.5z" />
<glyph unicode="&#xe009;" horiz-adv-x="328" d="M351 218q-46 -69 -111 -147q-80 -86 -157 -86q-25 0 -39.5 19.5t-14.5 54.5q0 21 15 49q69 107 69 125q0 7 -5 7q-4 0 -8 -2.5t-9.5 -7t-9.5 -6.5t-8 -5t-7 -5t-7 -3.5t-8 -1.5q-41 -71 -96 -123.5t-144 -102.5l-6 11q87 54 138.5 101t95.5 115q-18 8 -18 39 q0 25 18.5 49.5t38.5 24.5q9 0 16.5 -6.5t7.5 -16.5q0 -28 -34 -69q7 6 20 17t19 15.5t15.5 12t14.5 11t12 7t13 5t11 1.5q34 0 34 -42q0 -5 -1.5 -9.5t-3 -7.5t-6 -9.5t-7.5 -12.5l-81 -139q-19 -32 -19 -44q0 -27 25 -27t66 27t84 86q69 89 79 103zM87 299q0 9 -9 9 q-14 0 -27 -23t-13 -42q0 -13 10 -13q39 47 39 69z" />
<glyph unicode="&#xe00a;" horiz-adv-x="289" d="M312 218q-33 -55 -63.5 -91.5t-58.5 -54t-47.5 -24t-47.5 -10.5q-47 -55 -112 -55q-70 0 -78 58q-69 -46 -90 -58l-6 11q64 41 95 65q1 21 14.5 36t33.5 15q6 0 9 -2q48 47 86 105q-3 7 -3 15q-2 19 0.5 46.5t9.5 40.5q19 32 41 32q25 0 25 -18q0 -11 -4 -23t-6 -17 t-11.5 -20.5t-9.5 -16.5q28 -66 30 -109q0 -16 -3.5 -38t-7.5 -37l-4 -14q57 11 99 42.5t101 128.5zM108 327q0 12 -12 11q-7 0 -13.5 -16.5t-5.5 -33.5q0 -1 0.5 -5.5t2 -9.5t3.5 -9q25 36 25 63zM60 156q0 17 -9 44q-34 -56 -75 -98q7 -4 16.5 -13.5t17 -15t14.5 -5.5 q36 30 36 88zM14 56q-12 7 -27.5 19.5t-21.5 14.5q-13 -10 -24 -21q3 -20 32 -25q31 -6 41 12z" />
<glyph unicode="&#xe00b;" horiz-adv-x="236" d="M24 566q0 51 65 90t141 39q23 0 61.5 -10t68.5 -28q25 -15 38.5 -30t30.5 -52q69 43 112.5 56.5t91.5 13.5q69 0 122.5 -46.5t53.5 -106.5q0 -65 -54 -111t-129 -46q-62 0 -103 34t-41 84q0 46 36 79.5t87 33.5q33 0 55.5 -23t22.5 -55q0 -28 -17 -47t-43 -19 q-20 0 -26 4q-24 15 -24 32q0 10 5 21q20 -12 27 -12q12 0 20 11t8 25q0 18 -15 30t-34 12q-36 0 -63 -25t-27 -59q0 -51 35.5 -83.5t90.5 -32.5q65 0 111 43t46 104q0 60 -44 102t-107 42q-45 0 -81 -13t-114 -56q-4 -50 -12 -74.5t-30 -49.5q-39 -43 -107 -60 q-43 -10 -109 -9l-135 -239q-44 -75 -44 -91q0 -13 8 -25.5t18 -12.5q40 0 92 51t138 166l8 -7q-34 -55 -118 -154q-65 -77 -149 -77q-25 0 -40.5 18.5t-15.5 47.5q0 13 4 28t11 30.5t13 27t13.5 24t8.5 15.5l107 198h-118v10h106q35 0 73 38q12 12 27 42q-57 0 -106.5 30.5 t-49.5 71.5zM398 558q0 58 -49.5 93t-118.5 35q-71 0 -122.5 -37t-51.5 -88q0 -41 52 -73q22 -14 80 -14l36 60q18 37 55 39l-48 -96q89 20 167 81zM399 548h1q-50 -36 -86.5 -53t-88.5 -30q-18 -37 -45 -79q9 0 21 0.5t16 0.5q64 0 110 29q65 42 72 132z" />
<glyph unicode="&#xe100;" horiz-adv-x="607" d="M645 590q0 -36 -30.5 -82.5t-80.5 -89.5q1 -4 15 -73.5t14 -112.5q0 -59 -28 -110t-76 -83q-25 -68 -86 -111.5t-136 -43.5q-92 0 -154 57.5t-62 148.5q0 82 58 147t136 65q54 0 100 -37t46 -97q0 -52 -38.5 -88t-89.5 -36q-32 0 -54 19.5t-22 48.5q0 26 15.5 44t42.5 18 q18 0 32 -11t14 -27q-17 5 -33.5 -6t-16.5 -28q0 -16 14 -26t32 -10q32 0 58 35t26 77q0 50 -39.5 82t-88.5 32q-73 0 -124.5 -63.5t-51.5 -142.5q0 -63 41 -118.5t103 -55.5t108 34.5t70.5 92.5t36 121.5t11.5 133.5q0 26 3 48q-64 -27 -109 -27q-63 0 -111 34.5t-48 90.5 q0 68 44.5 121.5t105.5 79.5t122 26q102 0 147 -46q20 17 44 17q17 0 28.5 -15t11.5 -33zM566 577q0 13 -5 20q-14 -24 -24 -68q29 26 29 48zM615 592q0 36 -19 36q-14 0 -27 -18q10 -17 10 -33q0 -30 -46 -67q-8 -47 -2 -72q84 81 84 154zM503 483q-58 -50 -64 -114 q33 18 58 38q1 41 6 76zM552 612q-40 43 -138 43q-91 0 -173 -60.5t-82 -154.5q0 -50 43 -82t99 -32q47 0 112 30q16 83 93 147q13 73 46 109zM497 389q-22 -17 -59 -35v-3q0 -22 4.5 -46.5t12 -56t10.5 -51.5q32 86 32 192z" />
<glyph unicode="&#xef00;" horiz-adv-x="954" d="M918 172q0 -27 -19 -43.5t-49 -16.5q-79 0 -181 73q-32 -8 -61 -8q-43 0 -84 38t-41 97q-21 5 -46 5q-31 0 -71 -22t-68 -61q-22 -30 -22 -94q0 -35 39 -74.5t82 -39.5q64 0 95 27.5t31 73.5q0 42 -25.5 69.5t-68.5 27.5q-22 0 -35.5 -15.5t-13.5 -39.5q0 -16 9 -26.5 t22 -9.5q9 0 16.5 7.5t12 15.5t5.5 8q8 0 13 -7.5t5 -18.5q0 -25 -15.5 -42.5t-36.5 -17.5q-29 0 -51 23.5t-22 54.5q0 35 26 59t65 24q43 0 73.5 -32.5t30.5 -79.5q0 -52 -38.5 -87t-97.5 -35q-55 0 -96 40.5t-41 94.5q0 47 19 84q-70 -52 -136 -52q-54 0 -93.5 41 t-39.5 99q0 51 39 86.5t97 35.5q50 0 84.5 -34.5t34.5 -84.5q0 -39 -26 -65t-65 -26q-37 0 -65 23.5t-28 56.5q0 28 19.5 49t45.5 21q21 0 35 -15.5t14 -43.5q-2 -4 -7 -1.5t-16.5 6.5t-18.5 2q-26 -3 -26 -36q0 -17 14.5 -30.5t33.5 -13.5q41 0 60.5 20.5t19.5 53.5 q0 49 -29.5 77t-77.5 28q-47 0 -84.5 -35.5t-37.5 -74.5q0 -54 34 -90t83 -36q36 0 63.5 11.5t79.5 47.5q87 84 151 84l45 -3q0 40 34 68t79 28q54 0 103.5 -36t107.5 -117l-18 2q-54 69 -96.5 97t-96.5 28q-24 0 -55 -22.5t-31 -52.5q38 -12 59 -24q30 -16 71 -53t45 -40 q97 34 153 34q36 0 58.5 -18t22.5 -47zM907 172q0 24 -20 38t-50 14q-67 0 -142 -32q103 -67 155 -67q25 0 41 13.5t16 33.5zM658 195q-38 39 -86 81q-23 16 -64 31q0 -42 29.5 -79.5t70.5 -37.5q20 0 50 5z" />
<glyph unicode="&#xef01;" horiz-adv-x="954" d="M932 312q0 -58 -39.5 -99t-93.5 -41q-66 0 -136 52q19 -37 19 -84q0 -54 -41 -94.5t-96 -40.5q-59 0 -97.5 35t-38.5 87q0 47 30.5 79.5t73.5 32.5q39 0 65 -24t26 -59q0 -31 -22 -54.5t-51 -23.5q-21 0 -36.5 17.5t-15.5 42.5q0 11 5 18.5t13 7.5q1 0 5.5 -8t12 -15.5 t16.5 -7.5q13 -1 22 9.5t9 26.5q0 24 -13.5 39.5t-35.5 15.5q-43 0 -68.5 -27.5t-25.5 -69.5q0 -46 31 -73.5t95 -27.5q43 0 82 39.5t39 74.5q0 64 -22 94q-28 39 -68 61t-71 22q-25 0 -46 -5q0 -59 -41 -97t-84 -38q-29 0 -61 8q-102 -73 -181 -73q-30 0 -49 16.5t-19 43.5 q0 29 22.5 47t58.5 18q56 0 153 -34q4 3 45 40t71 53q21 12 59 24q0 30 -31 52.5t-55 22.5q-54 0 -96.5 -28t-96.5 -97l-18 -2q58 81 107.5 117t103.5 36q45 0 79 -28t34 -68q32 3 45 3q64 0 151 -84q52 -36 79.5 -47.5t63.5 -11.5q49 0 83 36t34 90q0 39 -37.5 74.5 t-84.5 35.5q-48 0 -77.5 -28t-29.5 -77q0 -33 19.5 -53.5t60.5 -20.5q19 0 33.5 13.5t14.5 30.5q0 33 -26 36q-7 2 -18.5 -2t-16.5 -6.5t-7 1.5q0 28 14 43.5t35 15.5q26 0 45.5 -21t19.5 -49q0 -33 -28 -56.5t-65 -23.5q-39 0 -65 26t-26 65q0 50 34.5 84.5t84.5 34.5 q58 0 97 -35.5t39 -86.5zM434 307q-41 -15 -64 -31q-48 -42 -86 -81q30 -5 50 -5q41 0 70.5 37.5t29.5 79.5zM247 192q-75 32 -142 32q-30 0 -50 -14t-20 -38q0 -20 16 -33.5t41 -13.5q52 0 155 67z" />
<glyph unicode="&#xef04;" horiz-adv-x="863" d="M821 244q-67 72 -110 98.5t-93 26.5q-33 0 -55 -12t-40 -45q38 -10 53.5 -19t41.5 -37q50 -1 94.5 -27t44.5 -68q0 -59 -58 -99.5t-143 -40.5q-71 0 -117 23t-92 81q-59 -25 -87 -33.5t-58 -8.5q-78 0 -137.5 53.5t-59.5 123.5q0 66 47.5 108.5t118.5 42.5 q59 0 102.5 -35t43.5 -85q0 -40 -31 -72t-73 -32q-39 0 -66.5 23.5t-27.5 54.5q0 28 17.5 48t44.5 20q20 0 33.5 -12t13.5 -30q0 -10 -5 -21q-15 16 -26 16t-18.5 -9.5t-7.5 -21.5q0 -20 15.5 -33.5t36.5 -13.5q34 0 58.5 24t24.5 59q0 44 -41.5 76.5t-93.5 32.5 q-55 0 -97.5 -39.5t-42.5 -90.5q0 -61 53 -113.5t123 -52.5q36 0 62 7t72 26q-14 30 -14 50q0 44 20.5 73.5t51.5 40.5t55.5 14.5t44.5 1.5q19 78 109 78q58 0 104 -30.5t109 -109.5v-11zM604 257q-21 21 -35 29t-48 16q0 -26 16 -57q20 10 67 12zM618 223q0 9 -5 21h-14 t-26.5 -2t-31.5 -9q22 -35 56 -35q21 0 21 25zM748 161q0 33 -37.5 55.5t-87.5 27.5q11 -13 11 -28t-9.5 -24.5t-27.5 -9.5q-40 0 -72 46q-17 -8 -68.5 -41.5t-80.5 -48.5q81 -102 201 -102q70 0 120.5 37.5t50.5 87.5zM519 240q-17 30 -20 67q-62 5 -101.5 -23.5 t-39.5 -80.5q0 -20 12 -54q32 18 82 50t67 41z" />
<glyph unicode="&#xef05;" horiz-adv-x="863" d="M858 209q0 -70 -59.5 -123.5t-137.5 -53.5q-30 0 -58 8.5t-87 33.5q-46 -58 -92 -81t-117 -23q-85 0 -143 40.5t-58 99.5q0 42 44.5 68t94.5 27q26 28 41.5 37t53.5 19q-18 33 -40 45t-55 12q-50 0 -93 -26.5t-110 -98.5v19q61 76 107 104t106 28q89 0 109 -78 q20 2 44.5 -1.5t55.5 -14.5t51.5 -40.5t20.5 -73.5q0 -20 -14 -50q46 -19 72 -26t62 -7q70 0 123 52.5t53 113.5q0 51 -42.5 90.5t-97.5 39.5q-52 0 -93.5 -32.5t-41.5 -76.5q0 -35 24.5 -59t58.5 -24q21 0 36.5 13.5t15.5 33.5q0 12 -7.5 21.5t-18.5 9.5t-26 -16 q-5 11 -5 21q0 18 13.5 30t33.5 12q27 0 44.5 -20t17.5 -48q0 -31 -27.5 -54.5t-66.5 -23.5q-42 0 -73 32t-31 72q0 50 43.5 85t102.5 35q71 0 118.5 -42.5t47.5 -108.5zM505 152q0 52 -39.5 80.5t-101.5 23.5q-3 -37 -20 -67q17 -9 67 -41t82 -50q12 34 12 54zM342 251 q-34 -8 -48 -16t-35 -29q47 -2 67 -12q16 31 16 57zM322 182q-18 7 -31.5 9t-26.5 2h-14q-5 -12 -5 -21q0 -25 21 -25q34 0 56 35zM487 87q-29 15 -80.5 48.5t-68.5 41.5q-32 -46 -72 -46q-18 0 -27.5 9.5t-9.5 24.5t11 28q-50 -5 -87.5 -27.5t-37.5 -55.5q0 -50 50.5 -87.5 t120.5 -37.5q120 0 201 102z" />
<glyph unicode="&#xef07;" horiz-adv-x="926" d="M897 182q0 -57 -43 -96t-103 -39q-54 0 -89.5 34t-35.5 85q0 35 21.5 56.5t56.5 21.5q27 0 45 -16.5t18 -40.5q0 -22 -10.5 -37t-31.5 -15l-15 5q10 19 10 32q0 10 -8 18t-18 8q-20 0 -33.5 -17t-13.5 -41q0 -34 30.5 -58.5t73.5 -24.5t76 33t33 76q0 58 -35 94t-89 36 q-39 0 -91.5 -27t-100 -48.5t-82.5 -11.5q-60 -152 -206 -152q-95 0 -153.5 48.5t-58.5 128.5q0 39 42 88h15q-36 -47 -36 -88q0 -61 59 -111t133 -50q68 0 118.5 39.5t71.5 99.5q-96 33 -96 90q0 22 13.5 39.5t33.5 17.5q43 0 59 -32.5t9 -102.5q31 -7 76 15t101 47.5 t108 25.5q59 0 102.5 -38t43.5 -92zM451 227q12 116 -38 116q-17 0 -29 -12.5t-12 -26.5q0 -31 21 -48t58 -29z" />
<glyph unicode="&#xef09;" horiz-adv-x="926" d="M884 234q0 -80 -58.5 -128.5t-153.5 -48.5q-146 0 -206 152q-35 -10 -82.5 11.5t-100 48.5t-91.5 27q-54 0 -89 -36t-35 -94q0 -43 33 -76t76 -33t73.5 24.5t30.5 58.5q0 24 -13.5 41t-33.5 17q-10 0 -18 -8t-8 -18q0 -6 2.5 -14t5.5 -13l2 -5q-9 -5 -15 -5 q-21 0 -31.5 15t-10.5 37q0 24 18 40.5t45 16.5q35 0 56.5 -21.5t21.5 -56.5q0 -51 -35.5 -85t-89.5 -34q-60 0 -103 39t-43 96q0 54 43.5 92t102.5 38q52 0 108 -25.5t101 -47.5t76 -15q-7 70 9 102.5t59 32.5q20 0 33.5 -17.5t13.5 -39.5q0 -57 -96 -90q21 -60 71.5 -99.5 t118.5 -39.5q74 0 133 50t59 111q0 41 -36 88h15q42 -49 42 -88zM556 304q0 14 -12 26.5t-29 12.5q-50 0 -38 -116q37 12 58 29t21 48z" />
<glyph unicode="&#xef11;" horiz-adv-x="863" d="M846 228q0 -69 -62 -118.5t-142 -49.5q-30 0 -58 8.5t-87 33.5q-46 -58 -92 -81t-117 -23q-85 0 -143 40.5t-58 99.5q0 42 44.5 68t94.5 27q26 28 41.5 37t53.5 19q-18 33 -40 45t-55 12q-52 0 -97.5 -28t-105.5 -100l-8 7q58 77 110.5 112t110.5 35q90 0 109 -78 q20 2 44.5 -1.5t55.5 -14.5t51.5 -40.5t20.5 -73.5q0 -20 -14 -50q46 -19 72 -26t62 -7q70 0 123 52.5t53 113.5q0 51 -42.5 90.5t-97.5 39.5q-52 0 -93.5 -32.5t-41.5 -76.5q0 -35 24.5 -59t58.5 -24q21 0 36.5 13.5t15.5 33.5q0 12 -7.5 21.5t-18.5 9.5t-26 -16 q-5 11 -5 21q0 18 13.5 30t33.5 12q27 0 44.5 -20t17.5 -48q0 -31 -27.5 -54.5t-66.5 -23.5q-42 0 -73 32t-31 72q0 50 43.5 85t102.5 35q71 0 122 -47t51 -113zM486 180q0 52 -39.5 80.5t-101.5 23.5q-3 -37 -20 -67q17 -9 67 -41t82 -50q12 34 12 54zM323 279 q-34 -8 -48 -16t-35 -29q47 -2 67 -12q16 31 16 57zM303 210q-18 7 -31.5 9t-26.5 2h-14q-5 -12 -5 -21q0 -25 21 -25q34 0 56 35zM468 115q-29 15 -80.5 48.5t-68.5 41.5q-32 -46 -72 -46q-18 0 -27.5 9.5t-9.5 24.5t11 28q-50 -5 -87.5 -27.5t-37.5 -55.5 q0 -50 50.5 -87.5t120.5 -37.5q120 0 201 102z" />
<glyph unicode="&#xef12;" horiz-adv-x="818" d="M811 269q0 -58 -39.5 -99t-93.5 -41q-66 0 -136 52q19 -37 19 -84q0 -54 -41 -94.5t-96 -40.5q-59 0 -97.5 35t-38.5 87q0 47 30.5 79.5t73.5 32.5q39 0 65 -24t26 -59q0 -31 -22 -54.5t-51 -23.5q-21 0 -36.5 17.5t-15.5 42.5q0 11 5 18.5t13 7.5q1 0 5.5 -7.5t12 -15.5 t16.5 -8q13 -1 22 9.5t9 26.5q0 24 -13.5 39.5t-35.5 15.5q-43 0 -68.5 -27.5t-25.5 -69.5q0 -46 31 -73.5t95 -27.5q43 0 82 39.5t39 74.5q0 64 -22 94q-28 39 -68 61t-71 22q-25 0 -46 -5q0 -59 -41 -97t-84 -38q-29 0 -61 8q-102 -73 -181 -73q-30 0 -49 16.5t-19 43.5 q0 29 22.5 47t58.5 18q56 0 153 -34q4 3 45 40t71 53q21 12 59 24q0 30 -31 52.5t-55 22.5q-54 0 -101.5 -32.5t-101.5 -101.5l-8 7q58 81 107.5 117t103.5 36q45 0 79 -28t34 -68q32 3 45 3q64 0 151 -84q52 -36 79.5 -47.5t63.5 -11.5q49 0 83 36t34 90q0 39 -37.5 74.5 t-84.5 35.5q-48 0 -77.5 -28t-29.5 -77q0 -33 19.5 -53.5t60.5 -20.5q19 0 33.5 13.5t14.5 30.5q0 33 -26 36q-7 2 -18.5 -2t-16.5 -6.5t-7 1.5q0 28 14 43.5t35 15.5q26 0 45.5 -21t19.5 -49q0 -33 -28 -56.5t-65 -23.5q-39 0 -65 26t-26 65q0 50 34.5 84.5t84.5 34.5 q58 0 97 -35.5t39 -86.5zM313 264q-41 -15 -64 -31q-47 -43 -86 -81q30 -5 50 -5q41 0 70.5 37.5t29.5 79.5zM126 149q-75 32 -142 32q-30 0 -50 -14t-20 -38q0 -20 16 -33.5t41 -13.5q52 0 155 67z" />
<glyph unicode="&#xfb01;" horiz-adv-x="442" d="M415 416q0 -22 -15 -39.5t-34 -17.5q-16 0 -27 11.5t-11 27.5q0 21 15.5 36.5t35.5 15.5q15 0 25.5 -10t10.5 -24zM465 218q-196 -233 -264 -233q-27 0 -44.5 16t-17.5 44q0 30 18 68.5t51 90.5t41 66q0 1 2.5 5t3 5t2.5 3.5t3 3.5t3.5 2t5.5 1.5t7 0.5q17 0 23 -4.5 t11 -4.5q4 0 18 14t20 16l-137 -242q-10 -19 -10 -38q0 -26 24 -26t108 85t124 134zM371 566q0 -62 -71.5 -154.5t-177.5 -147.5h55l-10 -18h-71q-28 -53 -70.5 -136.5t-66.5 -129t-58.5 -107t-60 -94.5t-57.5 -66t-64.5 -47t-68.5 -14q-43 0 -71 26t-28 64q0 40 29 72.5 t66 32.5q19 0 34 -15.5t15 -35.5q0 -19 -16 -33t-39 -14q-18 0 -33 26q31 4 31 16q0 11 -6 18.5t-15 7.5q-15 0 -33.5 -27t-18.5 -57q0 -29 25.5 -49.5t59.5 -20.5q37 0 69.5 28t65.5 87t62.5 122t77.5 164t93 182h-60l10 18h61q25 43 56 90t76.5 109t91.5 101t79 39 q14 0 26.5 -11.5t12.5 -25.5zM332 558q0 29 -17 29q-24 0 -100.5 -126t-107.5 -197q115 85 170 166.5t55 127.5z" />
<glyph unicode="&#xfb02;" horiz-adv-x="442" d="M600 624q0 -24 -18 -66.5t-51 -95t-91.5 -109.5t-129.5 -98l-20 -44q-21 -44 -29.5 -64.5t-19 -56.5t-10.5 -60q0 -9 6 -16.5t15 -7.5q39 0 99 65.5t106 153.5l8 -7q-63 -113 -118.5 -171t-121.5 -62q-27 -1 -43.5 22t-16.5 62q0 79 82 223.5t180 256t142 111.5 q12 0 21.5 -11t9.5 -25zM371 566q0 -62 -71.5 -154.5t-177.5 -147.5h55l-10 -18h-71q-28 -53 -70.5 -136.5t-66.5 -129t-58.5 -107t-60 -94.5t-57.5 -66t-64.5 -47t-68.5 -14q-43 0 -71 26t-28 64q0 40 29 72.5t66 32.5q19 0 34 -15.5t15 -35.5q0 -19 -16 -33t-39 -14 q-18 0 -33 26q31 4 31 16q0 11 -6 18.5t-15 7.5q-15 0 -33.5 -27t-18.5 -57q0 -29 25.5 -49.5t59.5 -20.5q37 0 69.5 28t65.5 87t62.5 122t77.5 164t93 182h-60l10 18h61q25 43 56 90t76.5 109t91.5 101t79 39q14 0 26.5 -11.5t12.5 -25.5zM557 618q0 21 -14 21 q-24 0 -100.5 -128.5t-111.5 -222.5q84 49 155 165.5t71 164.5zM332 558q0 29 -17 29q-24 0 -100.5 -126t-107.5 -197q115 85 170 166.5t55 127.5z" />
</font>
</defs>
</svg>
